<mxfile host="Electron" modified="2024-06-25T07:53:14.965Z" agent="Mozilla/5.0 (Windows NT 10.0; Win64; x64) AppleWebKit/537.36 (KHTML, like Gecko) draw.io/21.5.0 Chrome/112.0.5615.204 Electron/24.5.1 Safari/537.36" etag="_KPZHza8el9p305EsAjk" version="21.5.0" type="device">
  <diagram name="Page-1" id="NfOwLOIzXaSOYPy8uVIz">
    <mxGraphModel dx="811" dy="474" grid="1" gridSize="5" guides="1" tooltips="1" connect="1" arrows="1" fold="1" page="1" pageScale="1" pageWidth="1169" pageHeight="827" background="none" math="0" shadow="0">
      <root>
        <mxCell id="0" />
        <mxCell id="1" parent="0" />
        <mxCell id="hwo8MQYsUWOJR3LI0rIK-35" value="" style="endArrow=block;html=1;rounded=0;strokeWidth=3;endFill=1;fillColor=#f0a30a;strokeColor=#BD7000;entryX=0;entryY=0.25;entryDx=0;entryDy=0;" parent="1" edge="1">
          <mxGeometry width="50" height="50" relative="1" as="geometry">
            <mxPoint x="450" y="385.25" as="sourcePoint" />
            <mxPoint x="519" y="385" as="targetPoint" />
          </mxGeometry>
        </mxCell>
        <mxCell id="hwo8MQYsUWOJR3LI0rIK-31" value="" style="endArrow=block;html=1;rounded=0;endFill=1;strokeWidth=3;edgeStyle=orthogonalEdgeStyle;entryX=0.986;entryY=0.224;entryDx=0;entryDy=0;entryPerimeter=0;fillColor=#f0a30a;strokeColor=#BD7000;" parent="1" target="hwo8MQYsUWOJR3LI0rIK-11" edge="1">
          <mxGeometry width="50" height="50" relative="1" as="geometry">
            <mxPoint x="450" y="125" as="sourcePoint" />
            <mxPoint x="450" y="660" as="targetPoint" />
            <Array as="points">
              <mxPoint x="450" y="125" />
              <mxPoint x="450" y="660" />
            </Array>
          </mxGeometry>
        </mxCell>
        <mxCell id="hwo8MQYsUWOJR3LI0rIK-15" value="" style="edgeStyle=orthogonalEdgeStyle;rounded=0;orthogonalLoop=1;jettySize=auto;html=1;endArrow=block;endFill=1;strokeWidth=3;fillColor=#f0a30a;strokeColor=#BD7000;" parent="1" source="bPrpcWnKjRn9Oe089At2-2" target="KvQtNET5gxMqcsmE16n5-4" edge="1">
          <mxGeometry relative="1" as="geometry" />
        </mxCell>
        <mxCell id="bPrpcWnKjRn9Oe089At2-2" value="" style="shape=image;aspect=fixed;image=data:image/png,iVBORw0KGgoAAAANSUhEUgAAAR8AAADDCAIAAAA0voL6AAAAAXNSR0IArs4c6QAAAARnQU1BAACxjwv8YQUAAAAJcEhZcwAADsMAAA7DAcdvqGQAABVFSURBVHhe7Z0rTCTL28aRK5FI5JFIsgq55iRIJGqDRK44yco1J1kcyRokkmQFq/5BIjluc4IgnyJHsQ6531NVT9/q1t3V3cPAPD+xS93fqnqfqcv0zGz9npW7u7ubm5uvX79+/vz55OTk4OBgf39/S4j1Y29vD/55dHQEXwXwW0A/nol51HV1dQUt7ezsOItPT09h7vn5Ocy9vb1lJiHWCbcSXF5eOnXBb8H29jb0hsjn52fmm8AkdV1cXMCUd+/eHR4eQkuPj49MEOJ18vT0BGm1vXqKzArVBQt2d3ePj4/nUrkQ64bbkcHPcdJh1EhGq+vHjx/Y/kHcDw8PjBLi7YIdGU460BgWEkYNZoS6sE/FxvTDhw/4g1FCbAZYS7CiYF0ZdY8wVF1YsiCt2S9VhHhFuAUGhzGG+xikLuw7sWThwMewEJvK8/MzDmPYKzKcpV9dw+sSYkMYuN7k1IXCo9ZBITYHnJX29/fzd3tJdWEFhDpRBcNCiC4/f/7c29vLrGBJdWFDqFVLiDw3NzdYhFJv+cbVhW2lzlpCDAGLEJYiBrpE1IXdIOTIgBCiDyxF0ec5fHW5G31dvgsxiui7wb66cErToxhCjOXx8XF3d9c7gHXUdXV1dXh4yIAQYgzh/rCjLi1cQhQTLl+Nui4uLo6PjxkQQozHfRCTgVpdEBxkp48/CjEFT0dUV+bOXggxnC9fvnz69Mn9TXXpoSchZuHh4QHLl/vbqOvp6WlnZyf1NIcQYhR//PHHz58/8YdRl/uaDhsvhJhKfbdh1HV8fHxxcWHjhRBTub293d/fxx9GXdvb23r0SYgZwdELB7CtWmfF/Pfff6jkfy0Q/D8Lkpgpy69fv1Dk27dvf1d8//79n3/+YfKs/Pvvv6iczfz9NxpF00xLg46gXyxjQSXoIJOF6OKe29ia+CYyPIxfHJzgzz//xLkO+mGBALgpswag7Iwag0JOTk5YdZdMQ9BeqhSAzAa+goiNwt3Lb7Wv5wvAKzodLUvKff/66y/mSMOs0+h9FQChhXhdYFoadC3z2iE2E7dobaU+mjKQgepyYFfGYpbMqtWGuacBDbC6LJ5OGNsHVjAWEMJyc3NzcHCwdWS/k55x4/HUVZ+4IKTwhd97HISxFnh/+/yD7VZdnFET8Cyp+wsteYunNxSMtZbjtQCdxb9RobKAEJa7u7u9vb2t/f39Icf6FJ66oCsmWCASJlTUGSA/RlngtS6+jbvtYGACbT2E64ynFsZaICrgdQogkrkrwjxik3l8fNzZ2dlyV4eMG09eXcBbN5DfxXsFvU3jjHgy7j1ctbuQurGA5pm7QuoSHvQMhoroVZeXIaUub0s2I15D4Q0E9MY0y5DVEt1k7gqpS3jQMxgqolhd3pIC6qR5wVaQDVgY28KTyhAzwrVL14bCg57BUBG96vL2Xe2VIbwewHkm9b5TMW11oUXGtvAOh9++fWNCGuRhbgvMZoIQFXQOhoroVZcnofZJxitbgyIzrmOs1JK6Omeypfd6HcsUs1bMcvUi3hh0DoaKyKgrvO9GkGkV3srWBhqbxWtZnWUWdWnhEkOgfzBUhKcu6AfeCcI7axCubAA1hFvEmum3HazIklIOky2pPA7vCgREOyUE/YOhIlK7u5DMgQqrHFSU0tjEFYy1WCaqK3z7bsYdrHhj0EUYKmKIurCODXyBj65jiGFyEazFEm5NHUy2pG41IC3PtuXeRRBvAHoJQ0Wk1IUVAHz//r3gbeLwMDZl9wUzWIuFsS28FSm6HIXSSglVCAcdhaEiPHXNdQjxrkOmbA571QWbmWaJtuUdIyUt0Qt9haEiFlKXV+0UdXlP4ocWonKmWcIMntQlLTEEugtDRRSr65eFgQBvczhFtN4tX7jxay9u4RlP0hJl0GMYKqJYXfBpuHLo6yC8mmNCEdAwa7F4+vEeyPIuKrxdpaQlhkOnYaiIKepiGXtNh3oc3nu1IPrhlFGE7/+iIejK2zSC9nIaihzqgtkpWEwIC52GoSLgpqzFUqauDLMsF9CMd+MXxZOxdx7rZcr2Vbw96BYMFVGsriG+O+NOLHzGwiN880rqElOgWzBURNtrsT5gN8WEAcAdw32gA7rKPNtRBmyLLpjYKEbbGrji1WQuacQGQrdg6OWAzHAKwjKI5QJ/L+qmqBxNoC2ARke9HAgxnHVRlxBvD6lLiKV4TerCCc3ee49DNw3ipXhN6qKtI8HhiuWFWC10QYbWG9o6EqlLvBR0QYbWm9vuz6wMRFeC4qV4TeoS4nUhdQmxFFKXEEshdQmxFFKXEEshdQmxFFKXEEshdQmxFFKXEEshdQmxFNPVdf3RVPDxmkGP67P3toGt9x+v7xkX4d7VYvKddbPdX599fM86wPuPZ349ddEuTUX3lQ1RfMv9BvOGd6lbSgxHxNT3aCDoUkN+dMV6Y2d4SXW1/CntI61cHXXV2jRO2Hh8tyIWNjnaNJkgXcZ1scW6lSGni0V5iwn6gk/SknG8r87Uqm7QdCoh4vzoivXGzuzi6oIf9WaCywWuDGfvvLBH1wZberz/sa5WQca8zywlWVz5XF+jY4XFMtIrkh9dsd7YWV1eXdeZXM4p4dP8P+vatQKaXLbq0f5XterV09d+BorrOjMiyZRItxyZcRNrj5k7wFAJ+fmvU0NvJrVTJnO0ibihbWKs/zm7gmom+HHdj1jlJNOGSwrSplolXhI7patQV0o8vRm6RJzQRjVnmbPr6/tsFYAabdcyqPUMnWFIVdbJ5OHS/DK5EmLdMXMHGCohP/+t1IhLM9251BD/jrmgi/NoXWqEpGv5eGavQMyfFnM5krOnptUPQ6IvbCRqWnR4siXEumPmDjBUQn7+O6lB1o4T9qvLlY+01Spyb+RhsyVrctV4yazbUt0XunqyJhFbup0v3plgAFpIXW8PM3eAoRLy899NdaHa55xDVYk96qreEhviabmscS/2TSOdiq7PnOoqzuoqbLZu2Wgzrrp4D6Sut4eZO8BQCfn591I7Csql+bi8ae15uOyx3KkUz5iKllF0/4a6EtbZvI1lcbk7NSYascQNy5UQ646ZO8BQCfn591ObV+hATGl1ca8XS0qQNCruwyCRkDaqJlBdl7YRmbFKtJ8pIdYeM3eAoRLy8x+kVvI6C9w24cjjpZV01brxtHv7Sf3endZf2FqyNmYNa+lvX6wvZu4AQyXk5z+S6qIsnfiYm/ZKC4X8a73qgJZy1VRlkdRQHwExqyuC4pHRiF3D3J995J+52sXaY6d1BnXBBbrQ5WP+VJXw3SzwpDoj62zDsnRgZOFhpw526jYwa9pVvbpYVaSmFj3u73pQJwdj5YKGdhWVpZU5SYvFeuPmbw51edAlXKrnoJ7PkdBRE1Vb6nx47fcfao8+KEiXzWrFPfBrqzFkn1639IjL72qkQ85cvzxWL5rhr8ziFeGmcIq6hBBxpC4hlkLqEmIppC4hlkLqEmIppC4hlkLqEmIppC4hlkLqEmIppC4hlkLqEmIppC4hlkLqEmIpVqAu9xy5HvUWG4cT15LqqsTFoBAbgxPXFHVFP8HV0E0OP+CU+jjWvPDDXSAr8yZbjLpo5GNahszHvErI2Ww/08ZUO4baGawjnB+GSsiry0t1QXgDqT+qmHX6ybTkkG3IfngygleU1TGxZt4+pG2uZMdhpHUza1vMgJuZxdTlJ0YyV74yr2+2cS3ADwuboYVeL5az15C2ubamEROjpK91w8wKYKiEnLpsWnvSo5kD750V+mnup0nyuAqCXixkriVjs4vxhRTaKNYAM1WAoRLSThuZ8mhml28hd7UtWhvShmaJuLONWsZcS8bmlIwaK1M5JMDVY+YEMFRC4AAVsemMZm48I4r/BdNtmi+bjmOrZs1JQ3NEle9qrQ+PQ351ZQRZm1OdaA12XEauYHKQxRKYIQcMlTBgvhsimem/yXlnepy8t7iiVWspQ3PEfdLFesx0qZG3mYMRNtVOcH93jS7pvJiKGXPAUAmJeet6SQW9tbkzNEETk1VJGb4FBQ5GcyPGtWIG/OrKYPpsjgnH0c4Z5irou5iOGXTAUAnxiUtMp4tuAaEt9HaXbWqShzknHVaCHUvmTf9+Sptem9MmdXL62UZ3XcyCGXXAUAnRmUtN58qmOdLQ2LZd/qHrUT433b0hlnGIzalOeMtVV16pQmJhzLADhkqITV1yOgvmOXDMNilvdu3UG1CLe1PY7UoHSIZVDMhpKeiZxyCbU1YFzbcippsmyjDjDhgqITJ3NirqlyUTXXBnmFWkoVc03Rf/flzHBmsxwkCb4yMYab7OaP+YYpkoxcwAYKiEYLqdm8SnM+4bqyHWtosLbU3FA3TPf6wv/asrU4nYzLbacfGXApa1j3tIXC+CmQDAUAm+A+TEFfOWlRFpu1ovPIMYHe9DVabaw1VPIc78mKEjOl4uEi1aC4KnIGuqfMnZEAvD4WeoBM8BsuKKe8uKiLTNRcezlvpJWjn0V1dmIDFeAx+Rv+YLgcT1QtjRn6SuLs4zX0Y+QqwXTlyzqUviEqLGiWsudUlcQjQ4cc23MxRCVEhdQiyF1CXEUkhdQiyF1CXEUkhdQiyF1CXEUkhdQiyF1CXEUry4uqrHO/ScqXhzOHG9nLr07JR4uzhxzaEu72MZW/aL1fu+56/7CQsXarPghzss1dc5DZS3/9GTmHFD8hTTU7l7rUphOskcyf66dH1kZR7MUAOGSmnPqvvFAgaMA2Scy/v4Ej9tVX+1RF3NQOcfR/1FaWBIA9WnpVwX+adXtP5EletDXWAWb+2v3HQphstoLc3LS+KaFTPSgKEiKmlFPg/PhNRk+Z8N9MOgqjzhDaU0Ng//7QZ0p7NUVHW0C/t5qkyz+Gtp5cxGM7uhLi5N4poLM9CAoRK4nYv7Z39ieyoj6sp7QymmIXiqaTna5kCGePcS5tcMqtyXTLqQn1NMxIwzYGg8nKrkjIyaypWp6/d9fSBcjboW8tghlbsOtvOkRnRRUzcSM8yAofGEc+cxZiqjnt7TAo75Sfp+w8EwRV2ubK4we7+Mxw6pPDr88TlxsWUjIaKYUQYMjSY+T20SOVy05xgRT2fxpAcxPc4Qp56groTua707y7gDnYmRlSdMjE3KhIEQCcyIAoZGk9BOm+isuXJ+MfpCc2dogiZmTv/0KHYqVzAsGejdu4qYxMjKOaCR4Qu6XTwOIo0ZUsDQaPrVFc2RmEo6bMPSb3eBMq/iV7X1lGt+HSWX0d/bDtnPgv7Ks5Pj9btsGEQeM6aAofG4WcksLrEMqal8iSkuadOVGbik0seTmcPlaFC1jlzlsZFv0en4S4z8BmAGFTA0nuzrI4ilJ6eyYI4D32wzxE9Ht8kVY7gG+oZoEunKXccyZrZ6XjDwYgBmVAFDBXB647MYTbRTGc1fMsmrvTMcLS3gWljId1OVD5G0K4u+lIy7GIAZVsBQEZxgTFPniHRfPznUmTY37XH3fIlZTrZZ+x7DJqZHWuhb8OAX3Xx6r0ZVHhofg7n0Ow5LYYYXMFRINcmW1oNtwL8ydlkTU7k6dTUrnrO1vqesl7vAcZ1xwHawS5WpyeNqq8ahzjCF4ZXT9n7B1FVKXIvAwWVoArFH5MP7vqy4VqeuzstBh9o0bpcaUxtPDGlyLfoLDgMrZ++GjGM1EBLXItixnUNdg3CTuQL5CLEGOHGtSF0Sl9gonLhWoy6JS2wWTlyr2hkKsUlIXUIshdQlxFJIXUIshdQlxFJIXUIshdQlxFJIXUIshdQlxFJIXUIshdQlxFJMV9fKPjayQnp+DKFD9SEOPUApfJxjSF0txv3SQi0uyUv40DEYKuHtqWvMjyHwuf/hv/UgNgjjFIChEt7iztCD8or0keK63oRREKMxPgEYKiHwK+tx5oXenl5s9ebowtWg+Y5Lc5zxVwP7FZhVuv1keztH1MtX4Neu3cjaVYurMkOfoBctjEsAhkpIqIsHFnt2sX8hz9mZc0ETSQ213dE/8IQ52FirtR5tQd9JBn7nbaXpiHA6jSclKDYW4x6AoRLi6nJxlafVUW3vcwU7EfEDT0c7HX31aKvVboScEGpVuvKRVRbY1ptaJC/hYXxnZ2fn8fGREaNJqKvrZTGdMDKtjUSOSpXXfdoqh+Y2eLK3eOKKd1xsMsZ19vb27u7uGDGahLpikvAcL+6NOHo1+znr5IF+XJOWJbTVIfljCJEeUZSL2yReA09PT9vb21sfPnz48eMH40Yzo7rum1uQNqG3Jhx+MSibtv2u2zwi1jizJC/x+/fDw8Pu7u7WycnJ+fk540Yzm7pcRQg3e7BoVZWvO7Ke3Mnp41mThRXVjWUr7jFKbAY3NzcHBwdbny2MG81c6uqGHLGqmnyu5axI5rgzNFD5lSUxWx0uRfISvy8vL4+OjrYuLi6Oj48ZN5rl1MUvm+5U1fXeAfoaCxro/TGE0NSGroFic/n69evp6ekWDl04ejFuNHOpq/Zhd5ZpPUTbVBW67vz6oqRRqV3h6pNg82MInt0+C0hevEI+ffr05cuXraenp52dnefnZ0aPYzZ1gfa1hl1CbLGqKq5l3Zprwc3nzD0/htAjLslLWPb3929vb81byTh+4RDmYoUQE3l8fMSKhT+Mus7Pz09OTmy8EGIqtaCMutzdvI0XQkyl3gzyIUO3TXR/CyGKcU9puL+prmnvegkhSPstLqoL5zBsDktvDoUQpP3gLtUF3A09A0KI8bhHNBhoqwsLF5avCZ9GEWKjCRXUqAu4xzcYEEKMIZRPR11avoQoI6qdjrqAt3EUQgwBqxbWLgYqfHUBXW8IMYrUmhRRFzg8PLy6umJACJHm9vb24OAg+m5WXF3Iur+/P+H7NoTYCHDQ2tvbS11VxNUFHh4eIDDdcAiRAosQVq3MI4RJdQGsXdO+MUqINwsWHkgr/41POXUBrGCoQmcwIdq4haf3wfcedYGnp6fDw8PwtlGIzeTy8nLgoalfXY7T09Pj42MojWEhNg8ctCCEo6Oj6A1hyFB1gYuLi93d3S9fvgysWoi3xPn5Ofx/1CZuhLoA1q5Pnz6hjQlfMCrEK+Pq6go+f3JyMvYKfZy6HGgDLaE9rGbaK4q3CvZoOGLt7e0dHh4+PDwwdgwl6nKgPZzEtre3Dw4OsJSVNS/EuoEFA8sGFPXu3Tscsaa8I1Wurpqbmxu3lEHlnz9/xsYUMUDvRIv1BwuUc1coCt6LpQILBpaNWd6FmkFdNVA57Ds9PYWJYGdnx3xxphBrDBYo565QFLwXMqM3T+f37/8HhLTJHviwhaoAAAAASUVORK5CYII=;strokeWidth=1;" parent="1" vertex="1">
          <mxGeometry x="305" y="80" width="132.47" height="90" as="geometry" />
        </mxCell>
        <mxCell id="hwo8MQYsUWOJR3LI0rIK-14" value="" style="edgeStyle=orthogonalEdgeStyle;rounded=0;orthogonalLoop=1;jettySize=auto;html=1;endArrow=block;endFill=1;strokeWidth=3;fillColor=#fa6800;strokeColor=#C73500;" parent="1" edge="1">
          <mxGeometry relative="1" as="geometry">
            <mxPoint x="245.76" y="124.8" as="sourcePoint" />
            <mxPoint x="305" y="124.8" as="targetPoint" />
            <Array as="points">
              <mxPoint x="285" y="124.8" />
              <mxPoint x="285" y="124.8" />
            </Array>
          </mxGeometry>
        </mxCell>
        <mxCell id="bPrpcWnKjRn9Oe089At2-12" value="" style="shape=image;verticalLabelPosition=bottom;labelBackgroundColor=default;verticalAlign=top;aspect=fixed;imageAspect=0;image=data:image/png,iVBORw0KGgoAAAANSUhEUgAAAMwAAACSCAYAAAF+oRXjAAAAAXNSR0IArs4c6QAAAARnQU1BAACxjwv8YQUAAAAJcEhZcwAAFxEAABcRAcom8z8AAGPGSURBVHhe7V0HYBVFE44gvUiv0kLvvTcBBemIBQRBBQQUFUSkKxZEUHpHsYFSBQXBgohIESlSpCO995CEJKR+/3yzuy8vIUFA/EV5X3J3W2Z3Z3dmdvf27u35wWLlypUoVKjQLT06dOiAmJgYREdHw4+O/wf+fwU1aNDAOPz89Pjkk0/UTyRJkgTffvstoqKitAn+CvyqV69uHFLIrl27sGXLFvUT06ZNQ+nSpfHRRx/ZkJuHp6B27drp1dWQ+Oyzz/Rap06dW1ejvxtxmq5UuWpGFcWdLlVavUIqUqdhKyDShMdcOYiAqBh182jd7nn4l6sZ63+mv14P71mHGeOHSPJok78raP7yNahVt5kER+HXg6c17I3xH7McBclrN38KMaG/I1zckYxgoCWIQSTyFy6Fdr1HiScSJ/esxtczJnriPQXFaCI5xUg20VGaiZyVjsGRJCIoK6mRJyI6Qq5CGROh5UYzIirc0NPJq8BTkLQMgqQMLZBkmpfNUE4aTDcz1ToRGhkPCYV5FXSKLIQcFroYBAVd0gKnz/0O0aptYUpz6NBB9O3xHAqmTiq+hDNMDJ6CTKXNQTCbSCkkQvO7YkPkLFWPES7Il6G8PngVJG2tSW2GvKrTXS3U61reO+LaiG06SXtv4fLiYiYhyvW5s6eMnCW/M8ePYO66LahdzTFG1q6/Tn41atSwzhuBq9H1w2/fvn3WeSO4UQlJQezD/u6hQnsb68brr79uXbcOgYGBemVFPAU1a9YsweH4rxxHjhzRvP04oP3d8NTk7wIr4VGATZs24ccff0Tv3r1ttHQ706cjadKk2tX/FXhSMyMVUrwMu3fvfusKcQgNDdUrC2zVqpWqYXBwsIbdLP4ai9cJTyHJ7smLlg0q26aJwtwfV6F2g9biliZM7i+2HgP/IqWQPAWHgQis2rRdaf3uSo7QgGOoUsrfpo3A9+v24pIobbR2xraQaDH8S3Lq8FBN8THinJwj4Zcss7jD8P36TXLlYExEIEnqQujzRGsUrNcep8NjULne06ZnlX+/1AXQv9NjQhc7dJhCxOPGGBZIeg1Vh71GR5pwIaCfdOw3eSXHyoAM71ESR7qYSKGPMnlqITGgsA2fOoYwA/GyaIXMMKJ1aDZUJn9SuqH62tBCgGAULFQF5cqURriMLSFh4Rg4doZwFI2nXhkvQ/U5dTP35/q8hmb1KkkaKe46O2VTE5mZkKc4HUy0hMjsRIdrzmIYJH9RMjVSuUVxNqPBfwrbXE4isVC/JxPr4EUOT5wn/tqwzRWKTQdPoHfnNhj1aifkK10dF88e1SbKmzmd1DAEoSLNRl1eQeCRNZri4SdfkDKoQX+ORO5xrpPF68RN3khdp8Qt/NjT/p1gJVQmZ8+e1YBbjfbt28cWQly6dEmv7HVvrgn/vyCPPA4dOmRDrBZfvHjxX1GBa6FPnz7wGzhwYJyKUDKEC7vW2HjhwgUP3blz5/T6TzaK172FAYc5d1fLqUzWrFk1PD6Tzz33nF4rVaqEcuXKYcOGDciUKdPtWRkeS5cu9YTFR86cOREpIyEXJVx8QnT/T1xVmYQ6APrJqDs6d+6sYQnR/ZO4qjKx8GLMi8k4rji80yMNoU6vCDrlcCHWa5BQoCcyHiTcjOiJE8atjEymPvvpN01S+77GMgOsI276ImTMPiXX86QSuhi8PmE6Xu0u0052GJLvvf5lsHrrbjvbikaNVs9j96+z5I57t4b0GDZTZpA5NLcXWjfUNIXqdxRfhEygDHIWuV/jOcspVKiEnGPQpvcY+CXNoPSvtG+Jk/tWIf3dSbFo8gDYuZ4HcSrDBp25bK24IlGyYm10al4WSZKmk3yisemP4xIeiHLlS2P+hp0YMHwSAg+tYyo5opE8ZWq06dQdHTv1UobK1bertWF7xGfsKfTcLrkPSoGfft2qybJUbS2XSPgXKo7arTvht1ULJT65xmXK6q/XVt3eQMTF35FUKrBkzRYc27VcGVX7lBsvneFaxJWMRrCldfoqxbCNGGimwUZKdt7HmtuMOKWj0xwyPRY6E8bZMOe6DPFuxkilYqi5JTDU/DcnpqHTpOWilklNGo0xoNPLG6cy4biME1J+1JV9Ut5JCYlBQDgZY1bGHlh40IVdGL/wB8nXTHs/GP8q6hbJJ65orNkns2pWWApl/PbNO6QVU+KVZ9oqbc9mDTT8/UXr4/B1KxCvA4jAGeF712Gxj9Cj4pdZufhZlcCgIFyJIJNXsHPvPrwz7gMUzFdY/GZpQgSObDmKiJ/SMItplMCGjRtUJR6oUADLlswRqijp1sUeuD7p3ay3AFerGTmXqxYjTJm2j4XeYsiVh7dqkHmjHBqgsFGew9GbKxuGBLcO8SQTpot/WgZ7KcK7QK2oMCGtauwhBt9/uwAfjepjyY0FcBn6ucbe+VrYvHSMknuxW1yX+JIJxVlh6tDZAFSr3Rj9X3wCBVMnwcN1y+DoxkUoW7yk6nnAheM4f/6CSmL1dx/iUuAlCb+Mswd/R0hw7DT/lfYtUKNuY0Se3SW+EA3bLLdlUxd+q/fTt7o2fs8//7x1/v2g8Gw/9bfg/ziZYiVoJ7e+MlTbrVu3xlamV69eGkj803Os64H3HPL777/Xq1aGgW4ttl+/flct2N5uR/ny5TF8+HDl1xtaGdZy0KBBWinvit2OIH/eUnnhhRc8bq3MjBlcF7v9VSsx8DkF+ffbvn17nJr+m+H3yy+/WOe/FzSLF1988equmVLyBhcq4kuN/vPn7b2NxT+9wrNt27a4lWEAX5vg6xOqgzJBPHbsGI4e5aQzFl26dMHhw4fNPYWgXr16mDRpEvbv36/+fwpXVYaMs0KOWUomvrRcJbyv+fLxFuCfxVWVIWM8XAXuueceDB06VN0OCVWGB1dr/klcVRmqVXxJlC1b1roMvCtx4sQJfPfdd+p/55139PpPIU5lTp8+jZAQPvM3hsyFvoceeihBw77vvvs8kuDSE+n+acSpjGPaXdnlObdTJScVhntX0tv9TyFOZf7tiFeZxFpXwj1R3m5nW95hBur1Cnb+2Evs2QYL4rpifXRLWd4BCSBOZb54f6hVI/Na0anAUMyYPCaOit3ldxe2rV2qbpN3DHatW4JZc/ianykwMnA7UiTz08U90t1boKAERqJhneqannD5dWpVCSmSp9SwHFky4pFuz3nigs+Y9bVG9WshmfiZP8P56tPiFXL3Gq9ycSqzYNqreo2JMKP7cX1bCxgxqLumy1K4ooZv/+VLOYdj0aa9co1G2PnNKF4gr8ZxXSY8aLO6H+39Hso2fBI718wV3xFWVRCBLzbvQWSoeT3nyZa19Bp+boNZ0VEi80T59IEf5HzWBMlt+fz1O9Fn+BhdTJm39jgZZQRjFfEqMwDRfKhrK3NCKkPS4YPk1jomElkLmvWCHavnITjwjLpZkF+SNKgulUmfPp2GRQb+aievUah2f0ekSEJpHLHFhmDVgdOIvrxd3DF4umVtDT204wvNS1du7KPYMwe/lvNRDYnBZfy05wS69R+GZDJDWbT2hNJIIeYqiFOZmeP7GEfERb34pUiOfm9Ow2svd0FUjBFxyeJFsHPl55pJ4erttTX7PdUGadLmRA07HoVf+lWvfAJeqEZLcfFtBSBd2lSiUhmk3aOkMr9pS3RpXhkVbLqkwmTuIpXFZVZ5Tuzn+BWFe9KmRfJkWbWsdr34WlIYlqynpFmR2IE6TmXMwq1EyiWGLSuFaavQIS7TBhHqV1KRlgmLklRc96U07CF/1G26SMvH+QzXhV65UlWio+2yLzOJ1MUrFsYQphIyNXuhYW5mXTlG85HSog2f3ohbGRLLhRkYN1c0bYhcWBh9lkLO0oJKRy0368KGF8MMY8xqjEmvB92MkszUqwm4DmeCTZWY3iK2ULma1/O00gK6vRG3MoTU+NsFs9RJRiJMCe4kMCqgi4HGof+6yK5rz9oEArYcaSRSSzcSUg+fRdCt/luHOJXp81gnLahR28Fo2fk1FMtbUMrzKpGtKP+tG9UyoXz/VfDrgRPS5wCfjHtZOhBWy6SKjOLCn0m/Uns+6TyCw/DbTx9Lo5Eqftv+NcSpTL+HuSB4Wd2ZMuVBg+YdlJXLQZcQGMAF8iuIPL8HO9fNFRswdbt40Ewy61RviDJ1OyqDh/fvVVugZMpXLKXxHbu/iOEffI28GbIiS/4aIr1bWxEirmQe6YYZU0ZJMZFo+vTryhiXUS8HnEVwUJBqx4kD+7F4zhREiIcVzZJXxh4x6Ilv9zfsUbWsBPfs34eAi+eV7uCZc3h73GdYtWQ6Ljg1u8WIUxky07KJdKV0aHnxShSvYVh9Aj7IEKj/aqWJkR6KFiR1lav0Quy9hNYYsLO5W4c4lTEdZaQypb2KZTIOyJmxZAMrBcNcPFrxmxAXzpwpUa2iuOPT/zXEqQzzNq1rmLhKMgq2q1Gl2FhxsZLxYOppqSTe+O0zH3XfWsSpzCuPdbEuC5Yu4GAYHWmUgzehyqB0w+4eZsBwvhYVibpVH/QwmOpeMXwObAIVprocnIpd3QB/BXEq0++RLvh4Mm99TY92MVzU4Uo4NgWGIXeuwhrGLvX02XM4dzFIPKxglL6gyFoEnDmBZElT4sTWxeK/IIGXdJb1eJ+3ULJkJeS4JzMiL+3WVGyHW1uVeJXp3aYrpk0eKy7TcuyMw8LCsCswHCPen6+hNJfzF87jbDDHkAg89WJvnAsKRusWT2DDjj1amey5SjI5DgSaAXbQmI9QolRl5EiRAl/O4o9yOHNwMrx1iGszieBWFEsp5MqROSHTumW4rsrcEtDG+GffJb3VOH78OPwCAgKs9+8F7cQI5e+pDB/J+A0ZMsR6/16wCjxMn3jrwWUvP7f2dTssFd0s5s+fr9c4NuPWwv4tFeOt+Y4dOzz8amWcp2/fvvj999/VfbuDz5UmT56svLvl5Kt6M1cxGlRCD0F9uDXYvXu3Ln9v3LhR/RSIWQTy0jKCAfxJ04IFC2xIXBNyCXy4eXi3Yfx29f6tFcM8guH72gQDnTn58P8D25xPiTdv3hwrGPfquA//HJz18BaFA6ffTz/95OnffPjn4N1T8WG431NPPaWehMAByj3z4ZFCbhLXr19vY4H7778/Tjx/fZIYWDCRJUsWDz1/2EGQIe7o4Z1XxYrmMZBLdyeBv/DxvGqaUAO41xvciyau8fbu3YuRI0eq+0ZAeu/fzNPfqFEjj9vdVfHBPf3eSnCnId4LzXHhBMMpHV9I4zsn9DuwUenn0bIlH41dW8NJ571RC/2lSpkVdcLf3/xymAdxJ3ev1yUYbkYTEWHWvtjwrvG9hXDXXXehaNGi1pcwmBf3lnGgn/vP8A0Qut0GN3ofL/63335b/XcirikYfd9ZGoi/53QCccLo0aOHxhUoUECFQvef7QywcOFCpeMraS6Nw913361hfHEqY8aMGvd3/dD234BEBeMtBHYp3n7C203E9yeE+DSuq0qsy4pf5p2Ea1qMaxTXcAk1Uvwwzsz4+mz84/Jl82zEIbFGjx+eEM2dgGsKxod/DokKxmzHFa+LcZZjg40uJ7yUH6lvm8Qiwc7Kvv7CPDSvmEjs27kOy5b9oG/s0VI1F2VFKGPMr7s84OOdSPNiiAMfXyvvyqThkAhnkH335c/Ad44i9SG6SR+bS3yYGOXTto3DFcYp82bSpE+BvR7M25pJj6BndXvjmoJZOGUQvtqww4ZIWMRF1KzXRN1PtqqNk0Fh9nmnKWT00H7Yc9Z1WQHIUtDcQDrsXLMQQ6d9ru7n2zTG7LWSt9aHucTg9e6tsXTLQXHLLC15DkYIH1Hik8YWd0TQJtR69BUN//X7KXi412i56dmOik35q2hg3aJJ6Dhwmrii0KxaUazdYvaZQlSoTiYMl8RhFG30tHUDHR6qjYB4bZNe6A9dNHX5ec0qvRKFCsdO70/vX442L48SVxQ61CqLFRvJuyA63FPe0b1r0b5ZY3TsxXddZAI0ZQAW/XJK4qTOiQiFSLwrE/rFH72OstXq4/G2bTFw3HRR8LOofZ8RTIeH6uJoELUhzOkEhg/ujt8O8v1CsnQOd/klQ6o0qeGXNpdS7P7lS+TMnQ9VylVA8dpNlFHzggYfN0di1bezkTplSvR6Y5LSl8mVxTy1V96jERm4CWnTF0C7Jx5CqmTJcEEsJiZ0F1Kny4qqFcsjZapcog6C8N3IUPQ+uiQZxRqBj994FjNXblQNjbm8EwXu72ziJe65x+5HipT3IEWKVJjxzY/Yt2EmGnUbYgySJCxfLTAc/oXMo3OGnTm4FG1fHifV/QNpCpnbgKjoUEkXhVnD+2PmsjU4sfcXPDPoHaz96iM8M2AsFk0bioXruK0OqVlvXvUUB4kKhgkXTOuHz1ZuskzJJeICatRrqu4nW9RCQKh3huEYMfBF/HLojBTD6pxGZv8qJspix5ov0H/8x+KKwOP1K2PrBZleS0H84zZKSZJnUjoKNm/mVOj48hj1cfNB9gIRFzejWuteGqY2FBWN6LBtKNfELCstmfE2xs//WVyRKJgpNY579Xx+fnd7GjkqZBcKNXhCPKZeHVrXxdkw41YCofSeyh87eRyBV/g6RoRureVw6tBStOtNHmNQMEtK7PU82w5XpaR6ntr7M57u/45QROLbGeNQvZQ/Fq4R5ZV7NyqlFqeUcZG4YCzTBDPQpHbc8I7zwCsoOiZU2tvsgObAlMqDXoU4xrz3TaFoz699tDadwtEqRHjR+tqNKZ/dm757yiT6KrOAUdFGEtQjtUIvaErp0sw7xaYcHUe8+n0P+IqcV30IbUaGCyLlakZFw08klSteNlpf/SG9GdfUb+m15prAhVyNawjGarIyyAIkCy3cZGga1774K4Wwz3RplEJO2jTSlWgWbC1pSaYzzJAqNr2nHdg9MSUDGClpTBzferOTBIHJQyot+caWqwkMvTg99JqXi2U9VFctjZyocDYf5mu4cTxdMTQ2U6YzafVMh20auZp/yxvTM9TSqVJbN+tHp6X3BHvhGmOMcKIJZAzhlRrqcjNzDnXSRJURaq76GcPZFq8MYOPIVbIzwzjDXaxcVagENYu1Z7mGnhQqOo9wGGeFKWWYq0Az8/iESnIUfjXY0mmsnFyZhtqWpTyYEEskMDw6L19SVRq1MKoh8yGBWJFcTR1sUitkUwW6GEprY4j46JVDFVcTmNp5I1HBREmy4b1ex3lNaFA0B3cZjEGxosVRrFhRfL9mm/DAAm2hthBtanXbBtByI9GiQW0sXPGLi9JTYf+8KF7QH0WLlMCseXNRrkY9RqgyRIScw+A3Rygd05vND8z7olF821bw3uB+KFakEFZs3SNUmil6du2B4sWL4ejpQyhXoa6GmZYLw6PtO5mGEb+15dsSiVuMaHC/RzrjuOV93vCeWHvsjExPj6B5F/OjiAerVcZJvUGg7GMw8q1X8faw4Rg6bAR+2bxTQkTHrHrULlMKO39fhcnzvtV25k8G+JoZZz5s9Bxp02uzLvrgDcxfw9+pRqJBsSLaH+vuL6KFOiTQL90j/ZHUOTpjglCwUBmJAcrfm0OiohEugqO6HNo4BwMm8VcqQOdGdWB+anL74xqCCUOfR5/GWWpadBBK1WttrDj0NNo9YzfRpZ97Q0br7SC6deqATp27onPnLliwbJVoPQlCULt0RXy+aAHGvt0LHbr1Q4gVtlH6aDQpVwxHOEthg0umOdOkwM71P2L2qs2Wxghi5Mh38e6779InkAiO/ixC0LheXe0aiohVmwE+Ck1qt9ToOqUKIPD8CfQezV8b0K5sx2XT3o5IVDDR0mUs/GSm9vwl82e3jSGIOIdps77W7kD00vSTbKAEoL20dj8UTwxO7PsVq7byF27ReKF3PzYtDu3ahLXbdkp5bDAzl4oJPoner76rOXjKjQ9t1HDM/mwqund/BucDZJBWzQnCc893xfgPZijvugIRE4geL76i5akiSVmGY83ktkTigpHGNmzbKrAy2sjSWIyQ7kvjGcRrQpCkZsCX5hY381QBaD4Sz4soAH/UQE02MPN7puKUOLHc+Vs342AepJexh2GcBcqVsZzGmkIkNwk31kduJJFNfrsi8a5M6qMGbxvR3DSq056vp2bxaUweJtTkxKu6XENfN2hLyphNz5NFvDBbgoBleBPevrjmGDOm39sI0PpTy+UqWqdy0vqZwdhpoxNbJCMlnCQaJhYRoYRiNVbIKgK6ZUZ3Jfg0alSogvtbdtBwkprZUgxqlSuLMmXKonQV814Adf33NV+hUy/ze17mrZYlaUxZMrqIR2dvtnvlOYI2ImESank3YlXHbYpEBROjg38X3bF76ruvo03DVsifMyeGjZyM/IVyIpdMcVmtd3p3QwX//MiYtZCme6ZJfazcdwTfzZ2Oj75ZKe3EbiMGn34wDRMmTsSEcZMxa4n9mIS2nZzkf8/qr9F36Ifa0GamFg7/7CUwZcJUevQ2DzKnylWgLCaNHo6NR7gH7BXUrVED9UuWwF1J02PUhPEoWDQPWjzZQ9OUy5cNeQqXgp9fcuw5e0Fylu5Xy5QCbl+ZKK5hMSF4+bFOuCgVmDpuNE6f5TbHMahSx6yVDXyxI85diUKbxnXxQt9BaFmvGrYHcXYWibrFcuLFIfwFuDSyNAR1dcSQ3uj5ch+83PtljJsyQ5tZDUkad/hrPTDrqxVmrFHdZwoZaaLClG7MS22x+3Ionm7TEJmyFEKBHOnhl9T88LvyfWZLiytndmDAuE/FFYGSpfgbaKBg3vx6jQk/jfoNuZ28uEUyWozef92+0rmGxYRj5uTpCJeW+X75d7h0iQuOUXj1neHabLNnTMfF0DAc3b0dbdu0xfKlC3AyIhLP9zTv4F48tR8T5nFrAFVRTcst19mFRGm/oydMGTkYTzzRAW3bt0O3F/sLXTjeGjBCm+zd9waibdvHcS48CldCz2Pq57M0O3475uzJLZj15RK8IfdNLCH80nnM+2GF8jag/0DNu5R/LowaOwl9XjMvdZgvsQi1XE3ppkO7HeHXvHlzdZgbwf8IWBUxx5CwAJ0ym9ndvwt+fHHvvwVjEdZlEeu6XeFtGMuXLzcvlc+aNes/ZDFuwZOzQLnImHL7dlix0PtGK4P+/fubTz7wlVS+XO5AIh/+v+BLj8RLL72kV8/HiggX+N+xnn8PDh48qG+8OsuJfX7qBZqStwU5QTkh+o6bP1w7OvDbHnwv3MHFJSgYh5MnT2LUqFHo1KmT/iwioQ1rfcf1H40bN9ZNiN0Oxd6gQLyHkAQFc+DAAXTr1g2//fabDfHhVoMK7/27S13g9ZoAXCUYdmP8wRLBAYmETpoukQ83BteG8Q+Cv2jg/hH0J2oxFIo3vDPw4a/BtWVC7ckfhO3ZsydOnAqGAWPHch8Z31T5nwI/FcUfxhKUgU6X+VO+f3o/aB/i9lhqMfwGA0FJ+SzmnwN/Scdujcbix4GHv19JqO/z4f8D77b33Plzw38f/nk44fDnlVeuXIHfq6/ax7Q+/GOgUNxBLFmyBH4///xzHFOKD/Z73vHO7a78ASsXQYlr5eOdzv3olW7vMY0/rvWOu1Z+/2Xwy1h+/AhGYo2QLFky/TmCO7wfqv3xxx9x4vgVg2uBafiynnca/lzdlVukSJE4cTt37tTwOxH8AkSCSzIOmTNnRoYMGXRDtmeffVYbjFeCn2nhp1g5eeDNUZ48eTQ8MejcXNJz3Y1p0qZNq5/ZJ7itnRMG+1dujcK1pTsV3D3Ec4OZEPjxXvexX4INljt3bnWzIfnlf8Klv9ZUW/tNSeNo3n//fY+f03W6HWh92bNnt747D3wP45oWQ8FwUx4Hdm25cpmf7blNEtyKAZGYYCi4t956K07jf/PNN+o/deqU7tNFN7/ovGrVKnVzBfZagv4vw2MxiYGC4XHmzBmzVZM0GFdFCa4W0O8O780pE0LJkiWVzmH16tXq50o2wX0hXV7s7u5kXJdgXGPxaN3avZsVO1nQD5/Z+GvBWzBM6wTD7R4580uePLnuK6MzEgl/5RXz6+Q7EddtMd4fjmOj8nEAuxknHDfb4reoEsP48ePjCM/tK0NwFkLBODRt2jQO7Z2G6xKMG2O8rYSCWbuWHwQ3cIP3tcYEN3a4x6gNGzbUjX0IbuzD2Z9D165dfYKx7gRBwXCQJ5yFOOGw4TgR4E5KdDdr1kzDrwW3wxK3z2Iat+3V9OnT1c+dnLh/Gd38CuKdimsKhgLgPct7772n/vjWwHuXFi1a6LjgNodzQksMjGe3xenw7NmzPWHEjz/+qM/EuZ3jmDHm9/13KhIVTPwG9h5PHLwFxbj48fGREI13WELpEwq7E/CnFuN9JAQX5wTHV3HYDSV0eMPl552vy8v7iG+ldwr+dIzxBhsqIXiHc3vG+PuU8eCsLrH0hBPEtWjuJNyQYHz4/8EnmNsUfyIYr8E9zimBfl/jbLjtjexFrvECCLo9/lhKc2GKWGJ1ycmFxcYInEfj43g9YQpvtyI24CoaFxDHExfeoVdRSICMjuKQw0bqJfZk4e2Oi0QFY37nY35z5eDEwbgY/ghVwJ/N6Y9hrwPxfzukPyYSIZgfSUiz6+YL0fhh2fdYv3W3LY8/Exc6ieKeAt7QHWX40zIv6J4DkqfypDsfxcLtQBMf+hP0eDBbo3j9eEN5SxjciYlZe//YQ1uOEyLvyYv+KsTwxCJZM02obMXl7RoWYwiTeM2qDpwNQetaJXAgOEwKOYR8ZRsqDeE9++KRKX9lTB7Ku/ckSJksFVJmMrv15Ujmh6SpzKr0N6s3m6ook6YC2VP44fPZM1GzTCEs234MUREiDI0nItC0RhkkSXa3ph/9gdkpsHXDivBLlkLD3p7I3f0EUaFYMvcjDePRtPmjmkev9q09Ye7gD255TZkyBe5KkgRbj3FZKQqv9XtBw5MI/z/vi7uVPo9PPl+A3NnMzTc3dVg692NP3ANN2nrEVDRTMjz94mD7+1LTVoQKlFRxZaL4U8EUyha75E90a1wGe0KkscJ3o0T9DjbUaWYI0uSPvVsf/0YHrP8j7tpZ6ayprOsykiZ1SzAsywgmW6q06ps+8nl8vHSjRwvNORLN6lT0lJZGBEw83qSS/XYfkNTvLqUNCdiJ9JliN+f+dGRftOvJnTYM2rY2uwsqpC7l6j9pPaxNFDYu/QR1mrkdACMxcqL55XTAsU3oOmScuomyxYuoHYcH7EH6dPlMoODzca/i0efMqsYDxXMgSZJs5ouBgruTcKMkVycPF3Hwp4LJ6/WQjOgqgjlwWbqxiD0ocR93yBNKT1dwFCkKxO7bP/7Np7DxUOziJ1E8W2rLUBjSp7lHXbEbiEahYaVCeHfYuyhWxXxWmjD0RhxN7yuPANvDZsxg0rdpXAXnQg0PaexHwscNfQmzV/MxBLtahgQgbYqMNpdItGzZAkERkbjCuLAdKN3IKRkRimolSuIQ2WK8YUC7p5M7l6DtALcqEYEyRYtq0056tzdm/UBFEuhv4QOROkl6+lCtQFr8sGolOvamoGKQ/C6jUGZnD9d2pr0dEheMpctxd1K07dgZrR99AvxaZLcmpXHwsnAcuQsl6nKDUOmEpD82vB9D6nxV1cVqfDjiWSRJeg9SpE6N50dO0dCK2ZOhUtX6yHJPevx0+IyyZfpdukJRpXgBMXVjVVFn/0D5lmYTUtM6MXjsgcp4uO0TqFyhGJ5+/jWNeeLhmihfuTKK+vtj7OxvyRGeal0Hu0/wd/3CK8cLCcuf/h7bDFF4tHkzXOQHmDl2hO2XMpMhbapUSJbFXylyZ8ul6mL448k0yLE936Fd/1E2MAxli5rH313b18XmI2clAbfsMppTIK35uXuV/KZncF1YMisYncxIviZnc3b4k8EfKJg1o959R8rB4f4ZsZiDl6UhI3eiZJ32SqNjuLqOIWU+25XJwDnmra5YG68rK5UtldI+8mA1/LDxkGkom37G0G5YtPoQTuz8BamyF8WK1d9j9IyFEkcq00St7iuOgDDuW+bKBB59sCICJezTqe+h18DREhKD4YOfxUoZo/hrTC1Dutkc6e+1ChQpgmmICyIYVakwsf76j2uMQQTyZc2GAE3InXCkoVmeHEf3fI92A1gGcUUEU0Bd4956EUt/26+NEaNbhAUjY2rzaLxavrTiA77/9G28OfoTJE1iwvVm2lMPc3ZIVDCOLF/WzOp2cu3cpCz+CJGCr+xCKduVKbQSR5C8wP3q5QZAo4c+jdW7jxu/RcmsqZVJRJxAthyFTEPZrvDVzs2xeMsxde9ZMVM1jLqn9mQZailjzDkGcsakg6cIpnlFnA5hTubDDcS+jd+gat026iZmTxuKPiM+t7WIwcMtGuJipGg3N2EIP4jS9YySuS5zwmsvoPfbH6qb+GTuV5r22K5v8fgg15WFoXTxgsrjwc0rUaFGG9spR+HLT0bhpbe5Kas0cr70+qFwKQjFMqREiozmY/lxBWPawOFPu7IMdyfRq9E0GTRrF8RudmVXdmojJE2eVAbxTJb8FPzusTusSsNNHtwNGXL4o1LZkihZw8zgCsqszFRdZmApk+BM8BXJ2+QeHXoMGdOkRe68JZDz3nuxeOkPSHpXElwWnqO4lZUwX7d8fumCqJVShJ3CPlinGM7SikVQPds3wcerNmt4u9a1cVey5NJ1pEbpCkZhaCPU9MYNauDiFZmIsz1kvGRdypcrjaLFS2PraW41dwU1KhaUuqVA6jSZ8eVPG1U7jmz/Fi17Ddey2Eh5cma3dQ9C14cbwe/uu2VwT4si5ep62qzkPX5287oILPh4tJRlJ1S2GzM27agNEu/KSGwrrrtfyr+TKe8rzO6osVBKs+2EWdDUESkujDaxI2F+5j6IeRrmCGMBHpjsZPCW8qLCJdZRkRmGsWKGiAZkT+p3Vuig3IpwmYdrAnLJXWTj10W50WxsXgK2hynLpNa6qLIIhL94nCul7p1md8pl00Sp2RtKnTBZwfCIj2uMMcyUB30UhauoMKZ5uqswLG7lgdEUihZqq8BAEXA09zaTK9kig6ymyd81FAnNBjwsm3sqsWK80TPx0nhapOFDRaJlSKCWwQt//SZuERjTq1aLn4OxaUgezE1ykXBtTinQ7W2m7GgC8UVFSRoGhCst/Soa8qaFEKaRzZkdm4Dji6QhRbSk4YxQ9VV5MW+0mjaTQOXZHPFxjTFGWVSXZmjdGqr/prmULfFzN8BYrbJnZcLQs+LaKOJXi1MKuixIRo/SU4PZOLyYiFh6FamhV7/Jk/RsIFNpjbZxhtYEMjU5MTzz0KRUMmqEjTW1EJdEmnJFYXiRIMbTqQ5lkJAQWxTDGap1N176zKEWTbA96TfhPMfHNccYk8Am1JNhnCdWWvf3oyXwqt2XaJecTcXIoLKofsMEtYlxdJurutWrTaEg26bbsvGSj+ahBEaYZoptc6AwPD5qpWZnoLwyni1HbZcwa+0M1VKUli7S8F9P1m3ojDAZI+VruKPlIWexDhcQmydVxZRLr6VwZIbGuuPjGoJx5FyhkqJYhmTNzNnAyqySmIbSs7F5cbHC0nnQq5poNU7iNBvmZ/7lcG76WHleBUwgToqEMOUxE5ODCZE4zZcnxpuL8qhdiqM2Z0ZTKOqTq/rpk2x0R1sN58k1oWlQQ0eLpMvQy62pXnlSGjkZOlN7eoxCMIhqRpfJwTWtJlc66/BC4oJR7TZi0Hm58hqMURO4H1gsdAyQOE/VNX/xaenefmHNTiZM3q5KAr0omzYJaSWNZmq1XNLwqjloVycQGh3PrPi0SJ0Q2F8eeE6Sn9Bx6GCm5h5IBEPHDcOluUbaq6KuI008JCqYCFZYavpww3Y6cHIleOvqxZi+dBVebNMUxUuWQ4P7m5qG0hY09CxbuxMNp9toHYV86dQfKGKXMFz8iCEvoUhBf5QoWADFipbB7C8+wu/7Dtt8o/Bwq9YUo2RN5XC7nxv74obYQSePo2KxQqjb/FGr8zE4efgYihUqgiatH8eW9Ysx6+sVSs/V5gH9++Ci3IySZZ0g3Ka4hmBYyVBUKVhPGwYxl/FoixYqpLqFzVv9Z49tRd1GT2iDmMbX6gucLWhPbDRZqJrXr4dSxfOxExCftIyqsGucKGQuUAsRwUfxyDN9bY4Xkdt++kOntJ4uQUNU/KsXz1Xfdx++jQnL+JXvAKTL4vVlwZiLqFL9AVtKCO7NU0JdMWLmrmO+HXGNroyQmyz/+2zHEI0C+Yqpq6ZdhhDRoEat1qappNE2/7oCw4a+jXeGv4PX3p6gFBQWZygXTh/CqEmzUSZvejOtlIbmNJVCY2OvWfwJxs1ZrElSpjK/Jgg4vBVDpnwmLpYgVqK04tMCOVawYWmtURjQoyM2/HEC+1bOx4zFPyD8SqhRKEGWdGn1Gn0lAI92NTtRaD7quj1xDcGwwhGoXaCxLlcf2f0DJs74RioTg1YV8qFuveZId09G7D8dpBVkI4SHhyE46JIcgbgUxG0apfp2PKhaorBeK+VOqxbDbkhnwhoahSJ5zIbbnG11adYMARLZrX17BEbKsCyWxXua4IvHceTQYVxg3ppMRqOIANSuVQtpUifH4cth+HneKJQoVQFvvdVP7sJzqwCmjhiIP05cxPvvvYFdR7hwqsPzbY1EBWMaLBjVxWKIjk3rwn1FuW6h2OcObM1ofjdM7sx/WDoLXTp31u3jn+r8glaeN4sRQYdRscL9mLdgPgpkSoFl63dpQi2Dp8izqP/gw4Zewi/uWY7xs77DPamNprtteVf/sBDvvfcu1mzcrEI1J8mCl4iDKH7/k/hxzhh8tmqj0F/GS4+1wSnRr5iQY2jTYwgKZ7UPtSRWc7yNpfMngglHFf8Gco1EzhxmeZvhdYrk1zpRu9lNGQEIVUQIgi5dRHBwEC4GBqtQ+Bd55QIO7Nuv32cunD09dhw7gWWffYIla7dpLn06PYjdpzn9jFQ7RUwAUqS5F4OHvqczKM8sjOXJ2dAY++rRuxcCLwVgycyxeH7IFCE5hgr3tRaLDUSGDO4XaQFInykHHmnTWXNQoWi+JvZ2xLUFExOKd98Yh8Bja9Fv6kIJMLOiMW/0t90ObzJFLGYeehVM3SVOHCpIEdSIQT0lDfDbiiXYcvCM9HbReO3lF+xyhlnCIN2H7w7B8ctsQpaUMKJFalFhB9GtWxeMmeC+3xyGtSsWoWu3rvqtMgqRCvTd51Ow/oiE8EtQJIs93ZZIXDC8j5Axgs3yRo9uOMf+nDcsnBlRFhJuxGHO14KZ3EojRMo8SC5qSRx/os3HgfiVEzcR0L5RLJVuJdGwhCD8kBEuRAlPurJFJ+klYbTkzYVSClmfUsqVZRjbYwDrop7bEokLRirCexdzAyeQFo2Uw9SbE1WjyX9WN9OwV8xVkvB7LxROTJTkIVlrfhKqK69KyzIoJDau+BKxRkIFQzb0Qp5EmSSMN7Icl8LpZj14ly/CY++nflUVW/htikQFQ6bZ+Kyup1Xlov07K2VbROpp/QnDNQCvRsb2Ll0Pm87lIVcTTmgnKR5LkygMXyatzUBhA22+bnxy90Lk3jJ/W+KagmGltAJSN9M8rJIDK3w9FXMNw5MVq83bO6+4jXq98JrZeSW/KsxdyUuccm9f/Mng78RhGtf5PDWTq2r9NWrq0lJH2fix9BoYDyoegz+1FIGQaDMzkWZLhynD6QwVy+XqYq2DSW5bJG4xinA81bybLsOomkttVdvteKDjD/0x4XLDqD28uPWTORJn/Py0FRvALH+wr7cNoh0+CcIwd+JIlChZCj/+dlDjODmgrS5fMBMVS5dBqdLl8dO6323CUFQpXx6nZRTnWMJSGMysdGCX/FiGKoJE8MaUzy059pAD5d/yoEpym+JPurIQVPOvr3f+CcG8RqqECr1H4GyOsFd9/ZQk0jDaNDqDYqtaIcecx/crfxVHMPz87rKNyyYMw9SxIxEWYR7NGqFLmaHHUb9BVUyev1Zky/xIezXsCBUH+jFSfdRru8B/o2AMyyGorm+98MW2yiiXNw9SpM+Px9s+jMxZU+PL1RsQGXYBJe5Jh5zZc+DjBSuk3QORPr3ZoCGNX0rT0NJ4F8+ew/gxYzF+4kSMGD9ZtVdnYpxZaWGXcbdfBkvPO49IvD9uJMaNHI3fNuxSeopn4vA3EBh+Ejkyl1BLjgzdg5YPtEbJfHlQtf4jKF6+IJLe7YfTIZHY+c00tHq6O0oUK4U6jz2jOagZeSnT7Yo/6crCUEMsho2WLVtxDXnvhZb45RzXqs6hVtNnpY5GhIGXLiBbRfMW5pg3B6Nrl/bYdJg3kKZJo8Iu4czZ0zh75jTOnDmrjxV0Ksw2io7Auf1r0ahdL5WRBlM4IadxTgT69pAB6P2meUW1eB7zZmjLmmURQrmG7MZDT5mN1yr5Z1MBntn7LYbP+hlHV8zEmG/ML6tr+WfHSaGnlRtbZudqeL8dkfjgr0oVrF0Zr3lLmo/5TB3yLPbyvbKoQyhZtwMunjqIVBlygHueFaluPld18dQWfR0okB6xljDJ69TR7ejduxd69+mHl196BYF2EZP3NMAlpEpuXidVqbBLNDZlujvpTLMXLC/Xy5pv9pz5kS1NUsxY8JMI/AieHWjeJb6/orGiEzuXod/Eedj/40eYs8Hs4PRSy+o4HM5JgVEGo1BGaW5HJC4YbRE+j3lArsHIU7Klhk8d/Cz+4DtcOILidR/FxmWz8MX3a3Hq0Bb423e3sqZKgbDAk2jXaSBbQH8pER0VinPnTuDC+Qs4cS5AtNYOvTFByJr5bpy5FIzTYnX8NGLvTk/gfGQM3uj9IkLDQjH740kYMno2Fk97FesOudfHAf9idSR9AHr2NS+LN65YSleuT+z+Di+NnYOjq79EmUbtEBoSCr+UmbU8/VaajHNqqSr02xPXEIzRqCF93pIKReGV/sMkMAbLFn6K4+GsWCAGDR2ttC906Y4JI9/BK8NG4MLFU5i/iO8PR+Dlnj1iJw40QU4IpNviF5z0sbBcosKO48mOHdH28fZo27Ytjp8PwpTXh+FseAxOHd4uYY9h7NSPNItRQ1/WhjdWFI2XRXB83P3pF+Y5zjuv9RebAgJO7sH8b3/C/h9m4PNVm/VrUOeCzJINZ3wEWXCd2u0Ij2DYp18fvO8KbjeQJ2lyubDh9/z4Keb8sll609tXAIlBt8VymzD/F6DqwhOFE3kRQWL5/8bPYNWtWxd+3p/I+LfDiED7SjN9kC5T5fIvk80TTzwBvy+++MJ6/wuIlQIFoy47E7vdYVbCDaOvvfYa/Pg9k/8MZFbnEY0IREcXCbvd4S0UDi38PIwfd+4jrn8CcDvDLulTNKysuLjQebvXzLvt+fEFQj+6sGzZMk/kv1tATgi0HLpin//8WxDn43EDBgxQD58K6u9b/tXC+XeCbc6txtxuiioY4oMPPtAr4RPMPwNuYUmw/T03mPv27fNsi+gTzP8fL7/8sl7Z9uy14izJbNq0SbfZJUgQ//Dhr8MNFzwc3Pd7vBFHMGx8brfbs2dPG2LghOItJN9x84fDr7/+ih49eqg7ftxVgnGR3ECUd6D8WkZAAF+f8+FWgBuH8xaFn1o8dOiQtrezHvdZXyKOYOLDCcpbYMS3336L4cOH47nnntNdxUePHo25c+eqEDmz4OdGfPDhn0RoaKjOm7gN9Zw5czBp0iR07twZXbp00d2Lv/rqK48hxNdzHvGHG4dEDcYlJLjD+0cffYSnnnpKr94blzswc1eQg8vDd/iO/9fhDefn1X1r14HfomIn/8wzz+hu0jQwwumvy887DZGgwTgifpSKG/bOmjVLP7fjED+z+Mbi/D748P9CfH3z1k/CuV24dzwHhEWLFulimPsarIuPr8u6HuMdSfBb8YMHD8bXX3+tfgfvhD748F/EmjVrdAmG9zGEt33w0BHG2xB++OEHvPnmm7rjuIMj9sGHOwHU9QkTJujMKj48K/4cXYYNG6bzOgdnKN6HDz78l+G9IsYvtfExpfv2LuG5h+FK1+efm+2lCZ9x+HAnwum9u/KDoG+88Ya6GaYGwyW3adPsvus++HAHw3vhyoFTM86+CD9+iJofAT1x4oQGxF8V8MGHOwnUf+/nM8SlS5fQv39/3W7Hb+LEiZgxY4ZGED6D8eFOB/Xf+yC4YqyfGecLM3x1+XrgEvPKBz0jR47UT5fyiX+3bt30s9WDBg3C66+/jnnz5qllOnqX1oFL1/zFZrt27dCkSRM8+OCD6NChA0aMGKFxNwOWQYP3Hk6/++475YtfbWYZ/JRq37599SmwA9N53+xt2bJFe5Q2bdqgUaNGerRs2VLDvN+48y7Hh/82Dh48iKeffhp+rVq1QlDQ1RvwJwRvJaGRuW/J86PJKVKk0CNlypQa5o68efPGMUg+AO3YsaMnnh9dTpUqlR7eacngzcAZ5oYNG5AmTRpPfsw/derUSJIkiSesSpUquHz5sicN32DQ39bZ+Ny5c+uaPBvKm7cnn3wyjoH5cGeA36z2q1mzpvUaZXPKkxC847Zu3YrMmTOrAvFz8qdOnbIxBlQqp5z80jjfGiCmTp3qUTyOLPF7afoPHz6sP9q5Fi/XAo2NhurK9h5NiPbt23t44C+kHTjyuHCOkt4IDAxErVq1PPH/rV/f+XA90M6Up5vBtm3bPCMMDYZKTriely+9uV6ZPbV75YArck7psmbNioULucVmXNBoeNyswXgbZb16sR8XdKCyu3h+tZ6jDPHpp58iWbJkGl64cOE4hrZ48WLcc889Gte6deurbgx9+O9Dt1y4FQZDxT99Ou6n4V588UWPUpYrV057aIJvEPAlThfHg9OyMmXK6Kvr3vc9N2s0lStX1nw5VWSe8bFy5UpP2SVLlowz/eNbrDlz5vSMjjQSZygM/+wz7pceOxr7DObOwS0zGPbKnNo98MADKFSokEcZedBYjh49alPFggbGaU98eh4VK1b03PjfjEKWKlXKkxdHDQeXF5/guvgSJUp43hsiOBWcMmUKcuXK5aFxR8aMGfHCCy94fofiM5Y7C7fMYNgbp0+fHhkyZNDXpfl7A0573GhBeI8W8RWNb4vy9+ycujnlrFatWpz32W4EfK7k8uH0KT64cubiaehu9Bs/frwnvE6dOh5DJx/cnSJp0qQaxw6CT4B9uLNwS6dk8W/6CWckPK5nerVixQqdRjFPTpVu9heF/MGQU3waHg2ScOXzrQYXz6Vs4ty5c7pqxrCCBQvijz/+0HBvnjm6uHR9+vSxoT7cKbilBuN6Y28jcYcD47p3764rV1yqXbdunSomn6ByVOKytFPId955x6a6friyLly4oCOHy4vPenbu3KkrdXzu5MLJv3vDgaPIww8/7Injc5sDBw5oHG/wv/zyyzjTtE8+Md/b8K6fD/9t/GWDcaMB5/bHjpnPiBPXGk1mz56tBuMUz/vgcxI+JHSKGt/grgeOngZAo0ybNu1V5aRLl05/TO/9oziCP63mD+ayZct2VRoenHpyadm3XcidiRs2GKfACSmKC3PxNJrrAR+aJvTgNKEy/go4vbvRKR6NjlM179e7iRupnw//HdzUCONtEM4d33+tEYbgFMebJn5e7hnH5s2b9WcH48aN0xvyPzv4qg6XjB2Yl3c5Ln/n9oa3PyEa5hO/XvHz8OG/jZs2GAdvJXLu6wHp3UEklo5LwrVr177ug9OlUaNGefL1LoeHKyd+fEJw4a5+3m7vqw93Dv7SPYwPPtxp8BmMDz7cAHwG44MPN4AbNhg785d/fkLRzu31mxLcJM18yoCzev0yi/xH80vG/Lg7v6MkYfpHev4riZx0j30lN4H2o4r6yWuGKYkkiGI5chGvlqNl2q9qMtTzbQvmwQLo59fMpHyh0y8s2LIZF2O+0qRJzL7/Jn2sn/nzGh8s0RCy+nwXgQfdJhu5lxMaU1c5pE76nUHGaxG81xMPs+GnuiUNo/T763QLjdLbXPQL1I5t+dMvRHNRRP4ZZiTBtEKoZRvuI/gBS34RVCN5WFnQLWHmwsxNGeaT4wxkpPmYi9aUFdN60GMPRsbwW1WGD5OZpbNehVZIW0LIzDdPGau6IkTGz6vwTToJ8y5Gy2QWkje/xh3Js37CXDhjYvKqXDJ9lNSBV5tG9EW1Q+tt8tZ6Kw3TWLjCYh2J4qYMJkoKZKEHd6/D9EnvYsL4MXJMxISJEzB6wnhM+3weLoQZ4fyweCbmL1yAi+H8io6kjj6PZUvm4vOFSxEsYZ7Pg8vf/p1bMG3cKIwfPw7jJK/xcvDXoBPGTsTE8eMxTvL+ZP7XWtndm3+QOAkbOx6jR4/CqDEjMXrMaLw3cSp+O3xMm/D8qcP4/MMJwttojJH4UWPH4v2Zn+HYRft5NCtgJyAjAZWCiRO1XThzLPJlTe15DpMyfT68OnqefvAsmmotSmMMnJKwF9aJn12/chzLFn8u7SI8jhuDMaPHYuKEKdiwc68QEjZBxGn8+N0sqc9ojJU6jBk5DhPHTsHaLVsNmfJjeIqhlilvQOD5I1j46YdSv3EYP2ECFixcjIthQicw6hCJ9SuWYPK40dKmbE/Jd7K054TJ0paTMHbCOJHXBHz78wZRyDD8vGyO0owdP1baa5ThZfQYvP/x5zgTdFmKjRZltZ2YYN3qJZg6fqSUPx4Lv1mmRk7zXTz3Q0waN1LqOh6TpJyJk6S8iZOlvIlS7gS5TsC+/YcQHnoKn838CMvWbNCUarVSP/eBuJBLR7Dg8ymS/1hMGDcBXy1YhHNhbFvTHGwH6lTQpZOY8+lEjJk8CQdOn9G0FInyKbqyb/uv0j5TcPDkBY3jV3BNd0BQl4XSENsjcdy4waiCm0y/fH8ICmZIi6FjJuKnn1bJ8ROW/7QcqzZsQkiEWHHUJXRpXB416jbGnsumORGxB0+2rIMSddvhRKBRXLJOtT134hBW//CN5LMcK1cuQaeOjyNVtpJigAs07x9/WoHVm38X6lBMefspZMh5Lz6a+zV27diF7Vt3YKso2Jadu3DisnlmsvOXr1BalL17r9exZccebNm6HjOnvYVkd92NkjUewqHL5lvMHjuJ12BvPf8oMiVLie82m4eoxOJPXsVdd2fD6x8sUn90pLQHRwn+y+HJStQn4tJmtKxbFWVqPY5fftuCHdvXYdXymahVJjfuTpETizYeV0qE7sLjTaqiaKVGWLFhC37fvhW//PwlGlcrBr9k6TB7jXlFh6M6R94VSz5AltQpkSd7AUya+gFW/rQSq5Z9h8G9nsVdYtS5CpfHlkNmK9/De7fj5+Xf4ueVy7Dyu9moW7Mq8lSoj0U//GTk9eNP2LNP6he+B11aVUbhUg9g+ZpNujH379u2Y9vWbdiy/yBORxhFRfhFDOn6uHYe1eo3x5IfV4msfsL4MUOQTHShXZ+B2Pb7r8LTMqxauQLzZkxFztwF0OTxZ6S8lfrq0/c/rsTZcxdw8ehqVChZBO16v2vkoOdw/PrNDOROlRKZM+XHqKmf4odVKyW/b/D6yz203Gz562DdH+eE1sjq5B9r0aBYdq170vRFsWSr3YDPxi+YNgRJ78qEr1ebn59E8vvfYvwmmtIypV8PbuIeRlTbfqFw/uQByJslCz5dudkUSSY4OXHDXWQAujUpi1r1mmBfiDOY3ejYug6K3/cETgSZp+xKrVMFGWk0byrGEbw7+HmkyH8fNhw0PxugQprO9TzGvfEkMheqhBXb7dsFqkySlkS2+J2/fImSWVNhwNjpOiJAp2DB+OjN55A2aSqM+/InDTUjhEnvGplY/cVEpBEhdB08Uv27Nq5EoZwZUbTygzhyzvDOSZOZanDK4SZRzEOmYcG/oel95VHtoZ64wOwVUTixaxEK5suPBp0GmaDA39GuSWWUfvAJnOaHdxWROPTbQuS8JzsaPj3EivQyVi59H0mEpx6vTbI9uqmy4ToaYQFbUaN0aeQoVAeHQsMNjUZGIOryNjzSsgkK1n8SgRGmkczHeeUUTrnUQ7H67XHUykXTsUk5FWYLRl9C90cbIkmytPhkxWZDIoXzs6YeCCnVwHQaETix8xsULFQS7fuP1hDLqCAKpw/8gDLFiqDNy6NtDhH49fuPtM17DBilk3KFzVNbO2g76lcqj0z3VsaBQMPniT9+wX1Fs2LE28PwyGOd4Xd3Fqze5d4+j8FXk/oi+V0ZsXCtedcxUjIzU1FmysMw5WHtGrhxg2GuhnvMnzIYhbNlwpK1m9TvQCGpOMLPomvj0qh9X2McdCNM5G50eKiujDAdRDCuocPVEGJtnamPY/ig7kiVvwo2HzTvetnC5TiHacO6IEXajGj3TE8MHTYMr735JnoMG4Mv1xlBEjvXLkS5bCkwYlLs9lHLvpqBHJnSomrTtjgSFGrLY/PJvFjFJvlrIPm9gLlTB3qmY4937oldx+yQfzkQIwYPxrvTPlVKcmXO5N0IISJwM5rXKYt6rXp4VCos+CSea/ug5JcEHy+3She6G480qYjKjdvhsmEIJw4fRLP7qiFZ5vyYv9GOcFG70fOpZkiVtyZ+O84eViAdRbQYPO+JzJ1LFMa83AE5UqXBpz9vMnJQiFGH7EPrFi3g3+ApBIYbldZvwLMGoXvEGOojY45C6DPgdQx/6y28/vpbGDhiLDbvZ88cjWPbF8I/Rx4x7C64qCHm0DI8wiMfZprLfI/v+gb+hUqg7QAvg6GFS3ufPvgdyhYtjLa9x2oUYg6jd7cWSJarCn494F7kZVfE6bwUwOmv5Dx1YA/kTJ4SnyxboxQn9qxG5fzp0XXICIRHhqF19TJIlaE4Vu0x7zZ+NWmwGEwGLPzV/VxEcmF+lIrtbciRORtXYrhhg9H7QZvn1x+9hlxJ70LmbAWkUUqiUEF/5Mvvj0deMB81RoQzmKaxBhOxSwymtn66/Hg8g6HPiJGuI2IwzyJVvloywtjGc5UUgxk3tDsy5iqDecvW6Ttsx48exeFjx2XUCqJqKPmudV+hhBjMPTmLolajh5A3p3k/rM/w6XAvumjj8ap/rrlicHTbNyhx770oVaYR9v2+Ex2aNJC0KTF24Y9Kce7gepQtkA2P93lNDUahDeNtMOvR5sFySJ4iI/IXLIIC/vlRoXJ1TP9sIYJlKueUOSZsJ558uC5SpMiGug3qomr5wjq9qCG9/aEAmT4YKmmcfejWoQnS5auN34+Yn3tH0WBMrBzskyMwdVA33JsuAz5fvcWUodobgZjL2/FYswfhX/8pnOO9kKQwiwDSU4vRPiNyKVyzOX7dc0Db9MjR4zhy7CQCQ5iv3AtsnolcWbPjvrZ9tSQtV7IxbUe5SAizVSWRqxjF0T3fo0DhUmjnPcJoXBjOHFyCckX98XjvMQyQ8P14/qmGSC0yX+9kzqzEUHjP4ZYhPnzjeeRKnRYzlv+qJCf2rEHVvGnRvf9Q01YR59CiZnFkzlcKhy6FYcmn45AkaRYsWHNE6Q2UUQ8/ypLzXAM3bDBkiA1FfDGtH/Jmy4o5q93NadzCoiMvoDOnZHWb4oB+Sl4QsRMdH6qJUnIPc8oO/dpDMykz1ixIKyPMwJ5Inr8+frVTMlVGjT+HMW91Rhb/Sli53c5XhTE9xO3427NmrowwqfHq+I89w/v2nz/BPSmT4ZFOg7VcVSibyKUDAtDv6SZqaJvOm9/JkKc/Vn8nBpgBeQr4o1q9RjKXrozdxy5ocidOhfIoKYI2onndMqjZuicCYjPXzkFvbLV3l974ylY80qwiyjd8GudDbGLh4eGapZAjd1GsP+bef7uA+dPeEcNNio8X/6K8cxLIDkJnlXK9fGkb6pWrjOLFH8TxUE4XNVhP0Zd34dEWjWRK1g4BOiWz3QR5CzuAJ1rVRum6j+NkoGmtCI5cOvKSIAJhQTtRv2xJZJTe+7fDHGMEqsxcp3N8m+xMW4Tj2G4xmCKl8PjAWIMxlOE4fehrGWHyyz3MezYsCF9/PFbqdxfe//JnIx+d30lu0fQFITR4NxpUr4M8RevjiO2ET+5Zhar50qHzwBGiGcw/AleCduHBKuVRtkhJTB3aVzqj/Fi0xu5ExFsGxy75cTy5sGvgJqdkxrnw/QHwz5oJn61YbwIk3NwaWu2IuIBnmpYT5WqCve4eRm5wO7esjhK1WmHv0bP6w62Ll4Jw6VIggmXOrR2fGsxRvPfqC2Iw9bDODs+ceZph+RTGvdkFmfNWxPcbdiMsLBRhoZcRGhKEy6EhCFVF5JRsgSh4Ggwa/4mOKFzlIeaN6Y/UIpQ3ZrgvE5ge0s5sBdH4bsYIHY0atH4Ou4+ewOXLoQgMOIMPx/VDxpR3iwBSI3vBqvhi6Y8IDbuid0fknXN6oyziD9iMh+pWRNWWPXCOCwMKKqGUR6HpvYGUFrIdjzarhLJNOuBMCBXZ4MTBFfC/NwtqN+2IAEmu1NEX8WaXlsrbgw8/i+2Hj+NSYBACz57HtNEjkCFNahSsUBs7zgUrvS7QeAxGDLOlGMz9HXHR3sPoVI49TfhePNW6FkrWao1DZy7pr05Dg4MQLG166Uo4wiz7wae2oUrxnEiaPB1elynwxQuXRIaXsHbltyhZtgJqNX8Cl8OtrKVNj8s9jH/h0mIwdtpFaF5XcOrwtyhVvBjavjRWJU7ERAdi+IuttH51Wj2P9Vq/QASeOYOPpX4Z06VFnlLVsO2kNVjByb0/oWZeGsxw6VIEzF/qFBNxHC2qml/zJk1fEot/tYssMgKyXdidsHmoLqpbyoWTXsK4YYNxK2Qsac33s/HMk09gzfY9WgzVjsWqQtAfeRnj3+qFfoOGSG9neyGpxLTRA9GyVUs0adEUTZo3RpMmrdCk8WP4YOYSw67WIhjzZ32Edt364NBp6cUlLFqNRY6YUCyf/zEebtUKzZrzaIYWTZuhaZOmaNbmaSzdZvg5tnsDXnqyDRYs/d6OJORKOIw+j+GvD0Dbp1/B4VNmNYmGztxVKXXRgtOU8/hmxofo0LaN5N0cj7XviqWr1ntGq1P7duH5Lp1UcUKUcal5tBieGCZbIjLsIN4a3AuD3pmIYD4TkPJps3xeos+ktDBJFXEKw956BX3eHIXgK5IR2Yyi8MKw6tvZaN2yJT7+fqUGm4rQPM9gyeJP8dDDrYW3JmjStAXeGDEFJy45g+Ozigj3mEcgBhN2CMPfGYLuQ0YiJJL8SNnkg4oSdQofjn4NraSs5s2lHXlInZs2aYYnur+M3efsXYu2TTQCz+3GW28ORGNp8yZC03fwO9h/6qK2n3sGR2bPHduGbs/1xJiZX0kQW0X+GCeVv3hmB158/jmM/2g+iQVUYLYuFxiC8MNXc/BI6xaiGw9KOa0w+J0pOHTeTKZZL9MBRuP8ie14pevjmDxzvqdjjNEhNxwRYecxZNAAtGjTFbtOBUu5kpCyoNHoH3Mwh2GaR+K4cYORP/PQR4owpqllmN7ZeGyQnOSsSmqvOmfi1RLIYW6+qKpmdUkbm1Ek01q4MAbQWMK0LKMWTGsqrbyon4ogvbz42eNT7SLFb/JjnJTDxnTlyB+L4WFqRUIKjs8bSKdMmGk5BaFCNcnVyISWZUQwnvnqal0sjR5MLwGmruJjIP8lTMcbcTNA/0giAVR2jWUACxfmoqLYJ5JLiWddlCcezEWMQ2JDJU5sgcSSTvKQslg2ebXF6MF7H+amz8ZEgXjVekgkV84YbKZ5TCAxnBKFk3eyI9NACeZ0kDmTkUgpR0cqaTfmoVMpxml6gvlGqky0TH2QzbqLm16hoAYwRbiEUSOUYxqQ1IPtyljSsTkkE0nPWrHWbjosZ+Yr6flHPVFINuSX9Yu0xsIwHrx4c/lnuCmDMX/Gp1UlX2pE7gbUqJ4hsm4FA+iXgw0lfpOPwGbDZqEYmIcRho3UMG+vUXQN0CLYaFQbpmZmPEzuPJscbHr1efNoL5bAXqxHaEhqlVJFw+Sat0nv6HmY5mf9eOX8n0KNRSwdz5ZXq/nMNu7ZnuSgn9SmTPpM+9hoe7LCt2QmkGrCjsa0pUbxRCI9TF6ew9IRjLG10Wusj2UzLcNIRTO19eSJQdZDp/eh4Vom+YqFd1pPFh4HVd8s2rvW5NlxbcI0d6XVTst2XCaMJ1JSu6yfjWA9TKmp1X9t3Pg9jOZqCtO6MEhNnmybcHvSeLKpFSfv4mDV1dLl0F5LRwybVl/3YKWM2iuJ/JHWVchlxR6Ih6HTUkwkCZUfhgmlNCCFyRI0D55Jp0xxBcr2Q6o8XkbpcZgLxcVDKbQMG6HlcBphOgvNS0vzJI91qzDNGp52BloDbQkLkynPJpTcsX2EzkS5i1zlzPxMZhqmsdLDGmWUCPGyBJqtdmKso2ZAapPCcWGMiP90MJT5yFXDmchwZJtJ8yEVY0y8jivit5FKJBelYiL1Cly4hTqYXg5eOAJoXoYTwsYaWjo0gifWSQLE6Qmybg+Zg62DN53Cup33z3DTN/1agLp5MkqglVJOTWM7ppXWAyqoMxFWmCm96NRBgRtzIEzeEiH/DPEIhVAJmt7WikbA3E2jmwCeTIxz8kIObWgsiRW+4Y8B4pcLQ1mKUwmW68pkbU2Y4U3n1so068H7DYlwcUodqxAmnZRmDUmhSsASDUhjymA428zkx8NcSGuMlC7N2Xm8/coTqY0auxIYpSeVpQvllWWZKJOvhdJ6Lnoy+dHncqabV/FbQhMidafMGSwB3pSG3KYhvNKZupuaesqRNjJ1k0M6CraA5kOv0qnTnM2/8cuJcWxTF6jhXikSw00YDBtRFEGYJJ9mDspX4thbi5tc6HTIPekgG2SCEWbkUF1Q3lhdhhjjMiMPacXFLo+BthlMUzCW9xbitun1UA+V0IaTRVVAMy/XRtVAaWRLwoMxyg+jVYb0U1gmlRJpGWK8FI5TZJLwUIEZs2MWrLfzM6k2BV0s1yTQ/zh+RqtL/nRkNMGagR5MY8ZZMykhH4aGUczF5Me2YYRJpi7yarngWcvQPIRe8+BJYmxb08s4T30IdfBEAuc2OXl5Yw+9sBVM2yqHXrJkHZRTCTLkhkfNzYbZlrFnWw7PnkQmjCmNl2eWaP40B+20XU3kLBclI+iWC8ux0XrxeK6Bm7iHYcOJAvEVFuq1XGgaagpqKIYKkWfRslYZ1HukK/ShshgQX3uJFE+E0HH8MFUSsFeRuzKu2JhGlsPxrVc2BhtVqW0YT/QbWg1yDaU39TJN0ume6eNpTh5CQyyQPKODJYnMwSPEHXVFbgpFMSWRNq4oYmT0FZmha84SJoogYZ541kD8rI+OI1ZBzcKCjp+mPl6K6xEcw3T6REgnEBUo99SR4M4GbBsVtNAovTLMQuUcIeXJtJUp2R7Rwj8nhEyj7UTjYXE81PClI5M6XWFaDafyiNFIxszVhxvDDRsMBRVh5+zPN38SZe6tgVMiCBWYahLNJwTj3hmCDOnz4eAFUbeYS6hfKBdyFKiJPm8MR78+XVG9ZH6kSVsEc78xu/rbsUfdZqomwjbaIqC60hiMS3XB0tLNMPXSoz1LOBZ+OAbJ/MwrLZO//NEqmOHfKKwckmD2h+PQrnVjdGjXBk+3bY9ObVrgwfrVJF0qjP3kM/y2+QfNY+rspap+ypKmDcIf235Aukz58d50syyq79jRWMi73J95elmGSTz5NOmN6ZNu+AudUahAQTz7THe80qMD8mTJiPxla2LdMfMkn+Z+6sg+1KxYF7nvLYZOnZ9D/3790aDpQ1ix9kcEn/kdeZJlQLcXXkOwUJNHw2AwwgN2o3T5ynikaz9Tri5tySGM6AqZtoYPN4IbNhi+5RmlY8pl9H3saVTxr4PjIgD2sLp2J0I4se4L5MmeD+OX2k9chB5GzaJ50bzza0ZP1bxC8OLjDVGhbA3susBplkCnFqpW9F0TRmmNkVFJYo0oBjPGDEDZig2wePF8lC+YFePnfaMmTpgpnZTPsmxvzLw0PZOHHkXjGqVQ59FnTZqYYLzeqSUy3FsGu4OtCahBnECX5lVQoVFHnCPLCsbROEhn8lTDYBQhBemoIOk5MeHvO+LjyM+fI/XdKTBhiXnt48rJ36VTyorOA4ar34FFmjpH4duJA5Ei+T1YuHm/KVeHknBMe7MrMucvi61nzPjD8jmycIZkOicPZz5cJ278HkZhJjn9Hu6OWgXuxwmRnnkbWAQlo0nbRjXQ+tH2CDBaLUp4BHWK5kGzJ17R95IuXTqF7xZPR8pkmdBr0HirWEIrUxJdmxf/R1NGokj+vPDPnx8FChZEAf8CyJ+/EPIVKI2JH83RbHUkkl6d0ykj/HB8IukKF6mG04Fh2LP1G5TOnRZT535jDJqQUVDvb1icnKKER6PvzOM4nnuyNfIXrIzjQdaIhbOjO1eiYJ7i6N5/lIawrM+njEe2VPdiy+Ezav76urjQms0xjCrHhz5/4L/QRGk9OYWKwJT33kXXDo+ifPkiMuqmw6wvv7NlAz/NGYMquTPjhVeGos4DzVG0aCEUK1ocIyZ/jEv6wEWkEbQTTe6rjpoNOygvxI6Nq5FBjGjW1ytsXqaeCXPmw/XiJgyGTU7zCEXfR7qhZoEHcEZ0zQgqDBPefhbZ8tfApmPmty7ak0WcRrOy/sjvXxqdnu6GTl264f0ZcxBsZwR8EMqn+FRkffPWqvC1wJWoKK5C6X2AMZhPhr+JSqUq46B9R23/5q9R4d57MHuxeY1fnw4zdxoZ75dUeU2vyxosGPUy0t2TGV9uMzv5U6XNKBCDbya+gxJ5C2HN/mMIvbQbRXPnRK+R87Q1mJrjSrTnngSY+M4A5M+TGwXyF1CjnzR9ptKxTJNAUkYKn16LI1ExlzH6nVdw911J0Hes+ULA8lkjUDJ7Rny1yr5+JIgIPYVKxSuhQaPOuMS8BPvXLUG53LnwwXzu9xwq949l0aBtX/sGAos0dWH9tXybzocbw03c9BNUyHD0kRv6qv71cNoK5eQfW1GlSCGM+XieqrB5dUFSXD6BOkUKooX9XYcTnWam+k4T4Q02lxxJASyYMx31q1dE9apVUL1GTdSsIT1o9VqoVK0hZsxfojSk5AjBTM7sX4caJYojQ4asyJIjB7LJkTNDWqS/2w8pUmfGA+1ewqnLcnMvBhl+5QrCJJ3toAWh2L72S2RKmwPvTJih5qqDgRov8xd1C96JZjXLo+EjvdD/xZdQpUoN7Dl/0cSKFZipmBwaYAw4PvRdM8ld3yKQzoFPx0Pjk13ejgfr1kT+Wu21Wzq5ZSmKZsuCIR/MM/FqwEF4sGp9NGvylHv4LriIgc89giJVmmHUO2NRpmBRLNq43cQZpixL2moJsefDdeCmDMbcNYSie+NHUSRjeX3hLQbH8NTDDVGt6TMI4HsiEmLudwRhR1A2Syq5L+hthatWInF8jcLSGA2l67pkSRpVbM1R+PFKZHIB9vwyF/6p5IZ97vee6A9fNZuJT5i/yoYAx3asgH9qPzzY4Vk7tRRquWlnb8yR0zPNWfM10ulCQmYsWrNLw9QAtEQerhReYxmK6xO3eHgEBBzHM52aI2OGNKhcoSzKlCyMZHenR8PGj+PQ8dNCw1TB+H7BZNybIwty58+H8tVqIE3GXHjs2f44JTdZpiWNPIJObZMRNZ3W77Wp9sVSLsJE80k83eZQt/P4cEO4iSmZNDKnHtGeuwLFz59NRKmixbBMpizGAESIqtFU5lhabrTAYPbdVHQqJYWuGuQ0/YZghK5nezI39d4KbKZj+iaBB6Tj/UYsDRHhjJyw+XH0M6rpTMf085qlpDej3PXDjFp0XN2OBGN5f8XVcX1fSl9IjAudYgmvHJENd3GnhOSPbW3qyIwkgG1iebUc+HCDuPERRoVEwYigpNV1YUymaBdOncb5sxdUUIxVuWicGITc4OpLd0JsplwUtxMaz8ZSjP8GQPnrhfmZsUpz5o2CFMgLVVzvWyRc7x+oVLo6JompjPLHl/0ieNi8aFjKpoK1MbVikMlD0guNvt94g8ZCkB99DkJNZ9bUZ10s4OqZeRWG01nTXhLHItju5I5tz+mf0NIQzLMhM85RFkqrhhiOSMnX3LcxkIWxLkxPQnH6cMO4iRFGwMZWIXEeTgHY9qcwqUxW2ZyITA9HhaN6MpJpPBpp0trzDUGyYC6xI4DX6xFy4lZEXExgLMM85ci/0tCnymNyYYRRXHUqnNN4WYYotXhMRyG02qub2OuFUnuS0CjEY/71MEu/lmsaCi3T0iun4uZhDEEO8q8H04gFMj29jFX5qInSDLV9NBNG+nDDuHGDcTJSAZhX21UAKgSjrO5MUrpiQYFaReDhyetm4QxQnRamXMuQuniO9RmzdVQKVVgTomcdQWPjbQkCulTlYmNjya4bhmdzmPI0UC9x3IT1K9TNU2x6PSwN82U3ZgIIBpr2ZghrxRTqcSQ+3BBuboRRUBi8OFHESsCoo7dErFsvPBkh02XoVIzqujEwnU2lF5OjcZMnPktxfl48Dk+YARXK8OAd53HKydsdp9ybgsvNcmS9V7kJddjy+C8HTYBglHMbGmMYJoZ5G58HJtiHv4Abv4fRM8XEG2v1iJh4486zgadP096NVx4aZa88xVc60sT6vV10e1MSLsz0qHJodpxymAnaVYmc26vH1UBOZeIQxoKh7jAnpvX009cBSaSjVSy9upiXFsu6uXgbyCQ2xJTn+GWo12GTuJSG0vic33Rj4mNA7EVhJmnO58P14uamZLr4GoIXm3dE2WzVcUokw8dvnIuzpzYvJ4qbc2cnJTrkX1dyRGkZr0GqD+4ZhqSRQM61dVFX0vOZhbuhNTfqEi4XN4/XRQS+MCluXVhQBTU/z+VDUEJJmAcZYIEsR28CyEsIpg4fDP9786JG+SqoXq06kie/GyUrNMHm/aeZwrIu92vM06rhjLFDkdbPD00eeAAtWrbA/U1a4oGHu2D99r2aRgg1DdtqyiDzifWkOUvj5wNujzVz405+2NnoShurp35bX9aFL7oySg6G672Nvq0gYSyD1RFSvmgTxdVIqRPDebNv2pi0EsDM7Zk1YIu4MB+uHzc1wpg9iUPx8qOdUb1AA5wXCbDpN/zyM2bN+QJhFy5g1vRp6D9wAObYp+xXgs9j5KhhGrbiN/PU2uw+yHWsK1jz9dd4tf8ADBg4CEuWb7RCleiwi5j27ruYN/dLu1Yl59BAfDR2EuZ+s0wVSbXGWRH91wD5pHKSjKtQiDJPXmIRgAu7f0IGv+zo3nekvtCoUA2mEbPuVzB53BjUqXX115n16ZKXku7dsgYVC/nji0UfokHjlmjycC9clqwYS+WOCj+LmZ9+it2bd+Dkjt/xxoC+GDxkGPYeNduartuwEn0H9MPw0WNwJiRU1ZycnNm/EZ++PxZBV8Lw3bLl+kLm0LfH4sAF8yW3KDWqMOkshF/yop2HpDTV+NN28iFh3OSUjK+9XEHfR55Bdf8GOKPSD8Ws90cgVYo0eOChjtizZzeOHtiEumXyIUmyVGjb81UcPHQAf+z8ETkzpka7F4ep3IICzmBQr+5YMGMmAi+cx7nTx/FE0/tQsGoD/HHZPKM4vuNnZE2TCR17v4dzFw6hRvXyeOLZNzkpVMMyymmw7/dNqFWmOHLlzIncufMgT57cyHtvbuTIdS9ate+OUPsZc32+QSVSBZKTvmnMmCCMe+s5pM9SEj9sMlu08vV97dFJRoeo7YIZk5EnU1bky50b+XLKkdcfD7V5CUcvkitCxsyAHWhWpyLa9xmhIQc3/YiSufJi5OylqvjAJcl8Lx6sWwMpUubA0PHTcfLEccyZPgZ3y4iUuUBpvP/FIpySNhk77AX4JcuMpZvNpoYnfp6NPKlTIkflVvhyzSacPXMWs6dP0JFs9KdfmrZRns0k1bQTueJUjGZt7MaHG8ONT8mscVCxXnn0adQqUB8XVPrBeH/CCBQq/iDOefbyisL7r3VFlbotsMduks0XHPv37ITiddrjuN3/6vSpgxj33gjUr1MPJYsXQvbs6ZC3TjNsdVuWSqHBZ7aiUbn8qhCDx8zUULNCJ/mKJmv/SfefgMsAkdQc2oqMGjrIMRmnMiFH0f6BmsiWrRDW7T5s8qR9OGuRq04dVR3JuzE+RfRFPNmsBrIXrYpdwYbvbz56AyXz+GPW0p+xddtO7Pp9JZ55vCGyFamL33Tv4whEhfyBanWa4oVXx2sa4sqFbbi/agn0n/S5LSECZ3Z/h9JlqqDn+LkacmDF+yicLz/mbtxtFV94u3IMPZpUQv0HH8FhvjMjsLNSBauiXYyOkm4M9+FGcOMGozAG8/KjXVC1cCOcUUlcxrQJY5GrZFMcPSs9pyIaU4Y8h2p1m+IPt99W1EEM7PE4StRtLzkAm5bPQZ7kfpg0x+0RBiwZPwhFytXAjkvuCXcg3uz3HKpWrIKXuj+JDDkL4af9dttPUXQagNs36/DeX/BYvYooX7IIypWvgAplq8hRAUVL18Djz7+KEBqX0FOP9OGhqlswZs4ZgPRZM2DsdKOQDsyfP9KigrEI7akjaTBGIT2ICMDTjaqi+gMP45JY4Kn9K1Awvz86v9Afc2bPxezZczBnzhx8Pn0KimTNim4931aTi4k4hUpiMM8NtLs/CsJP7ULjCqXw2jizDS3b+9TeFShVqir6jZmtIfuXf4aCefJg3kbzNWciMuAY6hbPj0ee6IrzNHCtHUcT7RGUf20mdgAapj4fbgA3PiXTnpaijkTnZm1RLGsFBGgvdgUjRw5Dhtw1cOyM22QtEiN7d0bx8jViN/LDSfR4pi3ylL0f58IiEHRqHx6uWxPJkmdG/fr3o3KRnMieJSNylamFfcHhuknfow2qoFyZyjhoP1Px8aQxMtKkxJyl5uOvenMr8r+OAUZoqfi8GaayRCEiZC9a31dCR66cBYrBv1gZ5CuQH7kL5EYlMfRjuh9XIGrny4uMqfJi38UrCD59EI/Uq4Y0GclzPVTna/np7kGrJ/vhZLDkLQb1bNPqKFS+Lk7aHj6SN/N26rj8y/Fa3vtzyX8wSpatqj8Acwg7vRdVCubBy8PH690iR5jjO5ch973+6PHOBxpy8Md5KJ4rO/JVboK8xauhbq3auPvu5Hjg8R44GqSmKO1hTYV11aHUGIhyobz4DOZGcZXBmNWtP2lIEb6u8FiQ2uwF4wVqrxcNRahvL3u9O6WC0z47YRjzMFQGXOei4Zl8Wa55OZ4u8i1nnjgP0fLJp+lZmUsUb9wlXN880BRELD8JQUvn7jYW5FY77zh8GTBXN4Vy0NqRFbYrS+TKl7aGQywt02vW1rAIlmz4NTw77F/+CQrlzYn567fYEC+wGDlMLvSYNrA+G878rq6DD9cGbcWvXr161mvwpwbjw/8RVsXjiWTX2i9RtWp5fPPbdo3SnyIk3vf4cIugI0yHDh1w/Ljdd1bgM5jbB2oM6pAzRx69MsBYB8+6GuYbMP52XLlyBc2bN4ffK6+8gnXr1tlgH24/0EJoLLQI3sibiRwnqJx26uKFGhMPifDhb8Hu3bvRvXt3+C1duhRvvvmmDRbR6Dzf1/K3Bzh0JDTXMoZj7myssfiGmL+M+Hqv9542bPTo0Zg1axb8IiIi8Pzzz+O338wuL2bXER9uC9gbfmccunBAA1JBWlMijRgMaXzd3F8HDcTZgDMWji49e/bE5cuX4ccAGkvfvn0RHs7fm/ua/fYBZcGXSq0x6EgSTkla4xA/jUU8NB6f5P46nP47o+H1tddew7Jly9SvBkOsWrUKffr0iWNddPPqDh9uB8STg3h9krk18NZx53711VfB2xaCYX7exrBx40ZwEeDixdgvPDHOGY4PPvyX4W0LnG0NGzYMS5aYXYqIyMjIWINxhJynDRo0SEccBxfngw93ArZv366zrdOnzc8xvGdanilZfKxfv14XA7ZsiX2a/GeG4zL1wYfbAU4fvfUy/tUbR44cQe/evbF8+XL1e9M4d4IGw0h3L7Njxw41nOnTp+P8efNNSII07nBgGm9r9MGHfxLUQafHTiedfjqEhIRgwYIF6NGjB1auNO8neiO+Hic6wiSERYsWacYvvfQS5s2bh+Bgz0+sfPDhX4GoqCi9ie/Xr58+iPz0009tjEH8Dv+6DIZEzjK94Z04NDRUR5/3338fnTt3RqtWrVC5cmUUKlTId/iO2+aoVKmS6mbHjh0xefJkbN26VT937+A94rgrjYrh8UcjAPgf4bleVvy95PMAAAAASUVORK5CYII=;" parent="1" vertex="1">
          <mxGeometry x="120" y="80" width="125.76" height="90" as="geometry" />
        </mxCell>
        <mxCell id="KvQtNET5gxMqcsmE16n5-4" value="" style="shape=image;verticalLabelPosition=bottom;labelBackgroundColor=default;verticalAlign=top;aspect=fixed;imageAspect=0;image=data:image/png,iVBORw0KGgoAAAANSUhEUgAAAMwAAACNCAYAAAGMIaWtAAAAAXNSR0IArs4c6QAAAARnQU1BAACxjwv8YQUAAAAJcEhZcwAAFxEAABcRAcom8z8AADm/SURBVHhe7Z0FWBZLF8dXxUBQBGkEJBSwEOzg2u21seuz+2KL3V3XLuxu7CsqKgIG2IogKhJSgiCh5P/bmd19A17qAirX/T3PsjOzy7tx9uxOnDmHgQxNmzZFkyZNCmzZtGkT/8uA3IEKEyY9PZ1PFi4MuUSaYBi6uLq60nxBI3egwkRyIFn27t2L/fv387mCQXKgQwf30fXT4Hjs27cPD97HIjqVFlEOHjrMp4CTVx7zKUBml2yRHKju9HN0LTDmiD/e8r+iyt7WAfVVscsrAupV7LGoTVXcP32AbmtrVIyuTTptwMkpLWhaEQpvXWEgvSKHYyheTBn4/h6pkS9omYDwoDBKOlAuzl1BXpEcyGbSUYw84EPTGak55ghd79ixA8rGNTH1+Buazws//tatuBnA/k3CsziapXSaJf+A5AfJgdbeDmL/JtK0QHnLvjgxqT6b+soVsKhocPLK64vrx926WbNm0QS5daUMatC0LN8/usG0jCG2D/8D0STPLrpVetNteeGHfCYcHR0L/0A3btyga8mBFi1apPAr+W+Xrl278r/8A27b9+/ff4xs5A4i3EOBOnXqSL62+UHuv8lnu3jx4nyOfbHWrVvwBxEgX9JXr17xufwjOYhPZBr27NnD5zjuv4ulaz/3i+zX9Sj9wl44If2iety+TNdOe5wQEp+G825+NJ8RyUFUmNJ0fSMcIG82Avk0lC5dks9xGGtx/3Lkn4d0LZAe95pPZSZ/NzuXZDpISDK3LqNUFpGvrqGTMYMAmdqFipoWwjx387ncIXcQpuYE+PBfAE1V+eM3LKeCzR5faDryfj4OUlhkeZBE/kvV1YytgFDC0d6AgcuHBETxJblFchC3z3yCR09bEwbW/Wk6jf4NQ2LIc5oyNa2Kiys60HRu+LG3a/KJN/DebI+/HVqgSo/FfCmrF9ad+BRHk5ln0FJPg8/lDubLF+6JKUzolaSm5raa/e+Qk0lQkPBCKTrs3i3VWXoxwcHBNFOUmTZtGpg5c+bwWQ7he3jixAm5fEauX7+OatWq0fTp06fpPt7e3jT/s8hUSSYnVbZsWbRq1Yrm//rrL4UXQyA1DoKwPav9fhSZLiY+Pp5PcTx/zr0gM0L2k9338WNpa/pn8cOaLz+CTBdD2s2Ptg7icxwHfJL4FDD6MNemfsK2lYT29YCa6tC3HcGl66vS9bQz3LYyRu1hrEkeP+lvyMIw5nyK4+7nFCj9y8c108XMP+zJ/uUqS/b29jj7nP3Mp6WhW/duXKs10R89J06n2/v17olhw5fTNCGBXXYsGs1l0kLY/xlCk1MmcOsE7uMuYfZAe0R+T8YXv1s0b2/fk64Jq46T88gb//3HjDDpQiRdK5n2lFQ4BTJWPAl+l+bzKQIro1Tu20W6cQg1+61AmMdOmi4sMl1MGvtIkYXrwpV2hyQnJ7EL+/il89tlyzIg/FdaajLdVyBN+nOFQpaPWVIKnyhCZLoY0vHTsRKp7X9HA7aFrBh5TQ5i649VlVSgod6eLwmlf817zqPrcj3X0TVBreta9F5yHbfz2nzIBf/tF8CyGx/4VO7oVK08tv/VBj7nHHH36Gr21f0K3p73+K0yxD+DF3l3FyJMSoq8csy79g5Tzr4Do1MdbivbYl73WrDQK43JbSri4vSW/F5ShnesisrGBkjwv4F6ZhXZkiS0+8OSXXPaTs7faPgRfKO5DK/FAubn1gwLmEwXk5iYiBEjRijsivyVFtJ+yUimi7l8+TKGDh2q8Ad+lcXBwQHv3r3jz1iK5GJmz57Np4oWsg1CejHz5nHfg6KKs7MzXTPv37+nif8CzKNHj/hk0WbSpEmZXwCkHS+05ceOHUvT4eHhNC+LbHtf9n9+Fi9fvsx8McTOgryeT506leUJkq4pYZu7uzvIh/fSpUtISlLcmvxRZDpbFRWVTHf91i2uJSiLsE+vXr3omnRoBASQgd2fR6aLkbWA+faNq4QI/WOyCBfz6dMnXLx4Ee3ataP5n0mmi5E1rCGPDTnZjJBxQtmuJqJTP8ogJzsyXUxWkAE6YflVyfXFFAXkL+Z7FPbs2UuTp48cYtNONO1y5SKIsUZs4FOaf3z9PL6FS21SDh06RNdkhJMsBLfTh6kpAiHjyKjA3r0yUk5+j/tPg/DRixsVRQLXWs0L8hcT7kVXjpdCoa6rTdMbh3K9K4Q3Z7lO9hnNTBFxdyNNc8i3uh7v5/vO4M+vgeLGimyR5F/lM1pr8SlAuxh3/Lyg8GII6tqadD21FddDOae5JQKvLaPpmc3MJRfzdNcYlCtfHstvhdA8wW1jDz4lHe857Mtd8MaNsjcBkB2NjnvAjbVodF2FO9ywdp6Qv5hYrsk8cNxCTBw6GPb23DdkzvTeuOjNmTD17s6daNzbm+jWrRsGT+P6wv7632C6FujXpx8Cv0rfcBsnynf5IikOPXpwElxzyBM39y7GjktcL+azs9IOkLzwH34BFHEy6AzX0Pn84gTi+bFUhuHM8SqWVKLr+ABph7aSsh5dk9pAcSVuOyHx7VU+xT7/GhVwzTOMpicc8aXrwkLhC4AoN8OUp+k94+vRdU06LCFPMRXBNAAYcegln2LfRFWHwqDHWj7HEvYPXY09lHfTwbyQ5cUgJQSmyhrYONyGlmV3MYkvue+MwK6dO7F2gtQM4e5KziZr9EHF9pIFRaYz5Dq6pW+h9HQ2z9a7aIc6mxc6y0m50IGeItsjniY/1i/bcV7YZL7dRZgsLubH3c2CRO5iwr220LVajd4wMRqDMQ3VaF6Wj55n8OzoX3xOMSZtl9K1e9BXTGrIvfFc13JDgYWJwoshlFHSxnE3xW8f5VIV+BQw+Y9KfEoKvZg0vnqTKO39Sft4l23NOcNtg3xtoaCQu5iIxzvgsrALTVezmEDXGdk9qioqVCAXw3Vy3ArmKoulSpaha0K1Lqvo2ricCmZvvkPTF5ZPQJVmw2i624KLdF3Q/A4vgKKJvM48knZm5JY7bo+x1fsLRi24gEZTj0C/2miU0G/Ab5WirqvPpwqPTC+ANH/Omolwh23s+b3xwssvgKYCA3dCtXpt+YEkoIERA6Lu2wepQ6XKIKzobSwZQicU5pivr68vGNITKBB6fw3SfLgZK4TLgcAf3VrjFdtQesEuO59nbjE1rt8BZ54lsg00G5xnd9Qsowb7lafBVBmCZT0N2ZqpLwbX4up5TOnadF0YUOurrKyWiiL0MVuzZg3NFFV27dpF1xKdmTlzJp8qWghjM4RMr+adbPW9RYsWCofffpWlZ8+ecHNz489YSqaLESCDUOPGjcODBw/4EpGCIjo6Gk5OTli3LuuOm0yCKerDm0WRsLCwTF34EsEU1YHz/xJkqE6w+aeCmThxIs2I/HxI78+LFy/AnD9/ni8S+VUgc62Z/v25eVFZQbqQV69ejbi4ODRo0IDmScXAz8+PpokBFOHChQs5Tr3p2LEjHZUnkySF+RAC5LcEiysrKyua/10h/as5mpqSG0QkSBDsNZ49e0bzJE0WYiGgaHA9K8j/yApm5MiRtEzAy8uL5n+2ecTPJFeCGT58OB4+fKjQrFygWLFiMDIy4nPZk1EwV69elRMMmd9M8j/bCOdnkivBrF+/ns9JOX78ON0mLLJzuLOidevWcv9DFhcXF7qtXr16cuW3b9+m5b8rBW41P3XqVMyYMSPT4uHhwe8hkhsKXDAiBYMomF+U7AUT7oUaw3YjOjoUPUyL4Z9Aru++QkUNfPkSjeioz/hGi5JQlv0u7HD2pNa0ra0MEciWEjMuYS4ngZhzkTmdxLYgo9+kiFtr0ahpAxx4yZlHxkeH09/qXrssXQcHk1pfKiqwx3G+44vgd/6oVpbB6fecqyJjDQYxMdHwOjsRZt2kUywV8cHTCR6+HxHmc4f9npnxpQIpGLlkB8K/hKOrCQPXiBR8D7wB9Y5Sw4xjM1ri1LvCrZhkL5gIb6joVkdTdh+tGlJnN5rFGWhra7IC4mzaehgy+EoG2GP80Kx5C7Ru1546oci9YJJgYs+ZrzVTKyc3S0iYhEvYMaAC7gbJ27KW0LOm6yrlGbRo0RT6qip4GCW1pUj+lkBtYb99k69R1tZSp5WMnaczT46/sbIfSpcuBU2L1nwJcGZsDZwi0zoTnsC2b+bKUEGTo8YI0049N/THLGdu3EtdR2pwSIn1Zy9SDZ4fuae9u1F5zuovMRBMSR1q5vj96wt2H84KgAhm7DHpbDbrirKNySQUK8XdbIKsYPCN2LabQhh9a2FRDq68FnMzpglxKKWftQM3gtcVrl1GtEODFQ456/jgxzj+zyv2GJ9xx4+7joPz22LgFqlrm5oVS8BSozqfK1zEb8wviiiYXxRRML8ouf7GECLu/o0eY6fCfrP0vbuguyXmjmxK3R2khD1F56nbYc27HiPE+V7DwCUnoVNe6gIzlK0VTdzsgpLlVPgSeVTLKjaUn1DHEE5TW+HCO+mHXNlEahbRy4rBZd5zGHGbUNjmrIVJHgXD1qYO+sF5eh2c90vEky19sPtJMjWnlfVDocisVpFfClm7YQFVpoTEtnXsn13Rs2d3eLwDAv5Zjg13PyAm9quc4AUfFpTvXqjWexFN/scF8xDlq7fDlClT2GU9oj03YogT52qwgzGDgRu5SXRrB1nhFRHMt3Cs27CZur/duGEDQkkTI+Y91m3cQqumpOwL+7Cnhj/H+r+5sg3rNyKBl4Q12y6J4ZLypIWhXBVpdR3pbO1MvyNNMiVV6fkN694IuvW4CRYjG9ZCy3p6OP5S4a8VCcRvzC+KKJhflGwFExfsidv+UjeHSzvr0deO48zp1C2CO98dkhv+nuGAySs4azaBpM+vqd0hWabPnIWshtr2LSb7OGDmjKl0Xz/+lM5tWMDmp8MvXJhgyPHxvjMc+N99/Em2H6HokK1giNUs5z2brUn9sxir3cgdSYRZ5fG0bG5LY7yR6TJq27Qe7OzsYNekMfbcyOxdNs5tGUZuesDnZIh9Cpvhm9lqnR+q9eRmBQ6rqQ2+Uc8TKplLgPQYaLaewqUJ396jbDepCebtNYNga9cEDnPY32SZ1ESfmxuaGoQKtuNo2a9OLgXzFbWGCHbaiTAxEuaOytOjQ0s6rt+xfTscuiOdV0pmqhga6/BpQjrCwoQP81coWw/n08CbMzOw6cBqbPXM6DdBRjAsJYtLu4Wcl3bGzvvSibVf4/mnJfYJLMYcpEkj5dpobEh8+BQNcvWNsdE25lMiP4pcCUbkx5OtYFKTviKGG3ApVPz93yAonOvRJcRFvoffe25mLSUlBm983/KZnPkvWNcwxNo8K4RvTLLPUfQfNgk1TCti4oITqG5dCWUNue5v17+XoppRTWiYNKBzHhe31gGZrfxy9wRsfix97x/bt51Gltnr5ASP19JpM31raOMxW7lzmtcVroHf0UlFnd8CmJSohBuLe+M+3wMzyVKLHsOqfifUMbdExZr9MbSfHTTKMXgWxk3U2TSyPr6lfma/R/IOjYsazNGj0i6XjAiCSfM7jnmXuKdQw4rTsPt/98It9vvc1kAJzz9Gw3X9YLzgq7E1TCxRuaO8LXQjM0OYmZnBzNQEU53c+VLSBdOIT4XDsuMyDNBgJF0yqsWa4e4Ke1zlPJCiZQVdularz9UK1w+txQ2qJfij1viD7AN0GLbNuqF79+74s4U1dnnJV6OLCgcPHuRsl0mXhsivw71796TW/tOnc26JRX4eZN4MMSgnyHX5EktLWSdZIj8Gct9XrlzJ5zgy98XzEAM9EgCKzDsVKXhI1ARiHJmVo7QsBSNALPi3bNmCyZMnU19FpHotLnlfBgwYgIULF+Ls2bP8nc2eLAWzefNmbNu2jU5DEylYyGyG8ePH06ksWZFJMD4+PlQoIoUP8fmY1XRxOcEQNQsMJDaUIj+SJUuW8CkpEsHcvXsXsbH/wsOeSIGgsFYWFRWVZWQfkR+H7GuNCobUuER+PmSeqxDSiiFe8wVvyyI/H0FJGOKKXeTXgdSKaWTftWtlHHKK/BLQ3mXSk5kVJBqLMFmVLMTQQuhCiImJkdtGvBzlhkaNGtH9SYedLGRKuvBbxJ/A78yECRPAfP6cIVqtDMOGDaM3iqgW6Tsj6UqVOOeRZPq4tjZnY0wCrA4alMFdtALI/zdv3pyuZaO/ktepkpISjeVAaodkO+kG+l0hBi2ZWv6yCIIRqF+/viRP1np63ESk3EIEfP/+/UyCUVZWhomJCZ/jfluINvo7QvrW8iQY4m6EhGglbNiwgW4jS16+UyTKSUbBEO0jcfgFyHZF8Th+F3ItGB0dHYkQZF2TkFhORGtIOXnqc4MiwZD8ihUr+JwomFwL5syZM4iIiOBLM0Ocz5H9FAU3yogiwZQqVSrTq4x8i35X8vwqk0XWiIN4viD7ZYyAqAgSiovsS4I8CWhoaEhekaScbCcht39XchQMqWllJRhSLrssX5793HpCxv8hCyEyMlKuTF+/8F0b/8rkKBgyFi37ZGeEOEYgLrJIdTk3CPGnhCWjd6WnT5/S3/zdyVEweYW4qZV17CMsZGxbJPcUuGBevXpFw2LJBjcjC7HAFMk9BS4YkYJBFMwviiiYX5QcBeNx5TANm7j/6A2+BIj58BD79+2h5U4HTvGlLIlB9Pty+gHnyJRw5shhPkWIx8nzXE/2hVOy5RyfXlyD+xuhgZrKh3Hcj0MHD9C0pw/XwE2OC6D5qy7S0MSJoS9xYL8TnJwOIDpXYZbCsXePE27ee83n5bl26Rx7DGmYr4PHr/Mpjqtnj8jE2Sp4chSMvRWDyOgYBD49CqYi5yLq2d7BWHYhkHbbR375SsvOLh4B3QZ9aVX3zvnNqNmG6/fSU5L9+Y/QMONcCVvIOFAQqGWqiwrKwlS8dM5H2UsXaPRcSdNf4pPgtnsMzFtNpnnnv+eguHZ7unfQlQUY6/QCnz8HQ5dtBwXn0M4dNm0pwqIjML15eex+KN9b4X56OXyCghHkcQyMMvf7rbQZcFdK+A6mhNQ7VGGQs2AsGUmcr5J8mL9newZht1QpgLQvYIopdhWVW8GkRT+G3ZxrWNjaHP6yNzX6GTQHCS6sgOKMjIssllE11eAZxQlm2hnO7Gptx4q48ylXaoMDY+tgr3cWXU2pH1nBcIHwnu8bj75bn9B06J1VmHGKc0JRWOQomIHWZACsGawM9XHgGde39fLIGJQuowVNTU10XXcVqWEeKNmVa/WvGt0cLVs2x6hZXHdNbgWzuaceF7o1zh3NZnCTWSkZBMOYd+JTHMcm1sHp12kIub4UBlZN0LhJIzTuL+2lJpNy47/GIS7uK4npJ8Hn1FyUVVGBkraVwleSkaYG7YG47C40dtPAaHM+a3oYVZDRnsIhZ42x4DbfWt8Xw/ZxIRmfOQ3G1vsyxhvf2CdLrQ2fIUTBuBY3pcO4nOzPB0PHYgxNZRRMGfYmkOBnaqrl2BuiwZeyZBRMMflZx1Pr6uM5eypEY+ZcZVUnJZh9zcgGh4qnQWvJorD/IvQuGLOxfCYzRqWkr7DBJuTtkYpyanZ8SeGRq1eZ0NmixJSkayKY7Y/k3RhOaqaF7rO4yLyJgZ7QrMEJZkprbcw5wEU2XTawNlbc5VzMywom4ekhdNvCvSYIW+xr49xH/qgZBDO3owEmruM+xL5X94IxbkbT3KvsI02vaqOOWyHfaVoxKbjsxb323I5MQINJx2h6x7LFdH3rzDa6Jg8Y0RpBo8Lv7oBtp07Y+jDrEd+CIkfBbJk1RPKNcfl7ErzDUhDseQB9e/eGvb09eg2WBl/86HkZ3bt1Q9/Zy5Es8964vHMtnSVw1ks673/+uCG0jCwbN0xBgGwI6lB3zN/BOclGfCAm7JSPxn/3wkb6f46bL/El7C18dg7Hvfgb9tUfQ9Zkb1H/6Nwm9vx7Ytk+LhosYdawIVQISTGfMMm+B7rbT5OEXxMYMnhwoYZaE8hRMCI/B1EwvyiiYH5RRMH8ooiC+UXJUTB9ayhJqsuEupWU0GrVcT7HMalVJVTsNJ/PsdXOYa1ht+gKn+NY0ase+u2U9m0RpretgpnOXGTp1AAuXoywVOs5i5ZnpLU+g+W3pNXV2xu6oHRJNRoipds4+WiENuWU+FTRI0fByLZjCNYmJdFAQ+oNFsmhsGk7EUw1zq3V+LZmuHN+N2xnc+GxCH2amMH14AK2rSL1PNu+bhX8s+F/mHz6HV8ixffQGCy8pmBWW9pHtJq0CcX1GvMFbBV+cVNc5Rvn3z/eA6Mv9YtTU7novgzyLBgLTQbBJ8djljPXmDvtUBvvPseCsZD6G/v6eD9sHaWCIYRcW4huMi6BCS/3D1EoGG2+Ty4jTiNbwI9tRDjUU5K0xl2W2OGMj7RfrH7JYjSmAOH3EgzfYmdU69F1CTVz9m9CgQkm1nMNeqzkWvaBbnvRnW3I9hvmQPOVlSrRqYhh9/aj6XxuGCKjYHqVLcZHtP9NBTO1jTaun1sNB2dyY78UmGDMyjGZWtuElKCLaNrfkQax27FrN4rrVKXlGQXDyPQ+1/ovC6ZnFQaTqc/lKfCOTIex4NQ6/JZMP1I0GCPO0v/2iQ1YOKkvtBv2xs69F2jZ5YNrMGNoG1h2GI59/IDbyd2rMK67DZr0dcCx81xfWszL0zC25/xhZsSxqRaeykhsSk0G90KTcX2pHToOmcye3ySos+dz8WUU4v1dMPovBzBl5cM5FiVyFEx6WhqNZEoWIgSyFpCmSDknopTkZGqNSezMkpO5XiW5shRO/8g2UkYWoSw1Rb5jVJZkBXZrKansOaUL5yftmyOQ8y7K5CgYkZ+DKJhfFFEwvyh5FkxSvOzAiUhhkaNg1juu5lMsSZEw6bMJz533YrKDA6bN38NvyJnQx5fpPMsngVJPsYQd8zk373+xv7c0i8Gt1Fh/us+0GTOpW/ipghv6L36YxuYXLD7A5WVYNGMa97uzi6azohwFY8mY8inAfVUn3I8Adg9sBjoWGf0SapbZRzbnSMeB65w7QRIqUeEIYKQHGs7lqtdZsairNQRPN4kBN6DbkPNP8DXYA4x+O5oWMG+m2KNRUSFPgqmkaUDXuwY046PqRUPD8n80RXh0cjmaNLWjU87r2XXjS+VRVVKWjKHL0r1KKXrTh9TS5Kxlkv2h30K+I3NhF2vOPz/LglYlECQj4XF2KpAd5S/JlGLP409ceRrJ1qsDUbkNN57v0NgQb7MzB/hFyLVgkgJvot9OzsfJoVFtUKNhQzSyH46sWx6Zuek4GIsucH1sciT5w9SOE0Lim4MYseU+Ls3vhkcZzFpkBTO5LoMwGQlPaKkhJxiBLmwDmbw8bUpz80MrqPxB1786uRbMis6VEcu32cirTJFfusfnN6B9h450jnqLTgP5Uo4bxyZi6jGpd6e4iDBJV8/f/SzgJxPtRL9sI9gayIS34pEVzJP9Y7HwrOCrMwmlynBdNIS0JGkXQQ9LzmAx8PoSrD2wEatcioYvthwFY6PCWVjqWEjf4fuGt1MomOwoyT6xmhU1oFZeFXeD0jC3nhmeUo1IgWY1zgxV4KijHQavk7eMISyzbwjpdFpg68wRUFEpjXI2rfFFRrvSv4XDuqo29PQMcPCOMMM6EaVKlvohFi4FQY6CIUR5bsemR6KDuR9JrgQj8uMRBfOLIgrmFyVHwYQEFP7U7tTvn+HjK1+d8PXxQaJMdTjg7RuERObu052SGI1oIRRWESVHwZgzRnyqcEiPuA+TdlPw7IEnypTjwm1VLKGNBy9eoq5KMWqhP6aePi56PMUC++o4/0ahzb4cQ1pWhqGhPZ8rmlDBfP2a9WwPoR3TvJoVOlvbgimrhw2r/4KJSTmsu+LDNhri0dZMF1Z6Wlhz9SX7+H9CKePu9H9Uy0hjIH/+8Ax7nPbSaeU7nGTmv3x9ikrtJ7KJeFSs1Q345oF+q7hRTj/nBdjjHwMjzT9pnsyvqdN3I64v7oLx9r1RVYvB4b2HYFLVBLbdhC6YWOg0X4SZHcyRteebX582bdqAIf7DskIQTA1+jP3TuanY48014LRqS9s2t++4okStoTR9f/dY/NGsBkJz2S0wpX9zdGpkgUX/eCLp+R44HOCmZHx9fACLnJ9Cu7rUZ6dxh4m4u6onXtFm/leodOai/E1oVo529Tw/PB5PSZ/Ol7vox0/XKIqMHTsWTHae9ATBVDepRdfhl+fj1CvuXa9arSXSg6+jsv1GxMTGQdWaE4z34UmoW1UPgTKjwa8vrGG1zIxGXDIylbbqr8zpChd+JGF69YoIS36HNrM55z73tg7BnZTv0K3Aa953d3SYfgEuS3vgA32jfYHpIC6kythmanRto6uKHt27o3v3HijDSHsDihrE6CRbL7LaTAW61lMzpOtQVmMOP+cEw+jasg1qX2iUsUKHOhZgLAeyN+8TyttwhhkMY0XX2ZESchd6FXTw55/NYFSXi63Zu7YuWnRvBWM+oPWppZ1h0bQdtIyNaMv9wuzW8KfCjEaFbqtIAoOs2U/ltwBU7bWV5glO/7PBFdmeziLC+/fvqZkWQ3xQyhpZiPxc5szhgt7RWtm0adNoRuTnQhTkzp07NE0FQ4L3iFEwfj6ZfPsTSIiSjP7DRH4cGT1UyTUwSQ0tu3aNSOFAhJLxvssJhkCCml2+LG97LFJ4kAB9isgkGAFHR0dcuiSdsi1ScJAIJHPnzsXt27f5ksxkKRgBT09P6j6xV69etA9HXP7dQoxUhg8fTuO/kXZKTuQomKwgtTgnJydqv0WizpJQTiSKw82bN/HkyRPqISkhQTQQFPmxkFhIxP83cXzr6upK3VCvW7eO1nhJZwqpR5E31r8l1wpDojQR33FEQUglgnjnFREpipBW4eHDh+Hg4EAVKLuAMBnJUWFIEMbZs2fj4UP5iXoiIv8VSDx48oxfu3aNL8maLBWGhL8gzvrJl0VE5HeAVOdIWyY77+2ZFObly5e0xR8SEsKXiIj8XpDGP4mHpMjkQk5htm7dip07d/I5EZHfmxMnTshFZyNIFIbE5zt2jPOlKiIiwnHlyhUsWbKEz/EKs23bNtpFLCIikplTp05h2bJlNM0QwzLSR52bQRsRkd8R0hlA7Pxo/G8yqEMslv4Nr1+/xq5du2h1jiwkpgGJtXP8+HFqyyEbFDYjJOr8hQsXaE8c6Q8ng0okzPLJkycL3ECHRB/evn07HcA6cuQIvQHZERAQQNtyZCSdnBexg9y9ezcN0ynye0IGQefPnw9m/Pjx8PHx4YvzxtChQyWOeEkUmapVq8Lc3JwGGhHKy5Qpg/Xr1/P/AepGbvLkyZLt6urqqF69Ol2srKxQunRpWk76xvPD27dv6cMu/J6w2NraZqnI5D6QWLXCvpaWlvS8tLW1JWUWFhbi1/g3hFgPDBw4EEy7du3o2/7fIETGJgvpYZPlzZs3qFy5smT7+fPnabmLiwsN2k/K6tTJ2lnlvz0nARI7pWfPnjSePekeJJ6yhWMqUpiwsDAYGRnRfUj8e2LaI8vatWsl19K+vbynCJHfg6ZNm4IhBmj/FlmF2bSJm9ElQCL91apVS7L93LlztJyM7xgbG0vKK1WqRKt1ZP/Cwt3dXXK8rBSGhKYvWbIk3Ye8RDJCPsnCb9SrV0+snv2GEF0pMIUhQceJ0SWZa0MGfYS3NVlGjRolF02epEnbxcDAQLKPsBAlIw9vQZIbhenbt69kn6VLuXm2sjx+/FiyvVq1arSdI/J7UaAKIyzKysqoW7cu2rZtSzsCctOAJ50HpOFP/lf4nU6dOskpWX7IjcKQXhCh2tavXz++VAqp1gm/IX5hfk8KVGGIJXN+IW9xoZFuampK2xUFgYeHh+Q8icLExMTwW6Q8ePAA5cqRiKgMbXtlVCoyqCv8hiKFEvnvU6AKk7ENkxXkq0PaCqRHbdWqVbQbmSwjR46UdAaQN/2BA5n9J+cFMvuNdFOTY4wePVpynqQaSKqMZCCKnAvp/SCQTgZiQyfsR3rHyGAu6aQgnQdCOekFLMz2lsivS74Vhszj1NXVpS5hcjt/llTRDh06hIYNG0JDQ4O+1clSsWJF9OjRAxcvXuT3zB9EmXV0dCQLOU9hEcpIFzPpfpbFz8+PVg+1tLToeamqqtJzI12Kjx7Jx7sT+b3It8KIiPxO/PIKQ0dW+apQbhfZQVIRkYJE/MKIiOQBUWFERPKAqDAiInlAVBgRkTyQP4UJe4DupqShrQo9PWN2KcGmlWFcuwVWnHnK78TxbO9AFCeN8uL6MDTUpxbB+jqaqGDRApvvyY5ppMNz90q0rWsuseuii64+bNqPwyFP6YDjq+OTUYbdNtDpJV8iywdMsNFAsYpd4MVb8ofdWgkdJQb9dynaX4Zv7zCxkSo9rn6fjTTInJTv2DGkhvS8FC7KGLnpHr9/Kly2z0CjOubQkNmnlJI6rDsMw8kHofx+HEFX5kKL7qMLY2M9qKuzaSUt2HYeiYsv8mchHe17FRM62EBXVwOlDFRRqhiDMir6sJ+zH2HZ+qJNx9ubu9G7pRXKaWmgbCXOGkNd2woOO29B+NcHO/qz5WUx5xINupmJTy6r6D1ovdRVYQTHokD+FCbcC/aWDOpMOckXcLiv6cfeuOKYcFI6vvHMaTDUdbSw9UHW81CCXLfAoAwDg24LEKRot8QP8Lx9D1F89s3ZOdBjFWD0YUVTEz5iRjNTaJj1xxM+3GLE3Y2w0GIw8kB2UxmScXxqGxjYjIbXw5Ow1SqF1gu5IBwKSXyDwQ1VoTU082zVhI8uaK3DQMtuKgIVOKwPvLQUmsUZ1PzfQQiXG3RlAYw1Gcy6IKtIX7GyWUX2pWGHax8K1vP962MToMQq+Ozz8mNRueH07DasnM2w/yXvrDEtCqv7WrJl1XEuUF4l0mNfYmj1ktDosASfi6q2sORfYSwY1J0mnXwW7euGPjbaYKp2xm0ZmT8/8D+oq6qg/8yDOHXqBE4cP45Dx07glg8fljTWFyNsGRRrOAOfcmk+VhgK8/rUZJRXqYdTftxD8GJHbzDqVbDnURb2cNHPMKC+KjQH7eALpJxwYL9Emn/gol9WL4kEbO9pBaZiLZx5w0VQoArDnuPsq1LHci+d18GiFAPL4RsRkU/TurgAb1w5eYRG7Fng0AtVTepi3AZnxOTid8Nf3MG540exY8dOTBnYDGa1WmH5GW+5r0Va6C201lSCSUtHhEqCQqTh9KTaKGXeDm6ysWOLIPlTmAhvDKjFQNWgLUaM6Ic/O9ahkawbD92EmAz35ZnTEGhoVcSKK+8RGfmZehokS2wCF+InJdQd3SsxUGqzUPoGigvA4WX/Q//BIzFqVCfol2SgWX06gvjNPqcdoVuCwZgjb/gSWQIxs7kp1E36gA82lLPCxNyGXWkVNB+0BO4e93DXzQ333FwwrTH7djfuhydRCsKCZKMwB0ebgDFojX/eZxXGKBlOg2qglJ4NLr7jLjrk+lKYqTIwqzeIvad/omktIzAltDBpGxczOTNB2Ny3GQx1DWBcuTIM9LTRZeJWRGWhACnfExDF3vfoqAgEPruCWT3MUJrRxLg9HjnGYE5K+EplFh0dCp+7hzGgrhaKK9fA2pvysZgj3JajHFtNH7Xdg+Yjry+BZgVVTDxe9K278/+FYatkNpOOSmIjI9EfI+qWR2mjQXgt83zRKpm2Jjbdy8pyOZWtA49BCVbhms8/r6CO+wmzm1vBuJZUYWK9d8FUhUGtUfsz7x94HXaGJWA5yEkSAFtQmFEHFShYagAm2RlD13YiPH19qfU0XXx88MbrPDpWV4b5kN2SqpOEbBQm+OY66LDthA6Oij26h99Zg8rsF7KxwznJwypUyaadkT6E8U/3oDJ5EY08oDCYd75IeIMhtcuw1b1heMUX5ZoPF1G7PINKzVdI4lxzJOHQ1EZgitnhxosHGFFfHeZDD9K41kWd/ClM6H2012VgMnyfVGFYUsNc8Af7lixdezB84rhH+eke0q5hb65VJ3Tv3gVdurBLp45o3XcUTj2X1t3ig+5gateGKF2yNMpXMkQVKys6bdnY2Ahqauqwm3gAsvbLMe9Po2eTiihbpiKMLPh9zdl8eTX0n32WC//PE3FnHYzZB1hJw5juJyzN203Fslnt2fOriB3eihX66XbSoGXQY/VduWtFlDe6sNXS4t038gXyxATcwJA/KqOEMqtUVbkp2FZVrKCnWh4aFm2x7Z68NfbH89NRnm3XjD32gS/heH9lNpTZ49vNPoPkzG+TXJAK58UdYWRmgXrWtdG1azM0aGAJLZ3yqNK0H7wDpd+Xt+dn02vV6LCGe0Ekh2Pd8NowsaiJJnXqsfJritrWZqigqYo/es7EJ0X+5tODMKOtHv0dlYYTwNdwizz5UxgRkd8MUWFERPKAqDAiInlAVBgRkTwgKoyISB7In8Kkfkd40HsEf1YciSwt9RuC2e3v339EfA49O9+jP9FY6AGRWZl/JCL4A3us6By6W1JiEPD+HcJic+iATYxkj/cBn+MzjJynfKPXRM5F0RIUHk3j0ueOdHwJZf/vQyC+ZTEu8i0mDB/Y3/V/6wtfX186+/NTaJh8T1wGUr9/pffic1xOIyciBU3+FCb8EXpUYVBrwhGFAo5w24Q6mgxUK6iBKfMHrgQqNlh6c3IWTMsVg5GxIZRqjsArQSfSk/Dq8la0bWgJNUYNSgyDRgsUjGmkxcHj+Ao0rG6KCgxxYlEavbc/4DfK8D0CV3bOQo3KhlBnlMEo6WD6eXm7p/SEcLhfPUHDHEiXUzi9xxHmJRhU77Makbns1r21ujsqkCnRJcuh7sB1UBQUzmWpHYqrG2De7tu4d+8u9RR/dNN8NDUrh5Jq1bH+SuYxozD37ahWksHog9mZ+IgUBvlUGAUDlzKQgUJL3RKYcswVq7tbooLF/+Cb4aUY/Xg/aiiXwvRDd7BrUlMwlsPhk8htS4qLwqvXPnRQMs3nCGqxymfrmNlvQAL7dXrlyz340a5LoanKoNvmzOEFY8IC4POeG/Z8e2QYiqkoY/LpXAQHTfTF/+qooZztFMj7wsyaBK9tMNU2xKJrkUDgQRiyCj9ub2Z/AC5L7KBsXBNnfDIP6308NQXFGRWM2Cb/f2EeO1FTmcHYQ4osHEQKk0JXGDKyPvoo+5DGPERLXSVY2q9GlFCnCb8DOwMlNJ95is2kY9sIGzAWUoWR5SurWDWzUBhZQq4tzFJhZHm5f0juFCY1EDMbaqCEYTd4fs5dZSw98gH+rKmKZkvu8iWsYqyxRynVGjjpK39x2SkMkrzRm72Wqj3nyQ3Wigrz8/ghCjPyACfYCI/tMC1dAt22eLGfjE8Y00gHBs0X8dbHMdg4/BdTmLQvWN2rChi1OhJjTIH3rnsxuGMndOrcmToc7DJgNG5Ta5ZE7J/YgI5wa+vqwNDQEJWMjGCizlZL2TLdBhPxXkbvslOYJN9DqFqsOFpOPCRnEiMqzM8j3wrTy4JBvZlZ2UptyGTseG/TKGgXLwEDQ02oWY+Aj+Q5/JKtwsD/FGy02WMtduMLFJPovhLa5RjY7/XlSxQTfHokiqmWxaxrwmSBjCTh5PRm1PBxs1fug+I+2zUQJdQt4PRUQXst6iJqMyXQaNxeyRwbl8VNoWxqAxfONRpPDB6fnYnqpRhoNp6C1+z9SI7/gtCPEXTr28vzockq318ns79GkYInfwoT9RLTu5mjsoE21NTUZJY/cMI/HQk+x9C2vjnmnJV9iyfg/LzmsGraA//4yz5Usdjv2AXmbRzxTrBwjHqB6X8awdCoMvQNTVDZ1BzmRnowZt/YNRoNhyfvqTX5ww0MtasEQ2MT6BuZwtTMHGb8fg07z4Iv/3qOfXwIf9Y2gBG7n56hGczNzGBqqAcjQ2O0+996yM5AeXzwL5ia22L9fcWToRSRHuKKno2qocOU41kaSd7dOZQ9v4bY4/GJ5h/sHYVqJpWhpSHcOyPUrjcQa47dgN9nmQZfylc4rx4MPXYfbZM6WHXuARL/C9aMRYz8KYyIyG+GqDAiInlAVBgRkTwgKoyISB4oVIV5fXYBGtQejAeBYutU5L9BvhQm9P4aaDMVMO9a5rGM+DeHYVlCHTPPvKf5PX3rgmG08Ueffuhj3wU1rXShWckKqy8U3Dzvd6c2oJFlFZhXsoGlJecKyaBRD7i8V+yEIjnkLmZ0rovadRugQQOyNELTJtWhXJwBU3Ew8mJ4khb5CAt61Gd/qxF7U62gqkRcJZVC/YYNUd+2NuwGTcYj6qwgHUF3tqOFVSVU0tWGrbU1rK1toa2uhUpGNlh74XXm6dY8t9cMpOZBNevWo5EPGtSrDdu2E+H57j8ynbEIkC+FCffaAkvGFCtuZnjo416ir7UB2s88w8/jTsTugc1gYjQafjTPcX1uK2joVoVzIF8gA4nVkpKSzC4pMksyktg1u5HfKweiXFCPUUKjEbvkpipnx5PdQ1BO1QbniDujyPuYPKIPNlyXd/Lw5vRS9Bo5C0+yDEAWjkVda8Ok3XLIh21Kx+WlbVG8dA0cIYMrGUh8fQQ1lZXQ9++7CpXGde0QmP8xBSEpaUjP+NGOfIzZY+yx7Lz82MyHy+thP/QvuIeIX/mCoBAU5hsOTmoOwyZ/IVgyjPAN+//XEhoqdnDcuQs7Nm6AQ7dmUFfRxYSD8g7/BAIfXcaW9RuoJ37ZZcP6Xbjjk4tQeemhmNvZGGUtesM7c7Axhbw7MhKMih7W3ZEOZt5Z0RUa5q1wkx+kifHcDDO9sph2SW6kMQOhWNjFGiZtl8o7h0h9j3E1GVTvtxgKryD1E2Z1NUaJTssyO9tgCXt1Hfu2rWXvAXsvli1Gjxo6KK7VBPsehdDtT7YNhqZxA5x7z9ldxD8/hJoGpTAig38AkX9PgSvMyyNjUVa1IZwlo48E/gtjLP+FyY53bieweM4cGndSflmFq09lhxgzkgLXA8Ogwahj9G73XHsqCbmxGkYlSmGqs/zXBGmfsaKjPjT+XIq4uChMbV4epqMOZVlt4shCYZCMrQN0ULLucLxVpBERHuikx6DpLEVecxQRj5UDqoFpMI23hI7Hlj7GKN98KqLivmJpZw3o999W8J5mfmPypzCPNsGcMcTSG9wb7NvTXTDVNMTsMxnbNInY2a8JKukNz1O7IK94OTtAi207WPw5BdduuuL6tSu4fMkZl24+xldaAwqBY2Nj6FTrg6cyNaLwh3/DkCmNITvu8yXypITcRreqJTjbsHYz8SHHJ/AT5nWsjkotF2VQGPbDF/UG01vpsO2bypiyaCPOnz/DLvuwyKEdW6aKztMOI3O4WlYV/G9gWNuWmL3xDO7f94ar6xlM7F8XxSrUxW4PwfEU+/ufH2GQdWl6rjpNx+OV4qlKIv+SfClMWnICIkIjEJ/EvseT/DCqmRGaT3dW8HZMR8KXKESEx+Rh8lXeSYyNQGhoKIKDghAYGMgtJB0SgYRU7qwSIj8j8nOcjLFoOmIjQhD5JQe/xd+/0N/++j0336w0xEVHIiIqLtsvXMznSAQFBSMoJBSfE7J1biwhIS4UHz68x8ePYey58IUZSY6l5xqT1aw1kX9NvhRGlsQvwXj97F2OMytFRIoyBaYwIiK/A6LCiIjkAVFhRETyQL4UJtx7G2qUtMCqWxm6YosYHz32oXcbM+gYVIapvgHK6TTG1E33pIOd6XG4vnMG6hhrQr9KFWgwldB80Ea8jZZ2YcT6u2JcVxtoGZjASEcPFYy6YoNL7ufSZE86Ls1vj2IMg4Yzjyuc3SryY6AK06pVKz6bNzKOw6THf8LD+08QkwR8CfDGeeeL+OfBa0nPmL+XC5ydL8HbL7Mrie/vXuDGhfM4f+EinvnLDOulReHB9Vt49JKbbUhJj8Fdtxt44J+x0zbvJD1xQiUDDUw4J3PM4DMw0i+LgftIkKFYzG6uhEqdl8iN2rss7Yoy6q3hHp+OjxemQrt8Bax1lZmZGX0NTcproNvif2j287snePSKTBqLh5fbVThfvIrnIbzj84QQ3LrkjIuXXRGuoGcr3GUFatVois37NqGBbilMOFlw5kQieYMqzKhRo+Dvn/e3YUaFSf3gjGYaylCz6QMn17eICg/E1v/ZgIRxs7CfjptvAhAW9hjjauvC2G4agkif6/cAOC2dhsVH3REV8x3fY8Oxpq8ZStUZC3/+eYp/dwoNyxZD41kXERrggZZmqhiyios9khHfq3+jna01bGxsYWvLLzY2sLZpijmHFLheYon2vozBzfRQ0aAOrGvbwqhxN1z5yI0sfntzAJbF9DFul7yPgGDX9aiuVhKrb73GnpEtoG00CvJGKV+wuE15VPlzFqtywL31A1CmdDk0cNgD33efEPHsBFprMWBUjDFi8yV8CAvDixurYMIoY+LR59xPsCR//AdtDCtizEluyNd3/3BUMGyAM2/F78yPJjo6Gn369AGzatUqXLx4kS/OPRkVJs3vOKqbWmPhVelAWuTVRahY3Q5n+QhbhAeb7FHWqjmuEbvM9FQ8vrEbHezsULuONapWrQJ9HRUwjcfijewrPeEJxtJ4mmUxzzlrU4/khC/4RMY2goLkluCgEHxWMHAR/+ICOtnowGL0FrwlAZPiQ3B2SRuUKKmByUefIfXrNTRitDF0/R3+PzhCWIWpVV4XO14F48SkDtAr3w/yIY9YhWmmC9s+q0FGWFyX94Baw0kIlJxCDDYOq40qQ7dKR+IT3mFcczVUH7ufH7/5jr/76qFExeqYMHk2ps+YAcfpY9G4IgOlBpPwTpHvA5FCw93dHbNnzwbz6tUrmkhIyJvVq0KFMamFeZekVYbwy/OhYdUEp15J6/v3/+4F1Wqt4PqZ/Z83+1GDUYLjZb6alhqIzYOMUNxmBF7zQ95JHy6yD4kqem/ywOdXx2CpoYYRu7y4jRmIi/oEr/t34e7hCU9PfvHwwF2PB+xbPPMYuvumIVBlFWK9R5hkwDUlxBXNdVVh238nfdiP/VUNynod4BLI3Z/06JcYUVMZxj1WUo83357vgolqMfRYeJN/+NPgtWkAlMrrY6MbZ7Tyz1JWYeqPxwfJQ/4F64fWgumgTZAUJfhjbDM11Bp/mGZvL+0GbfM2bLWPZqWE30bLSgzqO17hC0QKG2L8u2DBAty/fx8MKSBfmePHj9ONuSX+0yNsW7wZ9z5wn4L0qFfYvnknbvtJPw3xb29jzfZ9eB0h/cIEPziNldsP4Z3w/EZ+wLHl8+Ho6Iite07g2f1b2LH7IiKIjsX5Yc2GNTjpLTV2TA97grWrluGgV3Y2ZXngWyhu7VuPBezxHR3nYvnWC3iXwWAz7tNj7Fk0j56j45adeCrT4OeIg+fp3ZhHts+bg93u0moVe8bwdzuF1U5X8UXyb99w33knNp9/KLV+SI7GlQOrsdvFF+mxATiwdTnOeMsHXBKIenEJq1evgHtAVsP9IgXJ5cuXMXfuXJqmCkPM6ZcsWUJdlYqIiEghX5WZM2ciNZVrN1KFEVixYgX1JywiIgJcu3YN8+bNox8UATmFIbi5udH6Wny8aOoq8nuSnJyMlStXKqxxZVIYgW3btsHJyUlOu0RE/uucO3eOtum/fVM8tT1LhSEQZTl8+DBt33z6xHlrFBH5r0HGWIiS7Ny5E0lJ2U+1yFZhZCFx60l9bvr06bh9+zZfKiJSNHnw4AFmzZpFh1S8vb350pzJtcLIQnoMyEAO6WqbNGkSVaT9+/fTHgUSqSs2NocJWSIihUxcXBwCAgLw6NEjHDlyBAsXLoSDgwMdGrh58yZtp+Qd4P98NRok2YX3jAAAAABJRU5ErkJggg==;" parent="1" vertex="1">
          <mxGeometry x="495" y="80" width="130.21" height="90" as="geometry" />
        </mxCell>
        <mxCell id="ORF9aXQRMY27EdUsWraC-3" value="" style="swimlane;startSize=0;fillColor=#e3c800;fontColor=#000000;strokeColor=#B09500;" parent="1" vertex="1">
          <mxGeometry x="900" y="705" width="260" height="110" as="geometry">
            <mxRectangle x="900" y="705" width="30" height="25" as="alternateBounds" />
          </mxGeometry>
        </mxCell>
        <mxCell id="ORF9aXQRMY27EdUsWraC-5" value="I/P SUPPLY" style="text;html=1;align=center;verticalAlign=middle;resizable=0;points=[];autosize=1;strokeColor=none;fillColor=none;" parent="ORF9aXQRMY27EdUsWraC-3" vertex="1">
          <mxGeometry x="100" y="15" width="85" height="30" as="geometry" />
        </mxCell>
        <mxCell id="ORF9aXQRMY27EdUsWraC-6" value="" style="edgeStyle=orthogonalEdgeStyle;rounded=0;orthogonalLoop=1;jettySize=auto;html=1;endArrow=none;endFill=0;fillColor=#e51400;strokeColor=#B20000;strokeWidth=3;" parent="ORF9aXQRMY27EdUsWraC-3" edge="1">
          <mxGeometry relative="1" as="geometry">
            <mxPoint x="40" y="30" as="sourcePoint" />
            <mxPoint x="80" y="30" as="targetPoint" />
            <Array as="points">
              <mxPoint x="61" y="30" />
              <mxPoint x="61" y="30" />
            </Array>
          </mxGeometry>
        </mxCell>
        <mxCell id="ORF9aXQRMY27EdUsWraC-7" value="FILTERED SUPPLY" style="text;html=1;align=center;verticalAlign=middle;resizable=0;points=[];autosize=1;strokeColor=none;fillColor=none;" parent="ORF9aXQRMY27EdUsWraC-3" vertex="1">
          <mxGeometry x="78" y="35" width="130" height="30" as="geometry" />
        </mxCell>
        <mxCell id="ORF9aXQRMY27EdUsWraC-9" value="" style="edgeStyle=orthogonalEdgeStyle;rounded=0;orthogonalLoop=1;jettySize=auto;html=1;endArrow=none;endFill=0;fillColor=#fa6800;strokeColor=#C73500;strokeWidth=3;" parent="ORF9aXQRMY27EdUsWraC-3" edge="1">
          <mxGeometry relative="1" as="geometry">
            <mxPoint x="40" y="49.75999999999999" as="sourcePoint" />
            <mxPoint x="80" y="49.75999999999999" as="targetPoint" />
            <Array as="points">
              <mxPoint x="61" y="49.75999999999999" />
              <mxPoint x="61" y="49.75999999999999" />
            </Array>
          </mxGeometry>
        </mxCell>
        <mxCell id="ORF9aXQRMY27EdUsWraC-10" value="+5V" style="text;html=1;align=center;verticalAlign=middle;resizable=0;points=[];autosize=1;strokeColor=none;fillColor=none;" parent="ORF9aXQRMY27EdUsWraC-3" vertex="1">
          <mxGeometry x="121" y="55" width="45" height="30" as="geometry" />
        </mxCell>
        <mxCell id="ORF9aXQRMY27EdUsWraC-11" value="" style="edgeStyle=orthogonalEdgeStyle;rounded=0;orthogonalLoop=1;jettySize=auto;html=1;endArrow=none;endFill=0;fillColor=#f0a30a;strokeColor=#BD7000;strokeWidth=3;" parent="ORF9aXQRMY27EdUsWraC-3" edge="1">
          <mxGeometry relative="1" as="geometry">
            <mxPoint x="40" y="69.75999999999999" as="sourcePoint" />
            <mxPoint x="80" y="69.75999999999999" as="targetPoint" />
            <Array as="points">
              <mxPoint x="61" y="69.75999999999999" />
              <mxPoint x="61" y="69.75999999999999" />
            </Array>
          </mxGeometry>
        </mxCell>
        <mxCell id="ORF9aXQRMY27EdUsWraC-16" value="" style="edgeStyle=orthogonalEdgeStyle;rounded=0;orthogonalLoop=1;jettySize=auto;html=1;endArrow=none;endFill=0;fillColor=#e3c800;strokeColor=#B09500;strokeWidth=3;" parent="ORF9aXQRMY27EdUsWraC-3" edge="1">
          <mxGeometry relative="1" as="geometry">
            <mxPoint x="40" y="90" as="sourcePoint" />
            <mxPoint x="80" y="90" as="targetPoint" />
            <Array as="points">
              <mxPoint x="40" y="90" />
              <mxPoint x="80" y="90" />
            </Array>
          </mxGeometry>
        </mxCell>
        <mxCell id="ORF9aXQRMY27EdUsWraC-17" value="+3.3V" style="text;html=1;align=center;verticalAlign=middle;resizable=0;points=[];autosize=1;strokeColor=none;fillColor=none;" parent="ORF9aXQRMY27EdUsWraC-3" vertex="1">
          <mxGeometry x="116" y="75" width="55" height="30" as="geometry" />
        </mxCell>
        <mxCell id="ORF9aXQRMY27EdUsWraC-20" value="&lt;b&gt;&lt;font style=&quot;font-size: 15px;&quot;&gt;I/P SUPPLY&lt;/font&gt;&lt;/b&gt;" style="text;html=1;align=center;verticalAlign=middle;resizable=0;points=[];autosize=1;strokeColor=none;fillColor=none;rotation=0;" parent="1" vertex="1">
          <mxGeometry x="15" y="85" width="100" height="35" as="geometry" />
        </mxCell>
        <mxCell id="hwo8MQYsUWOJR3LI0rIK-2" value="" style="shape=image;aspect=fixed;image=data:image/jpg,/9j/4AAQSkZJRgABAQEAYABgAAD/4QAiRXhpZgAATU0AKgAAAAgAAQESAAMAAAABAAEAAAAAAAD/2wBDAAIBAQIBAQICAgICAgICAwUDAwMDAwYEBAMFBwYHBwcGBwcICQsJCAgKCAcHCg0KCgsMDAwMBwkODw0MDgsMDAz/2wBDAQICAgMDAwYDAwYMCAcIDAwMDAwMDAwMDAwMDAwMDAwMDAwMDAwMDAwMDAwMDAwMDAwMDAwMDAwMDAwMDAwMDAz/wAARCADLARYDASIAAhEBAxEB/8QAHwAAAQUBAQEBAQEAAAAAAAAAAAECAwQFBgcICQoL/8QAtRAAAgEDAwIEAwUFBAQAAAF9AQIDAAQRBRIhMUEGE1FhByJxFDKBkaEII0KxwRVS0fAkM2JyggkKFhcYGRolJicoKSo0NTY3ODk6Q0RFRkdISUpTVFVWV1hZWmNkZWZnaGlqc3R1dnd4eXqDhIWGh4iJipKTlJWWl5iZmqKjpKWmp6ipqrKztLW2t7i5usLDxMXGx8jJytLT1NXW19jZ2uHi4+Tl5ufo6erx8vP09fb3+Pn6/8QAHwEAAwEBAQEBAQEBAQAAAAAAAAECAwQFBgcICQoL/8QAtREAAgECBAQDBAcFBAQAAQJ3AAECAxEEBSExBhJBUQdhcRMiMoEIFEKRobHBCSMzUvAVYnLRChYkNOEl8RcYGRomJygpKjU2Nzg5OkNERUZHSElKU1RVVldYWVpjZGVmZ2hpanN0dXZ3eHl6goOEhYaHiImKkpOUlZaXmJmaoqOkpaanqKmqsrO0tba3uLm6wsPExcbHyMnK0tPU1dbX2Nna4uPk5ebn6Onq8vP09fb3+Pn6/9oADAMBAAIRAxEAPwD9/K5f4v8Axl8O/Arwa2ueJL5rS1MyWttDDC9xd6jcvkR21tBGGknnkIwkUas7HoODR8Zfi/o3wK+Hl94k1xrg2tqY4Yba1i8671G5lcRwWtvGOZJ5pWSONByzuo461w/wM+BmqXviaP4k/EpILz4jXkTrZ2Sy+fY+CrWTGbCy4AL7Qonucb7hweVhWKGMA5/b8cv2kf30N4PgB4Uf/Ur9ls9a8YXin+NxIJtPsPUIUvWOVLGIhoyf8O1vhxr/AO+8YXvxC+ImoPzNdeJPGmp3KSn2tY5o7SMdfligRRk8cmvoCigD5/8A+HUP7L8vzXH7O3wR1CXvPf8AgnTrydvrJLCznHQZPA4FH/Dp39ln/o2n9n//AMN5pH/yPX0BRQB8/wD/AA6d/ZZ/6Np/Z/8A/DeaR/8AI9H/AA6d/ZZ/6Np/Z/8A/DeaR/8AI9fQFFAHz/8A8Onf2Wf+jaf2f/8Aw3mkf/I9H/Dp39ln/o2n9n//AMN5pH/yPX0BRQB8/wD/AA6d/ZZ/6Np/Z/8A/DeaR/8AI9H/AA6d/ZZ/6Np/Z/8A/DeaR/8AI9fQFFAHz/8A8Onf2Wf+jaf2f/8Aw3mkf/I9H/Dp39ln/o2n9n//AMN5pH/yPX0BRQB8/wD/AA6d/ZZ/6Np/Z/8A/DeaR/8AI9H/AA6d/ZZ/6Np/Z/8A/DeaR/8AI9fQFFAHz/8A8Onf2Wf+jaf2f/8Aw3mkf/I9H/Dp39ln/o2n9n//AMN5pH/yPX0BRQB8/wD/AA6d/ZZ/6Np/Z/8A/DeaR/8AI9H/AA6d/ZZ/6Np/Z/8A/DeaR/8AI9fQFFAHz/8A8Onf2Wf+jaf2f/8Aw3mkf/I9H/Dp39ln/o2n9n//AMN5pH/yPX0BRQB8/wD/AA6d/ZZ/6Np/Z/8A/DeaR/8AI9H/AA6d/ZZ/6Np/Z/8A/DeaR/8AI9fQFFAHz/8A8Onf2Wf+jaf2f/8Aw3mkf/I9H/Dp39ln/o2n9n//AMN5pH/yPX0BRQB8/wD/AA6d/ZZ/6Np/Z/8A/DeaR/8AI9H/AA6d/ZZ/6Np/Z/8A/DeaR/8AI9fQFFAHz/8A8Onf2Wf+jaf2f/8Aw3mkf/I9H/Dp79ln/o2n4Aj3Hw90gEf+S9fQFFAHz/8A8OvPghY/No3hG/8ACMg+5J4W8R6p4fkiPqrWVzEVOcHj+IA9QDR/wof4w/BH/SvAPxRufH2nW/zDwx8RI4pPNX/nlBq9rClzCe4kuo705yCMEFPoCigDzX4JftM2HxY1y88N6routeBvHmlwfab3w1rixrdeTuC/abeSJ3hu7YsQPOgdgpYLII3yg9Krifjd8B9F+OuhWkOoNeabrGjzG80TXNOkEOpaDdbSont5cHBwSrowaOVC0ciPGzIcT9nf4z6p4qvNW8FeNorOx+JHg9Y/7SjtkMdrrNpIWFvqlorEkW8+xwUJYwzRyxFn2LI4B6jRRRQB8/w/8ZJftw30c/7zwp8AfJjjhPKXnia+sxMZHHT/AEPTbmHZ6tqkhIBiQ19AV8//APBNL/if/szSeMJv3mofEbxPrnim6m/57LcalcC1H+7HZx2sK/7EKck8n6AoAKK+bf8AgrV/wUBk/wCCYn7DHir4xQ+F18ZXGgXFlaw6U9/9hSdrm6ig3NKI5CoUSFsBDuKgcZ3D4f8A+CSX/B0xa/8ABQ79rPw78I/Gnwlf4cah42tbibw5qtvrL31rqEsKyu0TK8EZUMsEyrIrMDJGUwCeAD9cqKK/C39q3/g84Hwe/aG8Z+GfBHwMg8XeEfB+uTaKmv3Xihrb+1TE7p5qLHbSJGsjRStHl3LIAxAO5QAfulRXGwfHTQdN/Z/h+JHiG+tPDPhpdBTxDqF1fThYdMtjAJ3aR+BhFJyfavx3+J3/AAd3+IPi18X9U8M/sw/s1+Lvi5p+lgk6jKt09zdKHZfNWytYZXjhYBSrSOrndhkQjFAH7dUV+X3/AATX/wCDiLxB+2D8WvFnwp+I3wD8V/C34teH/DN74mstLuGmEWrR2yKTCY5oo7iGV2J2gRyAhW+bIAPzN4//AODsn9ob4UeFbjXfFP7EviTw1odmUFxqOq3WpWdrAXYIm6WSwVF3MyqMnkkDqaAP3aor8JPh9/wdnftCfFvwvDrnhX9ifxH4m0W5Z0h1DSbvUr21lZWKsFljsWUlWBBAPBBFftL+zV8UNU+N/wCzn4A8aa34euvCOteL/Dena3f6FclzNotxc2sc0lo+9EbdE7tGdyKcocqp4AB21FFeV/tq/tieC/2CP2ZfFXxW8fXU1v4c8K2vnSRW4Vrq/mYhIraBWZVaaWQqigsBk5YqoLAA9Uor8Ir/AP4Oz/j/AOJfBWofEnwp+xn4hvfg5Yyyk+JJX1GaySGOQqxlvo7T7NGw4DDJCNkZNfqN/wAEqv8AgqL4E/4Ky/syr8RPBdrqGjXGn3r6VrmiX+GudHvFVXKb1+WWNkdHSReGDYIV1dFAPpeivzH/AOCsP/B0B8G/+CeOr6h4N8FxW/xf+KGm3Jtb7S9PvvJ03RnSQpNHdXaq4EyFGUwxqzKww+yvp7/gkP8A8FALz/gpz+wx4b+MF/4ZtfCFzr15fWraZb3rXkcItrmSAESMiE7tm77oxnHPWgD6aooooAKKKKACiiigAooooAKKKKACiiigAooooAK8B/buhb4R+HdJ+Ommqw1H4Pia+1lEHOpeG5dv9q27Y5PlxRreRjvNYRLkK759+ql4k8O2Pi/w7f6TqdrFe6bqltJaXdvKMpPDIpR0YejKSD9aALcMy3ESyRsskcgDKynIYHoQaK8P/wCCaviK+8QfsNfDuHU7qW91Lw/YSeGrq5lOZbiXTJ5dOeSQ/wDPRmtSW6fMTwOlFAFH/glB8/8AwS8/ZzmPMl58M/Dt3M39+WXTLeSRj7s7sT7mvoCvn/8A4JO/8osv2af+yVeF/wD00WtfQFAH5v8A/B2D/wAoTPiL/wBhbRP/AE5QV+I3xO+Fuqfsq/8ABMP/AIJ//teeDYVt9a8NavrOh6jMty8TXE9r4l1S/sEIXja6Lfo56lQqkMOn7c/8HYP/AChM+Iv/AGFtE/8ATlBXzn+xZ+x0f26P+DOTSfAdpaS3mvjR/EOtaDHCUWaTUbHxFqV1BEjP8q+a0XkknHyzN8y53AA+yv8AgqZ/wU/0X4L/APBFDxH8efB2pyRyfEDwpbR+DLhFCzLd6rCq20qpIB88KytMysuQLdsqcFa/n4/a5/Yzb9lr/g3t/Z38S6lavb+IvjF4+1DxZciTYXjszZGCxQMvVGt4lnAJJBumBwcqOK+Cf7RXxG/4Ki/DX9lf9iVI77+wfDXjC5UXsd0J5rqC7mDCVldP3a2Fs18Vw7KUlI2/Ior9U/8Ag9B8Iaf8Pf2Fv2fdA0m3Sz0rQ/EUmn2UCABYYYtP8uNABxgKoHHpQB1f/Bz78fte+E3/AAQk+EfhnRblrS3+I91oekauykhpbKLTnuzECCMbpoICeoKqwPWvp/8A4Nmf2SNC/Zg/4JIfDTUrKztP+Eg+JVmfFetX6QhJrtrl2a3RjkkiK38pBzjKscKWIr52/wCDln9mHXPj3/wQX+G/iPQba4vZPhX/AGJ4j1C3ghaaRrBtPa1mkAXkCM3EcjNjCxxyMcAEjoP+DYn/AIK9/C74uf8ABPzwn8I/FXjLQfC/xI+Fds+kyWGrXaWP9qaesjta3Ns0jbZQsRWKRVO5GiJKqjxlgD9VrvwTo1/4ts9fn0nTZtc063ktbXUHtka6toZCpkjSQjcqsUUkA4O0Zr4F/wCDqX/lBx8Xv+vrQv8A09WNfUnhr/gor8E/HP7TVj8HfDvxG8NeJviJe2VxqJ0nRroagbOGBUZzPJDujhbEiFUkZWYHIBAJHy3/AMHUv/KDj4vf9fWhf+nqxoAzf+DT7/lCZ8Ov+wtrf/pynr9IK/N//g0+/wCUJnw6/wCwtrf/AKcp6/SCgAr8Qf8Ag90+Nk3hr9mD4I/D2OS9jXxd4kv9blEfEMqafbxRbZDuBJ3aijKNpHyk5UqN37fV+Kf/AAey/A2Txb+xv8I/iBb6bcXcngrxVcaXPdRLIy2NtqFsGYybTsVGlsrddzjhiigjeQwB+lX7DP7OuneDP+CXfwr+F93DZX1jH8N9O0S/AixBetJpyJcMVP8ADIzyMQc/fOc1+Lv/AAY7+KJbT4xftC6Ku7ydQ0bRb1+fl3QT3aLx9Lhv1r9P/wBh/wD4KgfDXR/+CJ3w++Mnin4geH1h8J/D6xi8Q3El3Esy6ra2iQTQGFcHz5LmNlSJVy5dAikMufzu/wCDID4F6nbaZ8ePiZPbqujXkum+GLGfJ3SXEQlublMdMKk1qf8AgYoA+iv+Dh/9gn4Qfsrf8EcP2ivFHgXwHoeieKvHWvabrGu62IjPqWoz3PiG1uJd1xIWkEfmSMRErBFGAFFemf8ABp9/yhM+HX/YW1v/ANOU9Z//AAdK/F/wnq3/AARl+MPh+18UeHbrXo77RYn02LUoXu1dNZsy6mINvBXacjGRg56Vn/8ABqZ8WPCul/8ABHn4beH7rxL4ft9em1jWUTTZdRhS8dm1GcqBEW3kkEEDHOaAP1AooooAKKKKACiiigAooooAKKKKACiiigAooooAKKKKAPn/AP4Jpcfs5eIF/hj+KXxFjQdlVfG2uBQPQAAADsBRR/wTT/5N18R/9lV+I/8A6m+u0UAH/BJ3/lFl+zT/ANkq8L/+mi1r6Ar5/wD+CTv/ACiy/Zp/7JV4X/8ATRa19AUAeKf8FB/2EPB//BSb9lrXPhH461DxHpfhzXp7W5nudCuIYL6NredJ02NNFKgBZADlDwTjBwRofsK/sY+E/wDgnt+yp4T+D/ge51u88L+DkuUs59XuI7i+mNxdTXUrSPGkaEmWeQ/KigDAxxXrdFAHwl+x1/wbtfs8/sN/tvX3x48Dx+LB4km+3HTtHvbm0fRdAa7+WRrOFLZJYysbSRIDKwWOV1x0x6T/AMFS/wDgkj8N/wDgrl8NvDHhf4kax420Wx8J6m+qWc3hq8trad5HiMTK5nt51KYOcBQcgc4yD9SUUAYvhXwDp3hP4d6b4XjjN5pOm6dFpSx3YWXz4I4hEBIMBWyoweMHJ47V+Zv7R/8AwaEfsn/HXx9ca9on/Cf/AAx+2SyTXGm+GNUh/s9ndtxKRXUE5iUEnCRssag4VQAAP1MooA+Lf+CZP/BBT4A/8Eq/Edx4k8B2HiHXvG13ayWMniPxFfi5vEt3YM0UaRJHBGpwoJWMOQoBY859y/by/Yl8If8ABRL9lnxN8IfHVzrln4Z8U/Zzcz6PcR297C0FxHcRtG8kciAiSJD8yMCMjHNewUUAeKf8E+P2EPB//BNn9lrQ/hH4F1DxHqnhzQZ7q5gudduIZ76Rrid533tDFEhAZyBhBwBnJyTxPxC/4LVfsp/Cjx7rfhfxH8dvAOkeIPDd/Ppep2E96RNZXUMjRywuAvDI6spHYg19Q185+Of+CQ/7L3xM8a6x4k8QfAP4V6xr3iC9m1HUr+68P28lxfXMzmSWaRiuWd3ZmZjySSaAOS/4f0/sc/8ARw3w5/8AA5v/AImu90D4l/AH/grp+zb4y8O6Nrvhv4tfDnVQ+g69HY3DmIOyLJ5fmLteORVZHV0IZTtYEEA1zf8Aw5Q/ZH/6Ny+EP/hN23/xNevfs7fsn/DP9kbwzfaL8MPAvhnwHpOp3X227tNEsEs4bifYqeYyoAC21VGeuFFAH5h3H/Blz+zHL8QG1NPGnxii0Vrk3H9jDU7Exqu/d5AmNr5nl7fk5JkxzvzzX6g/syfsxeBf2Ovglofw7+G/h6z8MeEfDsPlWdlb5bknc8kjsS8kjsSzSOSzMSSTXe0UAflX8eP+DQn9mv8AaF+OPjLx9rPjb44WeseONdvvEF9BY6zpaWsM93cPPIkSvpzuIw0hChmZgAMsTybn7Nf/AAaPfs1fsv8A7Qngn4kaP4u+NOra14B1y08Qada6prOnNZyXVrMs0PmrDYRyMokRWIV1zjB4JB/UiigAooooAKKKKACiiigAooooAKKKKACiiigAooooAKKKKAPn/wD4Jp/8m6+I/wDsqvxH/wDU312ij/gmn/ybr4j/AOyq/Ef/ANTfXaKAD/gk7/yiy/Zp/wCyVeF//TRa19AV8/8A/BJ3/lFl+zT/ANkq8L/+mi1r6AoA5n4zfGfwr+zx8LNc8beN9d0/wz4U8N2rXupaleybIbWJe57sxJCqqgszMqqCxAPxFon/AAce/BvVLePxBdfDP9pLR/hLM58r4pX3w4ul8GyReZ5azi6VmlETNwCYQQeCAeK4/wD4ONLRfiz4k/ZD+D2rTY8F/FL4x6dbeJLUswj1K1g2n7NIF5ZHMpOOgZUPYEfpO3h+wbQP7KNjZnSzb/ZDZmFfs5h27PL2Y27Nvy7cYxx0qafNKE6naXKl6RjJtvz50lbazbvdJVNxUo0+8eZvteUopJf9uttt9UrK134z+2B/wUd+EP7Dfwp0Pxd488ULHZeLZUt/DdlpdtJqWoeJZpFDJHZ28IZ5dwZPmGEG9NzDcufnnwv/AMHEHwls/GmkaX8UPhn+0R+z3p/iCdLTTNf+KHgR9D0W8mb7sYuVllCZHO6QKgAJLAA1w/hTwfpvxV/4Od9SsdYtLddL+BfwYtH8FaZ5Sra6fJdXKxzXEEeAEYRytDlBwqqM/KAPqn/grV8KNA+NP/BMz47aD4lt7O40xvBOqXoa5RWS1nt7WS4gnG7gNHLGjg5GCoORUVa8aWHeMa5o++7be7Cco2vr7z5W72srpWdm3ph6Xta6wm0vcTf96UYy2/lXMla93Z6q9lb/AOCjf/BRTwR/wTE/Znk+KvjzTfFGteHYtRttN8jw9bwXF40k+7YwWaaFNvynJ356YBr0D9mj9pXwj+1z+z/4X+JngXUTqvhPxdYLqFhOU2SBTkNG6H7siOrIynoyMO1fkj+0X451jxt/wbZ/sf6xrU0l1qn/AAlHgaMyzpuaVIbvyoiwb72Y405Od3XnNe2fsJXDf8Ek/wDgp342/ZV1OQWnwf8AjV9q8e/B6WW4Pk6ZdHnUdETd02tmSNAeFVSdzznF1ounLE0r3cZTjB93CEJNNd2pSktfs8uraOONXmo0q60ThCUl/jlKKafaLUU1/evtFnsunf8ABcXwp4x/ZS8D/F/wV8Df2mPiV4f8dahqWnQWHg/wZDrOpaU9lOYZHu44bopFHI6t5ZDtuCnIUjFeceEv+DlDwp4/8T+INE0H9lH9t7Wta8JTpa65YWHwyhubrRpnXekdzGl6Whdl+YLIFJHI4rY/4Nef+UOHgP8A7DWvf+na6o/4JJ/8pOP+CgX/AGPmh/8ApteuipR5cROlfRQ5199ONv8Ayds2xMlBtRX/AC9lD5L2rT9bQS/E7z9oD/gtN4Z/Z/8AGXwu8LzfBP8AaK8VeNPiv4V/4S3T/DPh/wAK21xrGk2wAMkN9bSXcbwzxE4dBuCkEbs12H7Fv/BWD4c/tpfFTXPh5b6H8Rfhn8UfD1p/aV74K+IHh99E1pbMsEF0ibnjkiJZeUkY4YEgAgn5N/4KXftFyfsuf8F8v2fvFUXw/wDiR8THj+GGu2o0TwNpCapqz77j/WCF5Yl8tcZZi4xkcHNUv+Cf3xOuP+Csn/BaHX/2iLfw7efDHQvgD4Xk+Ho8LeI5Ut/GN1eXMksjS6hYIxNnCm+dESRm3PGSpJDBMcJL23LJLR+1b/uqM6kY27q6hF6O/N0JxN6Sl3Xs0v7zkoOXppKbX+HsfaP7cv8AwVG+FP7AOo6Dovi248ReIPHXixHk0DwX4U0iXWfEOthPvGG2j+6vDANKyKxVgCSrAeY/AT/gvD8J/iv8b9D+HPjTwX8avgD4x8WTLbeHbD4q+EH8Pf8ACQSkgCO2k8ySMuWZVCuyFmZVXcWAPl//AAS/0WD4wf8ABbD9uT4ieIl+1+KfB2p6N4J0P7QAzaVpQtndlhyMoszwo5xgMcnnJJ6f/g54+HGj+Nf+CNnxN1fUFt4dU8Ezabr2h3zACbT71L+CNXibgq7JLJHkHOJCOelZe2jSo08RW1UlGTS6RnZq3eSi03fRy91LqdEaftq0sNS0abim+slo79o8ya7297qkvp/9pL9tvwr+y58X/hD4K8Qaf4hvNU+NGvSeHdEl0+CGS3tbiOHzS1yXlRlj28Aoshz/AA969I+JPjuz+Fvw61/xNqEdzNYeHdNuNUuY7dQ0zxQRNK4QMQCxVSACQM4yR1r85/8AgoV4j1Dxh+0T/wAE0dX1ZmbVdU8ZreXhKbCZpNIR5Pl7fMTx2r7s/bE/5NH+Kf8A2KGrf+kU1RmEqmHw2Jn9qnKcV292nTkvxk/kRgXGvXoR+zUjCXn705p/gkN/ZC/ag0D9tP8AZo8G/FTwtZ6xp/h7xxp66lY2+qxRxXkUZZlAlWOSRA2VPCuw968B/aP/AOCzfhv9n/8Aa3174Lab8Ff2hfip4y8NaTaa1qJ8B+GbTVbW2trkfu2ZnvInU545QDPQmpv+CA//ACht/Z7/AOxVi/8ARslfKvjT44fFj4If8HD/AMerr4U/A+8+N99ffDfw7Ff2Vv4t0/w82mRgkrKXvCFkDHK7VORjPSuzHQVPHLDx+Hmmu7tGE5L8Yq77XObB1HUwft5fFywfZXlKCf4Sdl3sfdHwB/4KAx/G34Q+PPGWr/B344fCux8A2j31xaeOvD0Gl3mqxJDJM5tES5kWTasZB3MgDMozySPm/wAK/wDByJ8O9d+Ful/EPUvgH+1h4b+FmpILhvHGoeAYptBsrYsV+0yzW13M4h3DG9UbJIxnIr6A1X4q/EL4x/8ABPP4qax8TPhVdfB3xJ/wjutwDQLjxFZa65gWxcpP9otCYsOSw2feGznqK/Jz4O/8FgG+D3/BBDwB8Il+A/xct7vxr4TfwFp/jbxZplvo3w+eW+863Nw+qPOw8pVkdwHjTzPLYZUZYc1Sc+epGkk5JU+WPSUp+00umtW4xSV1Zt9jppRi1T521GTnzStso8nTyUm721sn1P3a+G3xH0L4w/D7RfFfhfVLTW/DviOyh1HTb+1bdDeW8qB45FPoVIPPI74NbdeI/wDBNz9le5/Yk/YT+F3wpvdVg1u+8FaFDY3d9AWMNxOSZJDHu+by97sFzj5QvA6D26uvERhCrKNN3im7Pyvoc2FqSnRhOas2k36tBRRRWJsFFFFABRRRQAUUUUAFFFFABRRRQB8//wDBNP8A5N18R/8AZVfiP/6m+u0Uf8E0/wDk3XxH/wBlV+I//qb67RQAf8Enf+UWX7NP/ZKvC/8A6aLWvoCvn/8A4JO/8osv2af+yVeF/wD00WtfQFAHyx/wVx/4Jyyf8FH/ANmyw0XQfEEfg/4keBtbtfFfgjxDJGZI9L1S2bKeYoBJidSynAO07H2ts2N4xpP7TH/BRrxR4dHgaT9mP4T+GPFhj+xyfE68+IsF14ZDjhrxNJiRr7BGSsbNw2Nwx8tfodRUxhbmjd8sndrzsldNWkm0knZrZdVcqUr2fWOifle9uzSbbV07Xfdn59/tp/sAfHjwr+0x8L/2mvgTrvhPxV8ZvBnhRfB3jjRfECnS7H4i6aMSv5TplLW4NwGdAdqAshL7YiknFftB2X7dP/BU74ZX3wd1z4I+F/2UPAXipVs/F3ii88f2fizVLvTWYefa2ENkqhJJFBRjN8pR2AZSc1+nNFVo1yTSlG7fK1pq3JrS2jbb5W3HVq1nYm8laUW1KyV+uisnrf3kklzb6LW6TPhX/gql/wAE+vEHj7/gnt8LfhF8FPC/9p2/w+8X+FpbbTzf29sbbS9OmUSSGSd41YpGoJAJdjnAJru/+Cwv7BWq/t0fsuw/8IPcW+k/GT4bapb+Lvh7q0knlfY9VtnVxEz9BHMgaM7vlBKMQdlfV9FRWj7WM1Nu8p89+vNaCuvTkTV763vdaBTtBxslZRULdHG8nZ+vM0/I+Nf+CBn7KnxC/Yv/AOCYPgfwD8UtDj8N+N9PvdVur/Tlvbe8+zifULiaP95bvJEdyOrfK5wGAOCCBJ/wTu/ZW8e/Ar9ur9sLxl4q0H+y/DfxT8W6Vqfhe8+228/9p28Ni0Ur7I5GeLa5AxKqE9QCOa+xqK6alZzrSrPdxcfKzcHp/wCAL5X+Wbp3jaTb99zv1bamvu99/hr3+O/jH+yv488Vf8FuPg38XrDQftHw78KfDzWdC1XVvttuv2W8uJg0MXktIJm3DnciFR3Irn/jL+x78RvhL/wWk+Hv7QPwr8MrrXhL4h+H5fBnxagi1C2s/ssURR7HVSksqGeRMJGRGruI4SAPnr7korCivZ+zcfsOVvNTc3JPyfPJaWdrWd1c0n73tL/bUU/LlUVFrzThF9VfdWdj88f2kv2Nv2gf2Qf+ChPiz9pX9mXRfCvxJ034o6XaWfxD+GusauNGudWurRRHa3theyAwxyCMkMJSqgb+JDIPK5P4y/s//tZf8FlL3w34F+Nvwr8N/sz/AAE0rWbXV/Fejx+M7fxTr/jYW7iWOzSW0VYIbZnAL78OGVWG7G0/p1RTo+4oxeqg7xv9mz5la1rqL2TultaySTqSc3KS0clZtbvS3ybWjas33ufA/wDwWX/Z/wDjJ4r+J/7MHjz4I/Cpfird/Bfxfc65faCviOw0BWgNoIo1E904VQTx8iORj7uOa6LwB8ff2pP2rvA/xL8F/Er9kn/hTGnap4J1SLStX/4WjpHiL+0NRki8qGy8i3RGj3iR2812CL5eD94Efa1FYzoRnSq0Z6xqczfk5QUG18opq91dapq6LhU5KkKkFZwsl6Rk5JP5trS2nnqflF/wT/8AjB+3V+w7+x18O/hG37BX/CTL4E0tNLOr/wDC7fD9l9tAdm8zyNsmz733d7dOtdj8UfBX7TH7Mv8AwWI+KXxo+Hv7N958YvBvxA8E6LoMU1v480bQmtbi1+aTKXUvmMASVzsUcZBIPH6WUV01ajqVVWl8ScnfvzRlFpra1pPZJ369DCnTjCn7GPw2St/hlGS87pxXXa9z5j8FfEj41/tX/su/FvSPiB8Ar74M+ILrQrvTdB0+58ZaXrx1x57SZMiS1bZDtcov70jO/OcA157+yr/wTiv/ABp/wQm8M/s1fF7RY9G1q88DvoGrWjzQ3v8AZV5ud4ZleF3jd4ZfKlUo5G5BzX29RWFSjCcakGtKiin/ANu81muzfO2/O1rGtOcoTp1E9YOTW32nF/hyq3zvc+af+CRWgfGPwJ+wN4F8J/Hbw82gfELwTbnw7M51S31H+1rS1xHa3nmwyyDMkITcHYPvViQMivpaiiuitWlVm6k93v5vq/VvV20vsktDGnTjTjyR2W3kui9Fsr3dt23qFFFFZmgUUUUAFFFFABRRRQAUUUUAFFFFAHz/AP8ABNP/AJN18R/9lV+I/wD6m+u0Uf8ABNP/AJN18R/9lV+I/wD6m+u0UAH/AASd/wCUWX7NP/ZKvC//AKaLWvoCvn//AIJO/wDKLL9mn/slXhf/ANNFrX0BQB5d+19+2f8ADX9gz4OyePvix4k/4RXwlHeQ2DX39nXV9ieXIjTy7aKSTnaeduBjkivJ/wBm7/gtr+y5+1l8WLXwL4J+LGnXHi+/ANnpWraTqGhXF+TnCwC/t4POc4PyR7m4PHFeJf8ABzv4osfBH/BPLwvrWqT/AGXTNH+J/hm9u5tjP5MMd0XdtqgscKpOACTjgGvC/wDgp5+2b8M/+C1K/B/4V/sv/wBqfFL4haV8QNL1+bxbpuhXtrY/D6xgdmuLua+mij8ksAuERsvtH8flq84WXtJ8r1/eqFluouNNuT3255N7K0d1uGK/dw5lp+7c03s5JztFbavlS3bvLbofqR4h/ao8B+Ff2k/Dvwh1DXvs/wARPFek3Gu6VpP2K4b7VZ27bZpfOWMwrtPG13DHsDWT+1z+3R8Iv2DvAUPiX4u+PtB8D6VdM0dr9tkZ7m/Zdu5be3jDTTldylhEjFQQTgc18o/tCf8AKyX+zz/2SbxF/wClArz39iT4e6Z+3J/wXv8A2pviZ8QLO18RP+z3NpPgvwFY3wSeHw+WjkluLqKJs7ZmliZll6jz5AMYGJw7lVVO2jaqSb7RhVlT0XVt8i3tdt7Kw6ko03UctVFwil1bnCMt9bJXk722Vt9T7J/Yu/4Kmfs//wDBQ176H4O/E7QfGF9pqGW504Rz2GoxRAhTKbS6jinMQZlHmBNmWAzkitn4yf8ABQr4M/AD9oLwX8KfFnj7SdN+I3xCuo7TQvD8cc13e3TyHbGZFhR/IR2yFkmKISDhjg47LW/2dPAviL426L8Sbzwto8nj7w7azWFhr6wCO/htpl2yQGVcF4jnOx9yg/MADzX5a/8ABRb9g/4Zfseft5fsQ6n4N0Hb4m8YfGprzxB4k1Gd77WtbkZUf9/dSEyMilsLGCEQABVFaRadalB/DKUIvq/enGOm1tHe7vZq1ne6ibcaNWfWMZSXb3YOWvfVWsrXTvdWs/1q8b+ONF+Gng/UvEHiLVtO0LQdFtnvL/UL+4W3tbKFBueSSRyFVQASSSAK+U/hH/wXw/ZF+OXxZ0rwT4b+NGj3HiDXro2WmLeaVqOn2epThxGI4Lu4t47aVmchVCSHcSAuSRWj/wAFvP2S9R/ba/4JifFDwDpXibR/CV9dWkGppf6vc/ZdNP2K4juzFcykgRwv5O1nbITIYggV+aXxt/4KYeFf+C03wj+C/wCy/L4BX4H6p4q1qxu7jxX4iu7W38O20Ol3SJKvhm8iY/b55XRoIjGIlwxUMwOaWF/eYhUn/NFWW/K953293X3bX93fVF4i1Oh7RdptvonFK0bb+9fe9l56n61/tv8A/BSL4L/8E4fDWg6x8Z/Gf/CG6d4mupLPTZv7IvtR+0yxqHddtpDKy4Ug5YAHsa4n9jn/AILW/syft/fFS58E/CX4mL4r8TWenS6tNaN4f1XTxHaxMiPIZLq2ij4aRBjdnnpgHHzl/wAF8/jb4V/Zl/ad/Yf8ceNtYXQ/Cfhf4j3d1qeozRSzi1iFiF3ssas7ckZwpPOa+qf2R/8Agq7+zv8At/eN9T8KfCf4kaX431rTdPbUL2yh0+8h8u23pGXJnhRSN0ijAJPzdKWGvU9o93GUopLeypwld76Xk76LRb9Uq3ucl9LxTbe13OUWltraKtru1p0PPvEv/Bwr+xj4S+Lsfgi8+P3hBtbknS2862gu7rSkdjgbtRihazVR3Zpgq9yK+kPj9+054F/Zf+A2sfE7xxr8OkeBNBtY7291aK3mvo44ZHREdUt0kkkDNImNitw2enNfJf8AwXWvPhT+zh/wSA8f+CJ/CfhmG38V6d/wivgfwnp2lxJ9s1m4+SzSxtY0/wBbE+Jh5a5UREjBxXM/Hb9hH4qa3/wbaWnwF07R28RfFa3+Huj6R/Za3sURe5hktneASzukY8tUZeWA/d4HYVNST9hUnDWUHFXto7pt6LW8bJtJvSUe6vtGEHiKUJO0Z3v3STir32s7uztvF9mdt8K/+Dj/APYv+NnxO8O+DfDHxl/tPxJ4s1K30fSrP/hEtdh+1XVxKsUUe+SyVF3O6jc7BRnJIHNfT3xh/ao8B/ALx/4B8L+Lde/snXfihqj6L4ZtfsVxP/ad2kfmNHvijZIsJzulKL2znivjWz/4LJeNv2R9Q8C6P+01+zN43+B3hPxJdWvh2y8YxeJtM8TaRa3jAIgvWs3zao2OGbcepxhWI5j/AIL+/FmP4F/tHfsY+Nn0fWPEUXhTxzqurtpmkQ+ffagsGlvJ5UCZG6RtuAM9TWmIqU6ShK/u+0jFu99HKCei1UlGV9b7rTvz0VUqJq1pcjkl5qMmtdmuZW0ts9e33H8cf2zfhr+zj8TPAPgzxh4mXTvFnxQ1E6X4X0i3sbm/vNVmXBciO3jkaOFAQXmkCxIDlnUVxX7YP/BVn9n39grxTpug/FT4k6b4d8QatF9otdIt7G71XUni+b961tZxTSpGdrYd1Cna2CcGvnX/AIImfDCP9ryO6/bc+IOr6H4s+J3xctpLLQbfT5DNY/DrQ4pXRNHtywB+0Blc3EhALOWUDBdpPGP2hv2il/4Iwf8ABZv4pfEjxF4Y1D4xaJ+0to1hdW1h4Pkgv/GnhT+y7R0kX+zpJFkksJEjZzOrrGvlAHlADNbmpSjTrNRk7t9Una6ho97XvK/LdOKT0lLSnKNSM6lJcyVkujeqUpbbK+kbczVm7Xaj+k/7Jn7Z/wALf26fhavjT4S+NNJ8beHPONtJc2e9JLWYKGMU0MirLDJtZW2SIrYYHGCK8X+PX/Bdn9k39mb4x6p4B8ZfGLSdP8UaHOltqdva6VqOo2+mSs20R3FzbW8kELhuGWSRShyGAwa+Tv8AgnJ46hk/Ys/bU/bK8I6p4Z0/UPi9Zah4p03wtoOppdr4S/s3S5zbrebAEj1GVmM0yheCynLZOPoL/ghF+zj4QtP+CJ/ws0G60TTtSsPiR4bk1fxOl3brL/b0+oF3uGud2TMWVxHl8nYiL0AA0qRmpStG3LGm3FvXmmm+Xm2XK4yTlZ3003IhKNld3UpTSktuWDinK19W+ZWV11beln9r+FvFWmeOfDWn61ouoWOr6Pq1vHd2V9ZTrPb3kLqGSSORSVdGUghgSCCCKv1+d/8AwbEareWv/BNK88I3N1NeWvw28feIfCunSyT+cTawXfmIAckYBmYAAkYAxX6IU58nuzpu8ZKMlfe0oqSv52av5kU3LWM7c0XKLtteLcXbyutPIKKKKg0CiiigAooooAKKKKACiiigAooooA+f/wDgmn/ybr4j/wCyq/Ef/wBTfXaKP+Caf/JuviP/ALKr8R//AFN9dooAP+CTv/KLL9mn/slXhf8A9NFrX0BXz/8A8Enf+UWX7NP/AGSrwv8A+mi1r6AoA+Gv+DgP4SeK/jN+xv4N0vwf4Z8Q+K9Stfid4av5rTRtOmvp4baK83SzMkSswjReWcjao5JFfctFFTTjyRlHvJy++MI2/wDJE/mEvemp9oqP3SlL/wBu/A+Gvjp8JPFer/8ABwD8CvGdp4Z8Q3Xg/SPhjr1hf67Dp0z6bZXMk4McMtwF8tJHHKozBiOgNeWfGD4U/F7/AIJQ/wDBTL4k/tAfDn4X+KPjZ8FfjtaWc3jbw94TC3HiTw7q1sCi3drZsQbqN1LEqhDbpnyUCKX/AE4oqacXTUOR6x516qc5Skn5Xlp2cYvdDnafPzLSXK/RwjGKa8/d+5tbM+R/2UP2/Pi1+2d8ddMTSf2cfiN8JvhFY2txJrmu/FG0XQ9cu7raRBbWOmpJI+3eVdp5DsKK6gBtpPxL/wAFS/2z/Ev7RH7Xf7MuteF/2YP2vLzS/gX8R5Nd8QXJ+FV95d1apsj3WhUkTbtpZc7QV5zyBX7JUVbXvwmvstS9ZRkpJv0atZbrfW7c2vCcJa8ya9E4uLS9b3u7u+2lkvzv/wCCqfhPx/8A8FVv+CUlne/DP4aeN7XUF8U6frWo/D3xxZN4Z1bxHp9heMZrGWKVsIJSiSKHYBlQEfMVB8V/4KLftCeI/wDgq7+xBefs/wDgP9iv9oLQ/F+utZ2umXnjrwbD4c8P+CngmjzdR3zy7R5caOqCAfOjbSAG8tv16oqPZxfNF35ZSUrXs7pJbrX7K2s07uLTZftJpxnF2lFWTt0u3tt1frpdNKx+fv8AwUF/Z/8AHF/+0l+wGljpHiTxlH8PfGZPiXWrLT7i7hs0TTVia7upAG8pHkB+eUgEnqTX3t4j1j/hHfD1/qAtby+NjbyXAtrSPzLi42KW2Rr/ABO2MAdyQKuUVpUcpRqWdnOUp3ts3GMdttOVP5mdOnGDhppGKjbyTk9/+3rfI/C34Afts+OPiL+23qP7Q37S37If7bXibxZ4emls/hn4S0H4Vz3nh34f2LYzOjTywNcajKAN87RLjHyjAjWL9P7j9vnxR4h/Y4034veFf2ePjVqVxPqBhv8AwLrWnQaH4vsrNJZI5blbOaUrKw2K6QiQNKrqQR0r6Top7U1Tjpa1vvu793L7Tvd3bTTs1W9R1Ja3vf01sl2UfsrbTVPW/wCUP/BQH4pfEr/guX8EtJ+APgD9nf47fDHw94m17Tbzxj4v+J/hseGbfQNOt51uGFrG8rSXVyWjVdqKVGeuCWT3L/gqJ8FvFHjD9s39h298N+GfEmvaP4L+Idxc6ze2VhNeQ6PbfYdizXUqKREhPG+QgE98192UU1ZKKitqkaj83FwaXpaCX3u7bJknO/N1hKC8lJSv8/e/BH5uWXwJ8ef8Eif+CkUetfC3wb4m8Y/sy/tH62X8W+HvD2lzahL8OfEMgAGqxQxBmSxnwPOIGyIIegSCNuO+Hnivx9/wSv8A+Cj/AO0l4y8e/s7/ABh+Lml/G7X4dV8M+OvhxoH/AAlF1b6dFBtTTLqFXWa1jhwqrxtZhwCqqw/VSisoRcOXlfwxlH/tx8rUf+3eVKL/AJfdd0aVGpt3W7Un/iV7y/7eT1Wzl73xO5+YP7Bf7Gvir9pX9pr9rr4q698Kdd+Avwx/aJ8M23hew8Ma7BFb6tqkv2aWG51W8sYpGSCQmR/lY7nMjtk7mZuX/Yf/AG1vjl/wTV/Y50v9nTxf+yn8ffH3xS+GsM+g+HdZ8KaAL7wf4jhLytYTvqm8JbRBWjSTepaNQCV3bo0/WainyRUPZRuo8qja+touTTT6Nc0rW0SdkrRjaeaTfPOzle6fTWKi1a+qajG+t7xTvrK/yj/wRb/Ye8RfsBfsDeHPBvjS4tbrx9q97eeJvFD2zB4k1G9mMskSsOH8tfLjLAkMYyQdpFfV1FFa1J8zvZJaJJbJJWSXkkkl5EwjyrV3bbbb3bbu2/Ntt6adgoooqCgooooAKKKKACiiigAooooAKKKKAPn/AP4Jp/8AJuviP/sqvxH/APU312ij/gmn/wAm6+I/+yq/Ef8A9TfXaKAD/gk7/wAosv2af+yVeF//AE0WtfQFfP8A/wAEnf8AlFl+zT/2Srwv/wCmi1r6AoA4H4+ftQeBf2YIPCUnjnXP7DTx14ls/CGhn7FcXP23VLssLe3/AHMb7N+xvnfbGuPmYcV0nxH+IOk/Cb4ea94q1+8j0/Q/DWn3Gq6jdSfdt7eCNpZXPsqKx/CviD/gvf8A8gP9kv8A7OS8G/8Aod1Wz/wXD8V33xG+Evw9/Zw8O3xtPFH7TPiiHwvLs/1kGhQYutZnHB+VbVPLPf8Af1LjOdB+zdpyqOnHsm402m/JObcn/KttHfblhCpFzvyqHPK29lKpzW/7dhp5/hp+FP8Agtt8L/CH7LHwf+JHxojvvhPe/HCzutT8MaDb2GpeJrm6tIirpIWsrIlWa3lt5irIAolwGfaTXsv7I3/BQ74M/t2Q6x/wqvx1p/ia88POE1TTpLW407U9O3EhTNZ3UcVxGrEEBmjCtg4JxXxb/wAFa/iBpP7Iv/BSb9gPVbLwj4s13RfCP/CY2droHg7Q5dW1JoRo1tbxx21pCN7rGpUkKPlRGPRa6z9lPwT40/a//wCCwd1+01/wqrxv8H/h3oPw4fwRb/8ACY6bHo+veML2S+85pZLIO0yW0MaJsNwFYkrgcME6I+zqS5ofC3U/7dUeblvvdvliumsrraxz1eanTg5W5nGLa3u3Nxko9bRS5ru+i13P0Oorzr9p+6+LVp8NFb4L2Pw61Dxh9sjBi8a315Z6Z9mw3mHfaRSyeZnZtG3bjdkjivFvhdrP7ckvxH0NfGvhz9lGDwi17ENYk0TxHr8upJa7h5pt0msVjaULnaHZVJxkgVjD3pcvnbX+tipe6uY+rXcIhZuijJr4g0f/AIOOf2OfEF3DDY/FbVbxrib7PG0PgPxG8bvv2YDiw28MCM5xxX29OnmwOo6spAr8sfhX4p/a0/4Ic/sGaTH4z+G/wX+KHwj+E9rK+ry+D/FeoR+JLewe6eaa88u7so4JPJWV2MasCQv3gAWqacoqp+9doq3kut7yekbaatWV7t2TL5HKD5FeXT7n03fyflq2j9DbD9qzwDqX7Tt58Go9e2/Eqw8Pp4pl0aSxuYmbTHm8gXCTNGIZAJSFKo7Mp6gVP8eP2nPA/wCzNB4Wk8ba5/Y//CbeILXwtoca2dxdy6jqVyWENuiQo7DdtYl2ARQCWZRzXw9/wUj8aab8Ov2gf2Q/20PC915ng+PUoPCHie72mPzvDniGNFtrmUEcRwXDxSYPIaUcda6v4jyp+2j/AMF0fCPhLa0/hL9k/wALt4u1Mq4aOTxJq4MFhDIuOsVkk06nOd0g6Y50pwk5QhNWlzyjNduT33bzdNxSvde0dttDKU1yynF3XJGUX/j9yN/L2l72+xZ3ufeVFFFSUFFFFABRRRQAUUUUAFFFFABRRRQAUUUUAFFFFABRRRQAUUUUAFFFFAHz/wD8E0/+TdfEf/ZVfiP/AOpvrtFH/BNP/k3XxH/2VX4j/wDqb67RQAf8Enf+UWX7NP8A2Srwv/6aLWvoCvn/AP4JO/8AKLL9mn/slXhf/wBNFrX0BQB8x/8ABTb9i/xR+2fpvwPh8L3+gWDfDP4t6B491Q6rPNEJ7GwaYzRw+XFJunbzF2q2xDg5de/mf7OtpJ+2B/wWb+LnxOuPKvPCP7O2kxfDHwuWUMq6zdJHeaxOhxxIiNbW5Oc43D1r7oop0nySuujk1/inGMG/TkTVu7vfQdV+0jyvtFf9uxk5pevO079la2t18x/tW/sX+KPjp/wUJ/Zf+LOk3+gW/h34Jz+JJNctryeZL26Go6clrB9mVYmR9rqS/mPHheRuPFfTlFFCdoKHRX/Ftv8AFhJ8zUn0SXyTb/OTPOv2n/2S/hz+2f8ADRfB/wAUfCem+MvDK3kd+NPvS4jE8YYJJ8jKcgO3fvXi3wu/4Icfsm/BX4j6H4u8LfBHwno3iTw3exajpl9C9wZLS4iYNHIoaUjKsAeQRxX1dRSh7kuaGj3uu/cUveXLLVbfIx/iFpOr6/4B1yx8P6uvh/Xr2wng07VGtVuhp1y0bLFOYm+WTY5VtjcNtweDXwb8ef2Qf22v21/hHf8Awb+J3jr9nrwv8NvEqDT/ABN4n8G2eqv4k1jTw6l4YbS5H2W1eeMFJG82UKGYquDtH6FUVPLG95K66p6p27r81tJaSTVkVzOyUdGuq0fTr8tO3S12eFfte/sMaB+03/wT48WfAO38nTdH1bwsPD+kSzKZF02SCNRZTEDk+TLFC/HJ2V51/wAEfv2CvHP7E3wc8WX3xe8RaH4y+M/xI1w6v4q13Sp57i2ulhhS2s4keaOKRljgjHVBhpH6jk/XVFaRqSU6lTrNJN/Pm+9u131sjNwj7OnSS92DbXldcv5BRRRUlBRRRQAUUUUAFFFFABRRRQAUUUUAFFFFABRRRQAUUUUAFFFFABRRRQB8/wD/AATT/wCTdfEf/ZVfiP8A+pvrtFH/AATT/wCTdfEf/ZVfiP8A+pvrtFAB/wAEnf8AlFl+zT/2Srwv/wCmi1r6Ar5//wCCWP8Aof8AwT5+Fuk9P+EV0j/hGNv/ADz/ALNlksNn/Afs2Pwr6AoA+Y/+Cm37aPij9jDTfgfN4XsNAv2+Jfxb0DwFqg1WCaUQWN+0wmkh8uWPbOvlrtZt6DJyjdvaPHv7SHw7+FV7q1v4o8e+C/DdxoOnJrGpxaprdtZvp1k7tGl1MJHUxws6MgkbCllIByCK+Ov+C9//ACA/2S/+zkvBv/od1XPfEH9mbwJ+0l/wcYXy+PvDOl+LrPwp8E9O1jTbDVYRdWMV6NZuokuGt3zHJJGksgRnU7C5ZcNgh0E5xUerqVFfso0IVLfff72aYjlguftTg7d3KtKn+TX3H2bq37a3wa0D4Q2HxCvvi38MrLwDqs/2ay8Sz+KLGPR7yXLDy47tpRC7ZVhtViflPoa7lPHWiSeDF8RrrGlt4ee0F+uqC7j+xNbld4mE2dnllfm35245zivzO/4Jo/8ABPD4KXv/AAUT/bSj1D4a+EtY0/wz40s7LRNM1HTYrvTdEiv9Ktrq8FrauphgM0jKHZEBKRxpnauK8k/Zq+Lngf4H/wDBEK+8KeLPhdD8X9Bh+OOp/D/wX4Hu777PY3l0ddlbT7e5nlLBbdJMkl1kBCgMrAk1EJcyilvOEJpb/G4Ll83epG2iT1TtZN57SfN8MZyg3/hU25eS/du+9lZ/3T9Yvgl+1b8Lv2lzqA+HHxJ8A/EA6SVW+HhvxBaar9jLfdEvkSPszg43YzitjwR8aPB/xMtNcuPDfizwz4gt/DF/NpWsyabqcF2mk3kIBmtrgxsRDNGGBaN8MoIyBmvyv+F3wv8AHnwX/wCC8n7Oq+MPh/8As7/C6+8Q+EPFUA0/4VXl0Zr6wjt4nij1JZLW2V1jkUeWyqyllcjbsAryX/gsRqsfwe/4KBfFSz+FepeKtP8AhR440nQI/wBqp/DcCSx+HLO4vlhiuov3imK8ubPzY59iNiB2kYEszCpaulGDV6ikk29IyjKUU5NXtD3XzNXcW0tQjJfvZNO1NxbS3cWotpJ2vL3lyrS9ujZ+2vw5+Jfhz4w+CtP8S+EfEGieKfDmrIZbHVdIvor6yvEDFS0c0TMjgMrDKk8gjtW3WB8KvDnhvwf8MfDuk+DrbTbPwlpumW9tosGnbfscVkkSrAsO3jyxGF244xivzI/ax+CHwJ139pXxvea/+xX+2t431q51eeS91/w1rWoR6Rq8pb5p7VU8QQKsTdVCwxjH8I6UVmo1XCO2u++jW629dfS/RUbypKcrX0221XTrbtp93X9Vq+Z/2wPE37XV58RE0n9n7wv8CLLQbOxS4uPEPxG1PUZhqFw3mf6NBZ2Ch49m1C0ssmCJPlUlTmx/wS58IeDvBX7OV5Z+B/hN8W/g1oza1PI2hfES8nutWlmMcIa4Vpr68YQsAqqPNAzG/wAo5Jof8FE/29b/APZxh0f4bfC/R4fHn7RHxHjaLwh4XD/urSPO2TVtQYf6iwt+WZmx5jL5a87mScRaDildt2slu21tv890tLysrouhK9+ayW13slffb9Hvpd2Z5V+y1/wVp8Y/Hr/gmt8fviNrng3RfC3xg/Z5HiLRtf0hZnvNFm1fS7Npw0TLIJGtnO0FfMDDDgORtc3/ANkHx7+3l8ZdO+GvjLxdefsi2/w/8V2unazqdtpGl+IV1iKwuI45nSFpbhoROI3wCwKbhzkV2n7Iv/BPbwL+xN/wT11j4YfEfXdO8QR+PjfXHxI8Q39z/ZqeJ9T1dvKu3aVWjaMSNKsEWGV9ojAO85r5F/4KbfsZeCP+CRPww+HfxH/Zt8QeNvhz8RpPHOiaBpXhlvG2rarpfjpLi4WKTTp7O8uZlkRYWkcFApTZkYO0jop2WJjGdnzeyjdax52+Wbs7e7KUk1s1FfD0Mqkk8O5QuuX2srPflVnBX195RUk/N79T9N/Hv7SHw7+FV7q1v4o8e+C/DdxoOnJrGpxaprdtZvp1k7tGl1MJHUxws6MgkbCllIByCKxtW/bW+DWgfCGw+IV98W/hlZeAdVn+zWXiWfxRYx6PeS5YeXHdtKIXbKsNqsT8p9DXxl4//Zn8C/tJ/wDBxder4+8M6V4us/CnwS07WNO0/VIhdWEV6NZuokuGgfMckkaSyBGdTsLllw2COU/4Jo/8E8Pgpe/8FE/20o9Q+GvhLWNP8M+NLOy0TTNR02K703RIr/Sra6vBa2rqYYDNIyh2RASkcaZ2riuelzTgn1cZy/8AAKvs7fO979N9di60lCbitbShH5zpe0v8ldba6LTc/TrQtfsfFGh2ep6Ze2mo6bqEKXNrd2syzQXMTgMkiOpKsrKQQwJBBzX57fsEf8FlPGH7UX/BRLxB8O/FHh3wrovwp8Xxa5N8JNetEmS88SjRtQ+xXqzM8zRyM2HmQRxphEOd3UfP37Nv7TWofsh/8G+vxS0nwhDcyeIY/iF4n+F3w4023l3TJd3urTWtjDE0jcmIzvIMnpFz3NcZ+1fc/Hb9kT9iv9n3XrX9kPxN8OdP/Y71HT9bfxA3jfw/qcc2nrF9m1SOS3tLgzkXSys7sgOG+ZuMkOjUpurGs3+7agtdFarFScm9k6UXCTV3dS9GFSE/ZOlH47z23/dtpRS3tVkpRT6cvU/ciis3wd4u0/x/4Q0rXtIuo73Sdas4b+yuIzlZ4JUEkbj2ZWB/GtKrlGUZOMlZomE4zipx1T1QUUUVJQUUUUAFFFFABRRRQAUUUUAFFFFABRRRQB8//wDBNP8A5N18R/8AZVfiP/6m+u0Uf8Exf9L/AGQ7PVP4fE3irxX4jQ+q6h4j1O+Uj2IuAaKAD9k7/i0vx++Mnwvn/cW666fHvh2NuBLp+sZlu9vZiurJqbMByq3EOQN6lvoCvI/2ovhTrer3/hf4heC7ZLvx38OZ5prWxMqwjxDp1wqpfaU0jEKvnKkUsbMQq3NpbM52Bwe5+E3xW0X42/D7TfE3h+5e50vUkYqJYmhntpEYpLBNEwDxTRSK8ckTgPG6MrAFSKAMT4+fsv8AgX9p+DwlH450P+3E8C+JbPxfoY+2XFt9i1S0LG3uP3Mib9m9vkfdG2fmU8VNafs4eC7H9ou8+LMWjbfiBqGgR+F7jVftc58zTo52uEg8nf5IxKzNvCBznBbHFdxRRHTbu382uVv1cfdb6rTYJe8rS7JfJPmS9FL3l2eu5w/wy/Zx8GfB34ieO/FnhvRv7O8QfEzUINU8SXX2ueb+0rmG3S3ifZI7JHtiRVxEqKcZIJJNcDd/8EzPgXqX7N3ib4Q3nw907UPh34w1a613VdIvLy6uVmv7mbz5blJZJTNDIZfmUxOmw/c217tRS5Vt5JfJWsvRcqsttF2RUZNO63vf5u+vrq9d9X3Z80/s7/8ABH79nP8AZT+Kmi+OvAnw3h0fxnoIu1tNcm1rUdQ1ArcwrDKks1zcSPOnloFRJS6xZYxhCzE+g/D79iT4W/DDwZ8Q/D+keEbVdK+LGoX2qeMI7y6uL6TxBcXqeXcmeWeR5GVkOwIGCIvCKo4r1WinL3lyy1VnH/t1u7Xo2k2tr6kx91px0aaa9UrJ+qWifbQ5H4C/Arwv+zL8HvD/AIB8F2NxpfhTwraLYaXZz6hc3zWkC/djEtxJJKyqOFDOdoAAwAAOuooqpTlKTlJ3b6kxjGMVGKskFfLP7UX/AARX/Zp/bN+OF18SPiN8PLvXPG19Zw6fPqdv4p1jTGkgiAEaFLW7ijwAB0XJwCcmvqais5Ri2m1tqvLpp8m18zRSaTS6nzf8Ev8Agkd+zz+z38KvG3gfw38O428I/EVII/EWlazrOo65baksO4xZW+uJtm0uxGzbzg9VBFL9nX/gjV+zT+yp8UtP8a+CvhhZ2nijR4vI0u+1LV9Q1ptHTBGLRb24mS1+UlR5IQheOnFfTtFaKclP2ifvWtfrZKyV+yWnoZuKceR7Xvbpd7u3dnD2n7OHgux/aLvPizFo234gahoEfhe41X7XOfM06OdrhIPJ3+SMSszbwgc5wWxxR8Mv2cfBnwd+InjvxZ4b0b+zvEHxM1CDVPEl19rnm/tK5ht0t4n2SOyR7YkVcRKinGSCSTXcUVMdNF2a+TfM16OXvPu9dypau77p/NLlT9VHRdlpseD6D/wTK+B/hnTPDNlZ+CfLs/B/jS4+IekwPrF/LFba9OztJelWnIkbdI5VJN0aFsqq8V7B8QfAWj/FTwHrfhfxDYQ6poPiOwn0zUrOXPl3dtNG0csbYIOGRmBwQea2KKlxi4eya93t02UdtvhSXoktkioyan7RfF367uW/q2/Vt7tnKfA34JeGf2bvhD4d8B+DdPl0rwr4Tso9O0qykvJ7xrS3QYSPzZ3eVgo4G5iQAB0Arq6KK0lKUpOUndszjFRSjFWSCiiipKCiiigAooooAKKKKACiiigAooooAK8p/bc+Lep/Bj9mDxXqnh3a3jHULYaL4VgP/LzrV6wtbCPHp9pliLH+FFdjgKSPVi20ZPAHU14B8Px/w158etJ+Iw+b4a/D03Mfg4t93xHqcqtb3GsqP+feKEzW9s/SUXN1KA0bW8jAHqvwN+EmmfAL4LeEfAui7v7I8G6NaaJZl/vNFbwpChb/AGiEBJ7kmiuqooAK8b+I3wP8QfD7xvqHj74VSWsWuak4n8QeF7yYw6T4sKqF80Ng/ZL8IqqtwoKyKoSZHAjkh9kooA8r+EH7YPhP4p+KD4Xvl1LwR4/hjMk/hLxNEtjqu0cNJANzRXkIJAM9pJNECQC4bKj1SuU+L/wK8FftBeFxonjrwj4b8Y6SsgmS01nTor6GKQdJEWRSFcdnXDDsRX5S/wDBYX4r+MP+Ca+vJY/Bjxt448J6f9jhuEs7jxFe6xa27OZAViivpZ0iT5FxGgVFwcKMnIB+wtFfyBf8RRv7dn/Rcv8AyzPD/wD8g0f8RRv7dn/Rcv8AyzPD/wD8g0Af1+0V/IF/xFG/t2f9Fy/8szw//wDINH/EUb+3Z/0XL/yzPD//AMg0Af1+0V/IF/xFG/t2f9Fy/wDLM8P/APyDR/xFG/t2f9Fy/wDLM8P/APyDQB/X7RX8gX/EUb+3Z/0XL/yzPD//AMg0f8RRv7dn/Rcv/LM8P/8AyDQB/X7RX8gX/EUb+3Z/0XL/AMszw/8A/INH/EUb+3Z/0XL/AMszw/8A/INAH9ftFfyBf8RRv7dn/Rcv/LM8P/8AyDR/xFG/t2f9Fy/8szw//wDINAH9ftFfyBf8RRv7dn/Rcv8AyzPD/wD8g0f8RRv7dn/Rcv8AyzPD/wD8g0Af1+0V/IF/xFG/t2f9Fy/8szw//wDINH/EUb+3Z/0XL/yzPD//AMg0Af1+0V/IF/xFG/t2f9Fy/wDLM8P/APyDR/xFG/t2f9Fy/wDLM8P/APyDQB/X7RX8gX/EUb+3Z/0XL/yzPD//AMg0f8RRv7dn/Rcv/LM8P/8AyDQB/X7RX8gX/EUb+3Z/0XL/AMszw/8A/INH/EUb+3Z/0XL/AMszw/8A/INAH9ftFfyBf8RRv7dn/Rcv/LM8P/8AyDR/xFG/t2f9Fy/8szw//wDINAH9ftFfyBf8RRv7dn/Rcv8AyzPD/wD8g0f8RRv7dn/Rcv8AyzPD/wD8g0Af1+1xvxn/AGhPBf7PehQ6h4w8QWOjR3cnk2du26a91KU9IbW2jDT3Mx7RQo7nspr+f3/gl5/wVg/aM/bx8X6NpvxN+LXijVLTUrkQ3C6S0Xh9mU3EcXD6cluynY7DKkHODncAR+8/wY/Y1+F/7P2uzax4V8G6TaeI7qPyrnxBd79R1y8T+7NqFy0l1KPZ5WHJ9TQBxn9g+Mv20fk8T6Prfw5+FLff0K7mWHX/ABgv928ELN9isSOTbh/PnB2TeQgkgm9607T7fSNPgtLSCG1tbWNYYYYUCRwoowqqo4CgAAAcACpqKACiiigD/9k=;" parent="1" vertex="1">
          <mxGeometry x="519" y="366" width="130.1" height="95" as="geometry" />
        </mxCell>
        <mxCell id="hwo8MQYsUWOJR3LI0rIK-3" value="&lt;font style=&quot;font-size: 15px;&quot;&gt;&lt;b&gt;MC 33972&amp;nbsp; I/P IC&amp;nbsp;&lt;/b&gt;&lt;/font&gt; VLOGIC =5V&lt;br&gt;VBAT = 40 V(MAX)&lt;br&gt;Imax=5mA" style="rounded=1;whiteSpace=wrap;html=1;align=left;" parent="1" vertex="1">
          <mxGeometry x="288.99" y="272" width="126" height="94" as="geometry" />
        </mxCell>
        <mxCell id="hwo8MQYsUWOJR3LI0rIK-4" value="&lt;font style=&quot;font-size: 15px;&quot;&gt;&lt;b&gt;MC 33996&amp;nbsp; O/P IC&lt;/b&gt;&amp;nbsp;&lt;/font&gt; &lt;br&gt;VLOGIC =5V&lt;br&gt;Vpower = 50 V(MAX)&lt;br&gt;Imax=10mA" style="rounded=1;whiteSpace=wrap;html=1;align=left;" parent="1" vertex="1">
          <mxGeometry x="288.99" y="405" width="126" height="94" as="geometry" />
        </mxCell>
        <mxCell id="hwo8MQYsUWOJR3LI0rIK-6" value="" style="shape=image;aspect=fixed;image=data:image/png,iVBORw0KGgoAAAANSUhEUgAAARAAAACqCAIAAADqToflAAAAAXNSR0IArs4c6QAAAARnQU1BAACxjwv8YQUAAAAJcEhZcwAADsMAAA7DAcdvqGQAABeYSURBVHhe7Z1PTBbH/8fBE2kTxZgoNqba9MFgY6O0SVU4iO1BwLRiUqv0gl5ATjzk28aa2FBTE2vsL8IJxYMxTeqfHnywkQcPih5AbdIKaSNWaMGmrehFbNKWnvx9duez+8zOzu6z+zz7PDzC+3WAmdnZmX1m573z+czuzhY/e/asKDuGh4dv3bo1NTX133//UYBS7t27R1GxFYDZorS0dP369RSgv4sWLRLRmpoasTUzMhdMf39/b29vIpEoKyvbuHHjsmXLSkpKKECbKioqKFFkA2C2mJ6epqs5BegvhZ8+fUoBora2dvv27Q0NDdRjRc4QkGBC8fDhwz179pBYqdbu7m6K8gYAngeePHly9uzZ3bt3k1ro7507d3hDMEIIhmr65JNPVq1adfr0aQpzKgDPLaQcMtJINhMTE5yUjgU80PgyMzPzxRdfVFZWkiE4OjoqRhjeBsBzixhhyDyrq6trb28ns403eJNeMOS+U3Fk/1HRNMJkYvYBUMAI2axcuXLLli3k4XCqFzzSeEAFkR9/8+ZNjgMwdyHDrKam5uLFixzX4TdLlkgkjh49SnYe+S2cBMCchqyyvXv3bt68OR6Pc5ITT8F0dnbeuHGD1AIbDMw3hD9z+vRpjkvofRgaW0gtNDZBLWAecvz4cXJpPvvsM45LaEYY8ntaW1sHBgagFjCf2bFjR1NTU0NDA8dNVMFMTU1RPvgtAMzMzGzZsqW7u1s8XyNwmGSUo7GxkcYjqAUAsrBo5Ni7d698f8YhGHL0N5pwHID5DY0cLS0tBw4c4LhskpExtmnTptHRUbguAMhUVlaePn1aGGapEebo0aNtbW1QCwAKHR0dhw4dEmEeYTC8AOCDPcjwCNPe3n7kyBGoBQAt3d3dra2tFDBGmJmZmeXLlz98+BCCAcCLV155ZWBgwBhh+vv7a2pqoBYAfGhoaEgkEoZgent7t2/fLlIBAFpII6QUwyRbvHjxxMQE3gkDwB9SyoLr16+T7w+1AJAWssoWDA8Py4/KAAC8WLdu3YJHjx4tW7aMEwAA3pSVlRXv2bNn8+bN9JfTsuPx48e//vrr5OTkH3/8IVIqKytXrFixevVqEfVB7Pvjjz/+9ddfnFRURDu+/PLLpGyOeyD2/eeffyi8ZMkSsjVpL7EpLbTv9PT077//LqKxWCz4vgG5f//+zz//TH9FdOHCha+//nraZ/YoPx3VnTt3OG62BjVF5IcHAkL+S1FNTc3AwAC5/lny4MGDL7/8kgt2sW/fPrL9OKsL/30FZ8+epW7NOzih3TmTxLvvvkuDJ+fw5tKlS7yDBCXy5qyhY6DfzuU6oSP0apOrV6/SVs7ngtoqyE8DkTMxMWGsUjk6OsoJmaLtdm60/YOUwJvT4aUB6l6cwwn1VM7hAZXGWZ1Qj+Qc2aFVsoK7TXp6enibN9QUnBvkkX///ddYfzbLVfmC93jKyftYBN9XoNWMl2AI/yuxl86jEozPKCGjjJycmg53Y4I8sIDOVjZzyiMjI42NjRwxoV5CHZFMdrq+EhS2bRLbsRFcu3ZN2VdYbrQXHRn1dSpEMdW+/fbbjo4Ojnggm0C3b9/mkI5Tp05xyDxsDkXEuXPn6Gg5IvVvavCDBw9yqkkymeSQhGgKW0sUVo7w66+/5hDIM+KUZIZyFqkraD2NmzdvUk4aCjhu9htlX69LJvUVzmGhmDHKCCOPGz5WGamRM5nZZGVGMsLIv85doPLbOdWE2kH5gQJ3O/AGkEeyaneSgXniGOoEWrUIlE1KL/fvo4rlRrLkDSZKUYpnQsLgfE5kV4F+SLSCkdVIuAWg/CIxqKaFc1twKsgjjleUw3LmzBkOmcTj8UWLFnHEhbLpm2++4ZDJzp07OaSjrq6OQyaHDx/mkI6lS5fKNs8PP/zAISfNzc0cKipas2YNhyLCnqQWuNdIUGr8888/OeTN06dPOQRmj8wFQ+fvxIkTHDF58803OZQOZV+yiPzvLZDYFLv/t99+45CObdu2ccjD1hcffhJQyT46zwz55gnhLn/x4sUcMhF3kPz5/vvvOWQSZDINRE7mglEsn1DdTtn3jTfe4JA3b731FodMxsfHOaRDvn6T5z0yMsIRi8uXL3OoqOj999/nUG5Q3BWB8jLFL7/8wiEPSOHvvPMOR0zwgPmskLlgFKsj1FSbsu+rr77KIW9efPFFDgVAGZG+++47Dpk8fvxYNurSPkaQAR999BGHioo2b97MIQmyGzlkIj/cIDh16tT/Wbz33nubNm3iDaYCyUdSSgD5ISsfRqayspJDhYFslZG7IjsA8lxzYRo2ZHDSMZPqBMr09KVLl4I8agRyQWSCKTQUr3p0dJRDztsviqVX+DQ2Nra2tso+GMgnkQnm77//5lBhoFhlttNy//59+4JNtk0u7LHsoYP/0kKZ7SBOnDhBFtq5c+c4DvJIZIKxH8UtHGRvnpwWcl0ocOPGDZFCfPjhhxzKJdMBPgS3cOFCDpmQYP5n8fnnnz8zb+woyqGh5tq1axwB+SJzwSxZsoRDJv7TVgorVqzgkIkyCatFyROLxTjkjTJ6CNdFvv0SZHYuM2hk4JDHXSOhXpu00x7ktJBy5Kd+COVeFsgDmQtm+fLlHDIhOyH4nTVlSk2+6nuh5An4Tojs0/f19cmmP3W+WXSdZ2ZmOGTywgsvcMiXpqYmDpmEanMQCZkLZunSpcodBu1DhFqUfcmp8LfoRkZG5Jkit1nvhezTC9OfI0VF9fX1HMoBihTdt1mVW/svvfQSh3xxZ4Ng8kxWPoziA5BV7XMDnjbJW5V9v/rqKw65oD7x6aefcsQk+K1GH59+w4YNHMoBygDotlcHBwc5ZM49BBww3Xdg8fblLCCeKssArTvr/uTyo0ePhGlElj0n6V6uonHD/ewmZVMMd4ryNgvl4UtOtdDeaXEXInsd8nFmhtIyJAneYKI8mik/pk2bqHb6y3EJakZlSKcW420gXxjtzsGMUDqrgM4rnXWB3N0pyruZaLsy5aEyiUuXLmlNL+o3vL+FcgycauF+Kp5wq5rq5W1RCIZQfh21Ax0nKUF++0AgXybs30L5SUhGQ5ho20r7FgDIKUa7czBTlCfVfaCzzvtYBPdGBNouQv2JN5twqgRvkHAPZZELhqpQBgQtpB/ewUT5LT7I4xLIG0bTczAL3FdNN9R73IMDob12uqErrtdLI2kFo0haa8lELhhCO7jJuDu98liqF1DLbGG0Pgezgy6odBa111RhjXA+HaQEH9lQ/3ZbUDJyv6QD4FQJKl8+MK2HIIvKPRJmDAlAlqINtYmXQeXTkgQdm9eFA+SBYjoH9E+cjEh4/PixfJNhkQlH0iGm0cScUtjlxQqZpybid61YsaK0tDTIs8aiJe29SkpKMCc260QvGADmMJE9SwbAfAAjjB+nTp1yv9qVlp07d8J2mqtAMH4UFxvtE5arV6++/fbbHAFzC5hkAIQAI4wft27dCrKei8LatWvxwv1cBYIBIAQwyQAIAQQDQAggGABCAMEAEAIIBoAQQDAAhACCASAEEAwAIYBgAAgBBANACLISTLKl2EV1dUtX0mPV2PFkV0t1NWe0sjrzjrvzeJRGOSmjWhpvdBC8TA1KNT4/T61G/wOZZJeVkQ6G07wYt/MWO/NGUggIzbNM6eNliqssRNSgqnOMM1mMddqbHXlTOces8lw093EWCymnf70hynQjHbJClbK3d06CMquNIf+AdIciZ3X+vEgKAaEwGpCD4RFnwdn+dg/Vn1tH36G81NvtfEavq2ru7BuzE/rsfujsDpSzytkNU1ldOQOWqZLSgFzTmHHMZmLq59k5HRUZWTtFXkKti5uOte5zJFw4r6Gua9QsCwGhMBqQg+HRCYZgccjpfMYyOFUppXGCJ5pqPQhQpi0CbR7aaldj5fSo16Mgq+lYvp5HInansq0d5EoiKQSEIhdOf/lr5vkbujtmRg3G7g4Z/9auTv+RCgUuLABR5kwei5sH3Nx30vHBcybWNjjYJn4K56zqPMMJCrG2M6I79yR0rkP5tg+MrT2Hu/Sujll61QfbfNstkkJAIHI4S1b1WjmH7C7qdUqjYPzyhUxF6SKZMFdJq+r8WCcXGSunT2+Mie7soZhY20Hjsj904bKmZUTp6bt6JIWAIORAMLqey2e0aCheHmaKKlWYrD4N48mWJr7Sp+3j6cscv/+T+T+99jinf2+MrV5r/v/pvvaH1zWYnT1+TNXTeNdho6s3H9SPXQ4iKQSkJ2LBjCe7qsvNntvc5+y5dSfZmh/qqS835kE9J59lrL6tOd9iuteguLi4vL5nyHS5LUvJB58yGTYg04jUIJipmcYEFJ3dNQLxcTY3pL0CGERSCAgEuzPhsZxnFd08qok9x8R4ZhT4+tO2N51CmTnT4lsmw7/LZ07AIlhOrlOu0ul+azIoOdSoSSSFgFBEMsJUmXCEVHDw4zr9FTcWqzs5SKfWmm81RptqL7cm2WKNVdphgxxv/g1UoChxyLc8gzRlOvEwoXIAuzmyDxLe84ikEBAA7nXhcV2w7Kt+gItz6oaI7ooXZCBQEYfjvU/gMrmgAHXrrupuuDy5UdSmUwriqLSHq62JSAoBoYjWh6GrvjgnAabDYnXWhKs8/2wyzo4QWVgBBgKbuo89yjMIUyb7HPpJJwfsz2trtLFmBvxcImueS3jtGXoekRQCfIl8lox7rWa+xo12+sjq2YbZpL0JkgEhy7QmggMoxpov104ZC6w7NWkMI8lr5xsnASb8VCIpBKSBB5vweIzwItlhgehhm8FtNATZ2Y1VnHpAmZRp7aM3X6gmGqlEOFW61tDxqFwkO0vnrOwOKjV775BlISAURgNyMDxe7W+dNHsDJVAPkx+00rowvJ9X37MxijNK46hJqjxn1wxapgtrR2dVqXk+uxpLp0ZOxy+UpgRdWhWlK02XKsm9h26HSAoBoTAakIPh8Wx/66RZJ0xk1GFfqJ1nWkeqHjmnY4LOUZ5B8DI1jKWenVQJU40hI86XQt90qXLUrq7dIZJCQChycKefUJ8GqTtpzPs2yz2bh5yM3JRY2yCVR92ZyhsyoDQewSJze4hY28lBc5iQjltU80ypxpjiVnPKeYNOXMS2iQcisvI8IikEeIC1lQEIQW5GGADmKBAMACGAYAAIAQQDQAggGABCAMEAEAIIBoAQQDAAhACCASAEEAwAIYBgAAgBBANACHIqGLFifKh1yAAoaHIpGPFSeXND4KfbASh0shGM+DyM59dGxEvl1hoM7m/J+HxqJUt0360hrAWYxMDnfeBiu+9yTWC+krsRRqyJpaxZUlXVzFRVDQ31xOvLc/h5H/NlTAlrfUp+vc1r4QoxMGIxL+CFePcyPOKFV9d7sAJ1oyaz9S6tRwmZY9blVyrXrM0ituE1XqAlVyOMOb6keUk2xguT+a1RlBt8xhiML8CP3AhGLBlfwL3OUzHQC/AlJ4IJ3OvE4veeS0Imu1o86Uo3Kv10mHNSVveXWT0UwxN7+DYE8IGts9B4+TBaL8Dbh/F0FywfR4ufkyHqUlBWRtL6MV6/CADG6CAcDI1H9xI9UU0WmaVZMiNqpOTGu5YKTS2ol07D0AtIh9FDOBgaff/y6HUiWYJX7coTXL3zsJRD9ThyAFJE7sNob7/YSL1xcPBkW/6eAeBVup2ffBGJlh/jf+QAGEQtmCh7Hd+R15PZjXjl23qyYqAXEIBsVr5MthTX9xiDRmrdVDOJXAX3J1g0mdOS7GpJ3OWwymsNNEBxOACieveR2ekH75aHPj4wPxEmUnhcNr92eozJm4NAB6Eu/01ev1G59sjEpqpm45/+yAFIEaVJVjA3/awPNZtUVxvfWDY0of30mLDKhnqMHLhdCYLA2gmNMmj4jS95nYIaMz4V4F5x3wu+IYPxBQQgutX7xWfx4ASAOU1kJhk/VIJJJjCniUow0AuYF+CDSgCEIPI7/QDMZSAYAEIAwQAQAggGgBBAMACEAIIBIAQQDAAhgGAACAEEA0AIIBgAQpCNYJL+i5E/l4wnu4w3aCw81ks3c3EWylSdgy962O9nz632nROYz/lnQB5fcckPffxmjPEKjfQ+jfIL7fdnxJJRnC/it2msSog51MBzAOOMcDA0c08wzc5XzexeK/1GTpNfguakKCUjiiQ5iro4Fcw+xgnhYGjmnGDcuLQgfrOqDZEtOsWwXvrmQxM/Z0Tq9Jt2t7H+kWzj2wb+eFJKcy2SNG5stv0C42NLcg626J32/Cz4UOP3f6K/rpf/Y6vX0t+hC5f5l2bRDgapl4t4HajD2mxglmDthMZ1+TMvjGTZi6uyZOA3d3aKK7ORyN6BfD22nAfLLXDn4Mqk2tJcfPs6zaK0dAa+Yqu1elXqHGIybgeBo5KoBy+QHcap4WBoXL1HnFwzzTq/dpJ8zsWOjgRlnQrezdEzHZ3Xq+dapOrVELj7qQeqOywT5wa78rDtYGKmqnUGPmSQW4wzxsHQuDqt7tw6uxIjEr27u0cOq4P1uWrOCaKWdD9Q4DiirNrBLEne17tSkH9ycOPSuRyrMO+1n4BxLnRMpvt4kmx+wTHDilepO2n0pqF4vbHOWHNfTpenIU/DqEVXzdDdMQ75klk7iE+3yU6S+JTNUPwYbsgUAAVyp3/ccI7Ly+vr4z2MRi8EOcHmhZo6ck7X20i2iMX/OsccchG9XgNPBnh9GSo4YoXnogvH+MJhcEwsl6v7wCDINwUhGOqecVII2Vq22cEWjILxKUBWUk+97/SYfaNcR5qFzJMt1awW3VKZhDo0Wp9SU5Y6D4/41CENJ0N82WDEb4ZiCoAFJSUlMzMzHJsd+PLceSbN5y/Gu5rihqzGhJ3vO9kaW/2BMTul5wOfjm2qxazFZ2FZ1SYT40LWAwyvtavxVsT1A4opAFatWjUxMcHnJRwOR9dA58O6nVjC6ce6vVpr9XC5KB5zOElk0PWtbOBPlfkVm/bIiMjaIYWrDjA7LCDBTE5OGidj1rC82vJqc/1wa/VwB2J0oQ7DPoXl/zdFeEvPcPOF8XOhqVrBtv9ExWQRGjdX+WgdR5Yxvmu5x9oOmtXiFuZsQkpZUFZWNjU1xQmzRKxtcKyTLu7CdCd7qLnPGmME48ljrk5Z97Fx0TUmjyLvQkNuJLel7qS52Ll1tENV5tc1spWLv14ItgatpwnALEBKKY7H4ytXrqS/nAYA8CCRSCxYtmzZo0ePOAEA4A2NMIXgwwDwfPDgwYPiJ0+erFmzZmJioqSkhJMBADpIKQtKS0srKipu3brFaQAAHWSIzczMGHf6d+3adf78eZEKANBy7ty53bt3G4Kpra3t7+8XqQAALVeuXNm6dashGPL7y8rKYJUB4MXU1NS9e/dqamr44cv9+/cfPXpUhAEACqQO0ggFWDANDQ3k0MAwA8DN8PAw2V/79u2jcPEz6wOXlLp37947d+6IKABAsGPHjqamJhpUKMwjDLF+/XpyZhKJBMcBAOZAMjk5KdRCpARDHDlyhGy16elpjgMwvyE/pb29vbu7m+OKYCoqKjo6OhobGzkOwPyG1LJr166NGzdyXBEMUVtbu3XrVsrHcQDmK52dnSUlJcLXt1EFQ8TjcRqJTpw4wXEA5h/Xr1/v7e09fvw4xy00giEo35UrV6AZMD8htRw6dOjixYscl0hNKysId4eGJLfIAJjD0Dhx/vx5UktpaSknSehHGIKk0t3dvXLlyi1btmDeDMwHaJBobW0dGRkZGBjQqoXwFIyA/JmOjg7SDB4CAHOb4eHhurq6devWyZPIbjxNMpnJyUlSHunvyJEj8hQbAHMA6t4HDhy4d+8eSSV99zbWWgoGjVNUXENDQ6brmAFQWDx8+JBsqIqKirNnz3JSOgKNMDKJRKK9vZ0svF27dpF4qDLeAMBzwtTUFHXj3t5eMsP279+/b9++4O/nhxaMgGo6f/68ePCstrZ2w4YNZWVlVCsMNlCAUHedNqEA6YQEQ9f67du3U9flHIHJUDA2ZPn19/ffvn2bDoKcHLyFBgqQ9evXk01EkE9PUqEobwhPtoIBYF6RZloZAJCiqOj/AYqAnOh4y8IKAAAAAElFTkSuQmCC;" parent="1" vertex="1">
          <mxGeometry x="287.995" y="525" width="127.99" height="80" as="geometry" />
        </mxCell>
        <mxCell id="hwo8MQYsUWOJR3LI0rIK-7" value="&lt;font style=&quot;font-size: 18px;&quot;&gt;34 PIN CONNECTOR&lt;/font&gt;" style="rounded=1;whiteSpace=wrap;html=1;" parent="1" vertex="1">
          <mxGeometry x="35" y="200" width="120" height="290" as="geometry" />
        </mxCell>
        <mxCell id="hwo8MQYsUWOJR3LI0rIK-8" value="&lt;font style=&quot;font-size: 12px;&quot;&gt;4 PIN CONNECTOR&lt;/font&gt;" style="rounded=1;whiteSpace=wrap;html=1;" parent="1" vertex="1">
          <mxGeometry x="37.5" y="585" width="115" height="90" as="geometry" />
        </mxCell>
        <mxCell id="hwo8MQYsUWOJR3LI0rIK-9" value="&lt;font style=&quot;font-size: 12px;&quot;&gt;4 PIN CONNECTOR&lt;/font&gt;" style="rounded=1;whiteSpace=wrap;html=1;" parent="1" vertex="1">
          <mxGeometry x="37.5" y="685" width="115" height="90" as="geometry" />
        </mxCell>
        <mxCell id="hwo8MQYsUWOJR3LI0rIK-11" value="" style="shape=image;aspect=fixed;image=data:image/jpg,/9j/4AAQSkZJRgABAQEAYABgAAD/4QAiRXhpZgAATU0AKgAAAAgAAQESAAMAAAABAAEAAAAAAAD/2wBDAAIBAQIBAQICAgICAgICAwUDAwMDAwYEBAMFBwYHBwcGBwcICQsJCAgKCAcHCg0KCgsMDAwMBwkODw0MDgsMDAz/2wBDAQICAgMDAwYDAwYMCAcIDAwMDAwMDAwMDAwMDAwMDAwMDAwMDAwMDAwMDAwMDAwMDAwMDAwMDAwMDAwMDAwMDAz/wAARCADLARYDASIAAhEBAxEB/8QAHwAAAQUBAQEBAQEAAAAAAAAAAAECAwQFBgcICQoL/8QAtRAAAgEDAwIEAwUFBAQAAAF9AQIDAAQRBRIhMUEGE1FhByJxFDKBkaEII0KxwRVS0fAkM2JyggkKFhcYGRolJicoKSo0NTY3ODk6Q0RFRkdISUpTVFVWV1hZWmNkZWZnaGlqc3R1dnd4eXqDhIWGh4iJipKTlJWWl5iZmqKjpKWmp6ipqrKztLW2t7i5usLDxMXGx8jJytLT1NXW19jZ2uHi4+Tl5ufo6erx8vP09fb3+Pn6/8QAHwEAAwEBAQEBAQEBAQAAAAAAAAECAwQFBgcICQoL/8QAtREAAgECBAQDBAcFBAQAAQJ3AAECAxEEBSExBhJBUQdhcRMiMoEIFEKRobHBCSMzUvAVYnLRChYkNOEl8RcYGRomJygpKjU2Nzg5OkNERUZHSElKU1RVVldYWVpjZGVmZ2hpanN0dXZ3eHl6goOEhYaHiImKkpOUlZaXmJmaoqOkpaanqKmqsrO0tba3uLm6wsPExcbHyMnK0tPU1dbX2Nna4uPk5ebn6Onq8vP09fb3+Pn6/9oADAMBAAIRAxEAPwD9/K5f4v8Axl8O/Arwa2ueJL5rS1MyWttDDC9xd6jcvkR21tBGGknnkIwkUas7HoODR8Zfi/o3wK+Hl94k1xrg2tqY4Yba1i8671G5lcRwWtvGOZJ5pWSONByzuo461w/wM+BmqXviaP4k/EpILz4jXkTrZ2Sy+fY+CrWTGbCy4AL7Qonucb7hweVhWKGMA5/b8cv2kf30N4PgB4Uf/Ur9ls9a8YXin+NxIJtPsPUIUvWOVLGIhoyf8O1vhxr/AO+8YXvxC+ImoPzNdeJPGmp3KSn2tY5o7SMdfligRRk8cmvoCigD5/8A+HUP7L8vzXH7O3wR1CXvPf8AgnTrydvrJLCznHQZPA4FH/Dp39ln/o2n9n//AMN5pH/yPX0BRQB8/wD/AA6d/ZZ/6Np/Z/8A/DeaR/8AI9H/AA6d/ZZ/6Np/Z/8A/DeaR/8AI9fQFFAHz/8A8Onf2Wf+jaf2f/8Aw3mkf/I9H/Dp39ln/o2n9n//AMN5pH/yPX0BRQB8/wD/AA6d/ZZ/6Np/Z/8A/DeaR/8AI9H/AA6d/ZZ/6Np/Z/8A/DeaR/8AI9fQFFAHz/8A8Onf2Wf+jaf2f/8Aw3mkf/I9H/Dp39ln/o2n9n//AMN5pH/yPX0BRQB8/wD/AA6d/ZZ/6Np/Z/8A/DeaR/8AI9H/AA6d/ZZ/6Np/Z/8A/DeaR/8AI9fQFFAHz/8A8Onf2Wf+jaf2f/8Aw3mkf/I9H/Dp39ln/o2n9n//AMN5pH/yPX0BRQB8/wD/AA6d/ZZ/6Np/Z/8A/DeaR/8AI9H/AA6d/ZZ/6Np/Z/8A/DeaR/8AI9fQFFAHz/8A8Onf2Wf+jaf2f/8Aw3mkf/I9H/Dp39ln/o2n9n//AMN5pH/yPX0BRQB8/wD/AA6d/ZZ/6Np/Z/8A/DeaR/8AI9H/AA6d/ZZ/6Np/Z/8A/DeaR/8AI9fQFFAHz/8A8Onf2Wf+jaf2f/8Aw3mkf/I9H/Dp39ln/o2n9n//AMN5pH/yPX0BRQB8/wD/AA6d/ZZ/6Np/Z/8A/DeaR/8AI9H/AA6d/ZZ/6Np/Z/8A/DeaR/8AI9fQFFAHz/8A8Onf2Wf+jaf2f/8Aw3mkf/I9H/Dp/wDZcXmP9m/4E20g+7Lb+A9LgmjPZkdIAysOzKQQeQa+gKKAPn//AIdjfB/Sv3nhzSfE/ga6TmGfwp4u1bRPIPYiO2uUiYDnCOjJgsCpVmBP+Fd/HD9n/wD0rw540X41aDD/AKzQfF0NrpuuCP8A6ddTtYooHZRkLHdW+ZPl33MZDO30BRQBwnwP/aF0P47WWoR2Vvquh+INDdIdZ8Pazbi11bRZHBKCaIMylHAYpNEzwyhSY5HAJru683+PH7PsfxRmsvEWhXw8MfEbw7E40LxDFGWaEMQzWtygK/abKVlXzbdjg4DoY5UjlS1+z18cR8afC14uoaefD/jDw3c/2X4l0J5fNfSL1UVyFfA8yCRGSWGXAEkUiNhSWRQDvqKKKAPn+H/jJL9uG+jn/eeFPgD5MccJ5S88TX1mJjI46f6HptzDs9W1SQkAxIa+gK+f/wDgml/xP/2ZpPGE37zUPiN4n1zxTdTf89luNSuBaj/djs47WFf9iFOSeT9AUAFFY/xC+IOh/CbwJrHijxNqljofh7w/Zy6hqWoXkoit7K3iQvJK7HgKqgkn2r8Xfid/wd3+IPi18X9U8M/sw/s1+Lvi5p+lgk6jKt09zdKHZfNWytYZXjhYBSrSOrndhkQjFAH7dUV+a3/BJP8A4L+6v+3r+01f/BH4pfBHxP8ABj4oWmkza1Bb3jSfZ7uCIxq4aO4jinhkJdio2upVG+cEYPoP/BYb/gvZ8K/+CROm2Oj6tZXnjj4la5atd6d4W024SFoYsMEnvJmz9nhd1KqQjuxDFUIViAD7oor8KdY/4Ok/2rvCvhKTxpq37DfijT/AUMRvJNVuLbWILSO22hvMN41p5IUKQd5G3Bz3r9Dv+CQX/Bav4af8Fe/hrfXnhq1ufCnjjw7HG+veFL64We4sQ2AJoZVCie3LZUSbEOQNyISAQD7Ior8qf+Czn/ByHrX/AASz/bM0f4Q6B8G7f4hXWpaHZ6v9rk16S0llkuZ54lt4oUt5CT+5GG3EsXxt4y31R/wR4/4Kq+Hf+Cun7KT/ABE0fQbjwnquk6pJouuaJNdC7+wXSRxygpNsTzI3jlRlbYvO5cZU0AfV1FfPH/BUz/goboX/AAS8/Yv8TfFzXNKl8QSaS8FlpmjxXS2smrXs8gSKESMDsUfNI7BWKxxuQrEBT8Q/8Ecf+Dl7Wf8AgqL+2kPhHrXwZtfAYutDudattQi8QPeOoiEbqrRPbx7leOQMHDDscENkAH6y0UUUAFFfOX/BUP8A4KaeA/8AglR+zFdfEjxxHeao011HpujaJYPGt5rV4+SI03kKqKqs7uc7UQ4DMVRvyuvv+DtD9oHwX4R0n4jeKP2M/EGkfCHVpIXg1+WTUoLO5glI2GG/ktBbSMwztIGGPA9aAP3eor59/Z+/4KX/AAw/aM/4J9P+0pot7qMPw7sdAvvEGqCe1P27SksUle9gkiXJMsRhkGELB9oKFlZWP5Q/E7/g8B+KGtaTqPjD4Z/so69efC3T2Zf+Ek1qe7eFgpClpZLeA28BDZBXzZMHHzdqAP3gor8/f+CIv/BfXwf/AMFhLPXvD8nhuTwH8TPC1oNRvtDa+F5BeWZlEX2q2l2ozKrPErqyAo0qDLAg1+gVABRRRQAUUUUAFFFFABRRRQAUUUUAFFFFABXz/wDtIf8AGPX7QXgn4tWf7vS/EV7Y/D/xlEOFngvboRaVeH1kt9QnSEZwPJ1K4JyUQD6Ary39t34bf8Le/Y9+J3h1TKl1qXhq+FlNF/rbW7WB3t5o/SSOZY5FODhkHWgD1KiuR+AHxJ/4XL8B/BPjDEQ/4SrQLHWMRfcH2i3jm+X2+fiigDy3/glB8/8AwS8/ZzmPMl58M/Dt3M39+WXTLeSRj7s7sT7mvoCvn/8A4JO/8osv2af+yVeF/wD00WtfQFAH5M/8Hjnx+174Tf8ABLrR/DOi3LWlv8R/GFrpGrspIaWyignuzECCMbpoICeoKqwPWvZf+DZn9kjQv2YP+CSHw01Kys7T/hIPiVZnxXrV+kISa7a5dmt0Y5JIit/KQc4yrHCliK8v/wCDvj9mHXPj3/wStj8R6DbXF7J8K/E1t4j1C3ghaaRrBoZrWaQBeQIzcRyM2MLHHIxwASMb/g2J/wCCvfwu+Ln/AAT88J/CPxV4y0Hwv8SPhXbPpMlhq12lj/amnrI7WtzbNI22ULEVikVTuRoiSqo8ZYA/Va78E6Nf+LbPX59J02bXNOt5LW11B7ZGuraGQqZI0kI3KrFFJAODtGa/nB/4J7+GLb/gph/wdc/EjX/iRHDrVn4D1zXtWsNOuYxLblNLnFjp8TI+4YizDLxgGSLd3IP70eGv+CivwT8c/tNWPwd8O/Ebw14m+Il7ZXGonSdGuhqBs4YFRnM8kO6OFsSIVSRlZgcgEAkfz8/Bj4sWf/BFD/g6W+IF38TJTo/gnxdrmrx3Gr3FvIsMGmaw5vLW6U4JaNJTDHI65A8ubn5SKAP6bbi3ju7eSGaNJYpVKOjruV1PBBHcH0r+af8AYf8AA9t+wF/wd9al8PPALHTfCOpeINV0t9OiRI4UsL3S5L9bRVVQFigmMJQDBxbxgk85/oB8dft5fBX4bfBhviJrPxV8AWvgn7Kt5HrA122ktbmNwNhiZXPml8gKqZLEgAEmvwT/AOCMtvqn/BWb/g5a8dftJaTp9zZeA/Bt/feIZZZI8ERS2sum6XA5BG2aRAJiMHi2lHvQB0P/AAXS0+DV/wDg6u/ZgtLqGO4trrUvAsM0TjKyI2vSBlI9CCRXR/8ABBjxP/w6s/4L3fHr9krVJ2tfDfjS7nXw1CbiWZFktla/0/OQQHk0yZ97NjLxou5jtzhf8FwP+Vr79ln/ALC3gP8A9SB66v8A4Ox/hnrX7G/7dn7Ov7Xng23ukvdPu4dL1J4p1gia80+f7XaI5A3k3ED3MTH5lMdqFIGcOAbn/BzB4u1H/god/wAFPf2a/wBi3wzd3gtZtSh1nxObUw/6O12dolJbJElpp8V3PtxhluRw52gcv/wTj8N2Pg3/AIPAPjBo+mW0VnpulabqlnaW8S7Ugijs7NERQOAAoAA9q1v+DYzQNe/4KNf8FP8A9oj9s7xpp81vI9xJpmiRM6TQ2c15z9mSTYpY2lhDbwB9qlknBOSTiv8AsFf8rknxx/699Y/9JrSgD98qKKKAP54P+Dx7xfdfGv8Ab4/Zy+CNteXNl5mkjUN8gzaJJquo/Yo5CA2WZPsL5+UYVhhjuIX9ff8Agrz8MtJ1L/gj5+0F4fFjbf2Xo/wy1ie1t2QeXD9isJJ4NoxwUaBCvoVFfkN/wel/DfVPhn+1F+z58ZtDtbq11AaZcaONXSJpIra4sLtby0Rt2Yg266ndQVy4V87gmF/SX/grn/wUV+Ew/wCCJfxQ8a2vjjw7cab8VPAd5onhtYL2OabU7rU7J4YoI4wSzSKJSzrjMaxyM20IxAB8j/8ABlldW/jT/gnv8aPCWqWsN/o7eNWe4trhRJBcJdabbRSoyEYKssABB4IOK/UD9ub42fD/APYl/YR+IHirxRZ6VYeB/Cvhu4h/sqOKKGC8DRGKGwhiJVN0zskKJwCXA4Ffm7/waH+DLf8AZg/4JH/EH4seNbqz8P8AhbxB4j1DXv7SuXKxQ6Xp9skMtw56BUlhuxxn/Vn6V8fftL/tOeJv+DpP9vq3+Hui+LNP+Fn7L/w1u01Ca91q8gtJph88X20xSMPMu5lMqQxciJGYsRl8gGr/AMGUf7KfiPWP2mvib8bHia38I6F4efwdFKycXt/cz2t06Ic/8sordCwx/wAvEfNf0eV4n+xl4U+CP7Mfwe8K/CP4Sa14Nh0XQLU22n6dYatb3F1dMAXlmcI26WZyHkkfGSSzGvbKACiiigAooooAKKKKACiiigAooooAKKKKACmzRLcRNHIqyRyAqysMhgeoIp1FAHgP/BKOZrj/AIJb/s1ySM0kknwr8MMzMclidItckmim/wDBJ3/lFl+zT/2Srwv/AOmi1ooAP+CTv/KLL9mn/slXhf8A9NFrX0BXz/8A8Enf+UWX7NP/AGSrwv8A+mi1r6AoAhv7CDVbGa1uoYbm1uY2imhlQPHKjDDKyngggkEHgg1+XP7R/wDwaEfsn/HXx9ca9on/AAn/AMMftksk1xpvhjVIf7PZ3bcSkV1BOYlBJwkbLGoOFUAAD9TKKAPi3/gmT/wQU+AP/BKvxHceJPAdh4h17xtd2sljJ4j8RX4ubxLd2DNFGkSRwRqcKCVjDkKAWPOe8/4KN/8ABJL4I/8ABUzwbZ6b8VvDc0+qaRHJHpPiDS7j7Hq+khwQfLmwyuuTu8uZJItwBKE19LUUAfjv4c/4MrP2a9K8TQ3V/wDED4z6ppsMiSGxfUNOh88DBKPIlmG2t0Oza2DwwODX6bfsifsW/DD9g/4RW/gf4UeD9L8H+Hon8+WO1UtNfT7VQz3EzEyTSlUUF5GJwoHAAA9SooA+Of2n/wDgiF8I/wBrT/goX4B/aU8T6x4+g8cfDmTS5tN0/T9QtYtInfT7p7q3aaNrdpm/eN8wWZQQoGBzn1T/AIKHf8E9fh5/wU4/ZtvPhf8AEqHUv7DuLyHUra80ySKLUNMuotwSe3kkjkVH2PIhJQ5SV1Iwxr3KigDwT/gnB/wTk+Hn/BLj9m2H4YfDc61c6P8A2jcatdX+sSwzajqNzMVBkmeGKJGKxpFEuEGEiQHJBJ4L4Tf8EY/hb8Gv+Cl/iv8Aao0vWvHk3xC8YRXEV5p1zfWr6NF58cUbmOJbZZgcRAjdMwBZuMYA+uKKAPkdv+C8/wCx0jFf+GhvhxwccXzH/wBlpP8Ah/T+xz/0cN8Of/A5v/ia2W/4Io/sjs2f+GcvhBz6eGrb/wCJo/4cofsj/wDRuXwh/wDCbtv/AImgDU+KPww/Z/8A+C1f7HEml31xpfxN+F3iC5L2uoaZdyReVdW0pXzYJ0KukkcispxwRuVgysyn4R+H/wDwZf8A7MPhPx3balq3i74u+KNItZA50e91Szghuhg5SWW3to5dpPP7tozx1r9TPgh8BfBf7NPw7tfCPw/8L6L4P8L2Mkktvpek2q21rC0jl3KooABZiWOOpJNddQB5l8Q/2QvAfxB/ZJ1j4IDR00H4d6x4dl8Lf2do+20+w2MkJh2QYBCFVPBweRkg85/M7/iCp/ZZ/wCh+/aA/wDB5pH/AMrK/X6igD82/wBhX/g10/Z//wCCfX7VnhP4weDfF3xg1TxL4Ne5ksrXWtV06axlM9rNat5iQ2MUhwk7EbZF+YLnIyD+klFFABRRRQAUUUUAFFFFABRRRQAUUUUAFFFFABRRRQB8/wD/AASd/wCUWX7NP/ZKvC//AKaLWij/AIJO/wDKLL9mn/slXhf/ANNFrRQAf8Enf+UWX7NP/ZKvC/8A6aLWvoCvn/8A4JO/8osv2af+yVeF/wD00WtfQFAHM/Gb4z+Ff2ePhZrnjbxvrun+GfCnhu1a91LUr2TZDaxL3PdmJIVVUFmZlVQWIB+ItE/4OPfg3qlvH4guvhn+0lo/wlmc+V8Ur74cXS+DZIvM8tZxdKzSiJm4BMIIPBAPFcf/AMHGlovxZ8Sfsh/B7VpseC/il8Y9OtvElqWYR6lawbT9mkC8sjmUnHQMqHsCP0nbw/YNoH9lGxszpZt/shszCv2cw7dnl7Mbdm35duMY46VNPmlCdTtLlS9Ixk23586SttZt3ukqm4qUafePM32vKUUkv+3W22+qVla75L4z/tG+E/gP+zt4i+KmuakjeDPDeiS+ILi8tcTedapEZQ0XOHLrgIAfmLLzzXnn/BOj/go14D/4KcfAm68eeArPxJo9rpurXGiajpPiG1htdU0y6h2kpNFFLKq7ldGX5zkNzgggfMv/AAXe+JXhOTQfgH+zLqOveG/A/hf41eLbeLxFPeXkOm2dh4Y0gJeXcSuzLHF5hS2hQH5TuZQD25D9kX9oH4bfAL/gvj8QvBHgHxl4L8ReB/2nvC9t4p06Pw5rVpfW+neIdNjkiu4WSCRvLae2RpyWA3sDjJU40w9qlSVvhfMo97wSm2+6ceaPlOLXpnW5qdKLfxJRlLs4ylyJLzUrSf8Acd7n0j+3R/wWg+Dv/BOv9pr4b/C/4mR+KrC++JqCSy1q2s4JdI0xDP5Aa7kMyyxrvxkpE4AOSQAces/ty/tl+F/2AP2WPFHxe8Y2Ovap4a8JrbPd2+iwxTXsonuYrZPLWWSJDh5lJy6/KCRk4B+Cv+CpX7Lnhv8AbZ/4LSfDX4T+LYvM0Dx18EfEunTuFDSWsguklguI89JIZ44pV94wDkEg/OP7SH7WPifx5/wbvftKfAT4sXKf8Lw/Zru9H8I+Id9wZJNZsU1ix+wampfDuk0IA3tksUDnBkAHPh5udBN/G5N+sFWlTfzjaN+/Pf7LOunTi8ZCm/gcoRflKUIzWvaV5JdnH+8j91ND1ePX9Fs7+FZFhvoEuEDgBgrqGGcZGcH1r57/AG7f+Cp3wp/4J83/AIe0XxbP4i8R+PPGB2+HfBXhPSn1jxFruGCkw2yEADOQGkZAxRgpZlIr3P4af8k48P8A/YNt/wD0UtfnF/wS70S1+OP/AAXO/bj+JPiIRaj4k8C32j+CPD7TAu2j6cIJDKkJPyosrQRsQvOd/wDfOeqpT/2p0IuyipSffli4xsvNuUVd7K7s7WOChV/2SOInq3ypL+9JX18klJ9G3ZJq919Jfscf8Fb/AIe/tf8AxXk+Hs3hP4s/CP4lfYJNWtvCXxJ8KTeH9U1CyRgr3MAJeKRASMhZN+MnbgEjm/2kP+C4fwp+Bfxr1j4b+F/Cfxh+O/j7wu6x+INE+FfhGXxFNoBIyBcyb44VbggqrsysCGCkED6R/aHni8K/CfxF4vt9Ksb/AMReDtE1HUdHmltllntphayEiJiCyl8BTt+8Dg5HFfHf/Bsv8N9L8J/8Ehfh94kt2+2+IPiRdaj4n8R6nIQ9zqeoS3s0byTP1dgkSJliT8tZw/eSktlBRv5uTly27K0Jc2+trWvptJ8iXNq5t28lFLmb7u8ly2to9b8vvey/sK/8FZPhP+374o1vwr4bPirwh8RvDEIudZ8D+M9HfRvEWlxEqPMe3YsrIC6AtG7hfMTdjcueZ+Mf/BbP4O/Ab/go14f/AGZfE1r4zsfGniRrGC11n+z4W0FLm9Vja20kwm85ZJWXYP3JXcwywAYjw/8A4Kp+G7f4ef8ABbL9gvx5oKw2PivxBq+ueFdUkijHnalphtUYpJjlki8+YjIIUy547+C/8FAf2Rrz9s7/AIKb/tn+GtBZ7fxtofwo8LeKPCV3E5jmtNX0+Y3Ns0bDlWco0WewlNZPEQSo1pL3eacZrranCU24+sVFq/2rxempcqMm504vVxg4N7JzqKmubyUr3t9mz30P2oJwK+Rv2K/+C0vwj/b2/a18dfB/wHp/jVtY8CW1zevrN/p8EWja1Bb3gspJbKZJ3klTzsgM0aAhWweMV4p8bP8Agrnd/Ez/AIIQeF/ix4N/5Kr8atPtPAvh3T7Y7Zk8UXrmwmSJc7swzLcSr1O2JSRziuB/4Jw/ss6b+xN/wXAsfhXpbLNB4L/Zk0qxmnH/AC93P9ss9xOeBzJM0j/8CrrhRaxcqNTaLlHTrJU51Lp9oqMfVVE+mvNUrf7KqkVaT5Za9IupCFmu7cpLycGfUnwp/wCC2fwd+LP/AAUe8Rfsu29r4z0n4iaDcXdnFealp8Mekaxc2sSzTwWsyTPI0ixEviSOMEIeclQ31d4r8U6f4H8L6lrWr3lvp+k6Pay3t7dTttitoY0LySMeyqqkk+gr8G/jl8Kdcj8X/ttfHTwPCrfEL9mX49WXxA0s7mU3NlDZqmo2rFefLktizOO4hxkZNfbv/BWz9qdP2uf2Mfg38J/hVqky61+2hd2OmadcQt/pFh4deJLzVLtgpJAS0/dvwR++Yds1x05VKuDpyp29rJU1rterCMoyfaN3JPeypyl5LokowxM1Uv7NOo/NKnKUZrzaSjJec0tbHtv/AATI/wCCvvwz/wCCrkPjeT4d6J480UeBJrNLweJtNgsmu47uOSSCaARzykxukZYF9hwynGDX1VX5u/8ABHbwFpfwq/4Kift0+F9Dtls9F8Oaj4N0ywgXpDBDohjjX8FUCv0irsqqFoSp3tKEJa7+9FP9TnpynzTjU3jKS08m0FFFFYmwUUUUAFFFFABRRRQAUUUUAFFFFABRRRQB8/8A/BJ3/lFl+zT/ANkq8L/+mi1oo/4JO/8AKLL9mn/slXhf/wBNFrRQAf8ABJ3/AJRZfs0/9kq8L/8Apota+gK+f/8Agk7/AMosv2af+yVeF/8A00WtfQFAHyx/wVx/4Jyyf8FH/wBmyw0XQfEEfg/4keBtbtfFfgjxDJGZI9L1S2bKeYoBJidSynAO07H2ts2N4xpP7TH/AAUa8UeHR4Gk/Zj+E/hjxYY/scnxOvPiLBdeGQ44a8TSYka+wRkrGzcNjcMfLX6HUVMYW5o3fLJ3a87JXTVpJtJJ2a2XVXKlK9n1jon5Xvbs0m21dO133Z+efw4/4Jo+IP2l/wDgpp8QPiJ+038P/CfxC8G+EvA+i+CPA0/iKw03UrLX5lH2jU9VXT8yrau9zkKHVGVJCqgjNUv+Cm//AASXs/CXhH4Z/Ej9kj4J/Dbw58YfhT4707xFFbeGtI0rw5NrunjfFd2bznyIijJIGKyPghGAG4iv0ZorSMnF03HTkakraXanzu/rK90rKzsrKyUcqfOpaqS5XfXTk5NPSK0e99Xdnxv8WP2XfiB4y/4LW/Bb4xWfh1v+Ff8Ahf4c6xomr6i19ahrG9uJQ8UBh8zzXJH8UaMgxywr5h/4ONv+COnxS/bBmt/iJ+zvpdtqHjfxJpSeDvHeinULex/4SPSUuoLy1l33EkcPmW89uuSWDMjKBnZtP6zUVnGmkqaX/LtuS/7elKTT8nzyj/he99TSnUlCcqi3ly3/AO3VFJ+q5Iy/xK+2hm+DNLl0PwfpNjPt86zs4YJNpyNyoFOD9RX5/wD7Sv7EPx2/ZA/4KD+Jv2nP2X9D8L/EKH4mabbWHxD+Gusaoujy61Pb/LDe2N648mKYIACJflGZThzIAn6JUVVSUpVfbp2lrqrbPdO99H1Xo1qk1lSgoUfYbxslr5Wafqmt1+TaPkH9mDxz+1z+0v8AGWz1T4tfDHwP8APhTp9jdQX/AITHiOHxZr/ia5kQxxlru3Rbe3tU3b8J+9LIFOVY7fnX9nX4E/thf8EYrHXvhl8JvhH4X/ag+BUusXWpeC7dPGtt4U13wjBcSGaS0uWvEaKaMSO+0xlmJLOSocRJ+pFFG0uaGmln5q99b31T2as1qlZNp1vFwlqrpryaVtLW3W/frc+Af2WP2MPjn+0/+3hoX7TX7T2m+GPBFx4B0m50z4d/DbRNT/tYeG3uhtub29u1AimumjzGPJym3YflKYPdfBL9lfx54Q/4LY/G/wCLmo6D9n+HvjDwHoei6Rq3223f7Xd2zkzR+SshmTaP4nRVPYmvsSinopQcVZQ5rLp70ZKV73bvzye+9uisTKLkpqTu5ct3/hcZJLol7qVktr9Xc/J/9lX/AIItfEj4T/8ABYnXNc1sq/7LfgnxHqvxN8A2DXtvJGfEmqxW8UqG3B81VtdszRl1CoRGUYs8lfTPhj9lXx9p3/BeDxR8ZptB2fDXUfg9aeFbfWPttufM1JNTM7QeQJPPGIzu3mMJ23Z4r7HopUf3caUI7U00vO8ZQ17tRlZPtGN721dZe0lUlL7bTflaSnp2TknJrvKTVr6fFv8AwT2/Y18YfC79or9si++IPhmO18J/GPx1/aOhmS8t7lNZ017PyZGZIpGaMHJUrKEb2xXz7/wRR/4I+fFb9jz9rfxVrvxcum1PwX8ILC88F/BTzr+3u2GkXl/cXlxeFIyWimKvHFlwjlWdMbFSv1UopUI+xcXD7MFD5RjyJv8AvKPMr7JTlZaqzq/vIyhL7U3P5uXM0vJys2uvLG70Pjj9gz9lXx98F/8AgpH+2J4+8TaD/ZvhL4qaz4fu/C9/9tt5v7UitdOaGdvLjkaSLbIQuJVQnqMjmvseiiqv7kIfyxjFekUor52WvmK3vzn1lJyfq3d/IKKKKQwooooAKKKKACiiigAooooAKKKKACiiigD5/wD+CTv/ACiy/Zp/7JV4X/8ATRa0Uf8ABJ3/AJRZfs0/9kq8L/8ApotaKAD/AIJO/wDKLL9mn/slXhf/ANNFrX0BXz//AMEnf+UWX7NP/ZKvC/8A6aLWvoCgDy/9rz9sz4a/sHfBqf4gfFjxKvhPwjb3UNlJfmwub3E0pIjQRW0ckpyQeQpAwScCun+CXxs8KftH/CbQfHXgfXLPxJ4T8UWi32malak+XdRN3wwDKwIKsrAMrKVYAggfD3/ByzZw6j+wd4Lt7iKOe3uPit4WjljkUMkim8wVIPBBHGDVT/gi1qMn7H37SH7QH7Hepbrex+Gutt4z+HySEfvvDOqyNMIo8DpbXDlGJ6tMQAAtThZe19pGW6bUfPljTlJebtUclb7MJNrS4sR+7cGtrJy8uaU4p+l4KLutXOOq2f0/+2X/AMFMvgb/AME+tT8J2Xxf8eWvg+88cTSQaLA2n3l9JeNGY1c7baKQxqDLGN8m1ct1616x8TPip4Z+C/gHUvFXi/xBovhfwzo8QnvtV1W8jtLO0QkKGeWQhVBYgDJ5JAHJFfgn/wAFXJW/bl+HX7VH7S9wEuvCXg3xT4b+EPw7kZAym3stbtJNUu4ycHEt221WA5VSuSBX2P8A8Fb/AA1D+2R/wVi/Y6/Zv8Uf6V8L9QTVPHniXR3kC2+vyWMDG1hlU/6yNWikDR9GWd/QYKHNVoUpLSVSbSvso8kaqk+t/Zvma72jo7sdeUaVaafwwhd93JScHFf9vrkT/wC3tU0fRP7PX/BeL9kf9qf4t2/gXwT8bPDmoeKLyUW9pZ3tne6Ut9KzbViglu4YoppGbhUjdmYkYBzWp+1F/wAFp/2af2MfjdefDn4jfEO70PxpYWcOoXGm2/hbWNSaKCUbo3MlraSx4I/2sjPOK9n+K/7K3w3+OXw207wf4r8E+HdZ8NaLJBNplhLZIkelSQY8l7baAbdo9oCtEVKjgEDivzU8a/8ABQT4Pf8ABP7/AIOHvj1q3xg8a2ngnTfEPw38O2mnz3Fnc3C3MqEuyDyI3IIU5+bGe2aVSolUp007czkm32VOU12s242td/e9Goy5J1LXso2S85xi7u2qSd9lsfop+yd+3F8Jf25vhrJ4u+E/jzQfGmg27CO6ms5GjmsHI3BLiCQLNAxUZCyopI5xivCfEv8AwcK/sY+Evi7H4IvPj94QbW5J0tvOtoLu60pHY4G7UYoWs1Ud2aYKvcivE/8Agk1pUn7TX/BVH9pH9pLwX4P1zwn8CvH2h6ZoWj3Oq6XLpK+Or+IK0+qR2kiqzRjDqJnXLeced3monpH/AAXWvPhT+zh/wSA8f+CJ/CfhmG38V6d/wivgfwnp2lxJ9s1m4+SzSxtY0/1sT4mHlrlRESMHFOvN06cazi7tJ8n2rttJXstZaOK5b+8k0mrF4eMalSVJyWjtzr4bWTb3ekbtN81vdbv2+tPj9+054F/Zf+A2sfE7xxr8OkeBNBtY7291aK3mvo44ZHREdUt0kkkDNImNitw2enNfLfwr/wCDj/8AYv8AjZ8TvDvg3wx8Zf7T8SeLNSt9H0qz/wCES12H7VdXEqxRR75LJUXc7qNzsFGckgc1xPx2/YR+Kmt/8G2lp8BdO0dvEXxWt/h7o+kf2Wt7FEXuYZLZ3gEs7pGPLVGXlgP3eB2FWrP/AILJeNv2R9Q8C6P+01+zN43+B3hPxJdWvh2y8YxeJtM8TaRa3jAIgvWs3zao2OGbcepxhWI6PZxji50W7xUlFdOa7a0k7q70SST1fU5o1HLCwrJWk1Jvry2UXqt7ayb12j6n0t+3D/wUv+CP/BN7R/D+ofGjxr/whlp4qmmt9Lk/se/1H7U8Ko0gxaQSlcB15cAHPGea5X9i3/gs5+zX/wAFDfile+Cvg98SP+Ew8TafpsmsXFn/AMI/qmn+XapJFE0nmXVtEhw80Y2hix3ZxgEjzP8A4K2fCX4x6t+1D+y38UvhD8Krj4vN8Jdc1q+1XSIPEVhorGO608W8Z867kVepY8BvuYONwrpv2Tv+CtrfFz9qxvgP8W/hH4w+AvxhuNMfWtK0jWb611TTvEFohO9rO/tmMczoFZmUAABHwxKsBjhffbU97ySWzso3TV783Vuy2T23NcRaKi4bWTb3V3Jxtptpy2b6yXoe7fta/tpfC39hT4WSeNPi1400nwV4dWUQRz3e+SW6lPPlwQRK80z4BOyJGYAE4wCa7rwH440v4m+BtF8SaHdfbtF8Q2MGp6fc+W8f2i3mjWSJ9rgMu5GU4YAjOCAeK/O3/g4V/YP+GWvfsMftBfG3WtB/4SL4h2vg+Oz0i+1ad7uHw5GksSn7BC5Mds75JeRF3sT97HFfaP7B3/JjnwZ/7EXRP/TfBSovmVTm3i4elpe0+9+4n0tdrW12VnyzpqO0lO/rH2f3L32ut7J6Xser0UUUwCiiigAooooAKKKKACiiigAooooAKKKKACiiigAooooA+f8A/gk7/wAosv2af+yVeF//AE0WtFH/AASd/wCUWX7NP/ZKvC//AKaLWigA/wCCTv8Ayiy/Zp/7JV4X/wDTRa19AV8//wDBJ3/lFl+zT/2Srwv/AOmi1r6AoA+Gv+DgP4SeK/jN+xv4N0vwf4Z8Q+K9Stfid4av5rTRtOmvp4baK83SzMkSswjReWcjao5JFeQf8HAX7PXxu8EfFH4a/tEfsy+HNX8QfE+z07U/hvrdlpOnvdT3Om6nA6211Iqc7LO5JlBcFFd42bCo2f1EorH2K5eV9ZuXylCMJR9JQi1/28+yNI1Gp8/91R+6UpJ+qlJNecUfl1/wUo/4J36v8Av+De3QvgP8NvDOu+Mta8K3PhxJbTQtNmvrvUbhdVt7i+uhDEHchpWnmY4IVSegFemf8FcP2Lvil4j+MXwP/aW+BGk2vib4q/Am6niuvC11erYr4r0W6j23NqkzfKkwG7Zu4/eueWVUb75oroq1Jzk6idpe0dRPs3GMWrbWajZrqm0YU6cYpQeseTkafVXbu33u737pM+A9A/4K6/Gf9om507wr8Lf2N/j14b8a3dxDDqGqfFLRl8OeFdDiLAT3H2rzWkvBH8xWOFFeQYIxwp1/2f8A4SeK9G/4L8/tA+Mrzwz4htfCGtfDjw9Y6frk2nTR6bfXETkyQxXBXy5JE/iVWJXuBX3LRU6e0hUS1i5P/wAChKFvRKTa633drJNxbhKDekuXt9mSlf1dkn0tsk73p+I9Y/4R3w9f6gLW8vjY28lwLa0j8y4uNiltka/xO2MAdyQK/Dn4Afts+OPiL+23qP7Q37S37If7bXibxZ4emls/hn4S0H4Vz3nh34f2LYzOjTywNcajKAN87RLjHyjAjWL90qKmCcavtfKy8n1a82tL9Fe27NJO9P2fnd+a7Pyvq11aV9j5suP2+fFHiH9jjTfi94V/Z4+NWpXE+oGG/wDAutadBofi+ys0lkjluVs5pSsrDYrpCJA0qupBHSvjT/goD8UviV/wXL+CWk/AHwB+zv8AHb4Y+HvE2vabeeMfF/xP8Njwzb6Bp1vOtwwtY3laS6uS0artRSoz1wSyfq9RWkeVVFNq6UoyS842aXmuZX77q9tFPNJRtF2bTTfk7r5NJ2vtona97/OH7Xn7bPiT9iXxD4et4fgJ8Y/it4HvLFY5da8AWUWvahpt0H2LDNp+9J2jMYDmdCwzwVzzXzL8NPBnxI/4Kcf8FYvhN8fdU+E/j74L/CX4B6HqsOijxtarpfiLxTqWoRm3kBsVkd4LaNAGBk2lsYwdxVP0poopScJqrLWS5rP/ABJq7tvZSaW3Ru7VyZxTpujDSLSTXkmnZdr2V993ay2/OD/gv7+1BrPiT9kz4ufAHwr8C/2ivHnijxb4ehgsNZ8L+ALrVPD5klkjfa15FkbkVTuAUkHjk17f/wAElf2q7j42/s6+GfBmofCX43/DPVvhz4V0bTL6Tx54On0G31CZLYQuLR5SfO2tCS2AMBkP8VfWFFRRXJz315rX/wC3ebl+7nfqVV99xa05b2/7e5eb7+VegUUUUwCiiigAooooAKKKKACiiigAooooAKKKKACiiigAooooA+f/APgk7/yiy/Zp/wCyVeF//TRa0Uf8Enf+UWX7NP8A2Srwv/6aLWigA/4JO/8AKLL9mn/slXhf/wBNFrX0BXz/AP8ABJ3/AJRZfs0/9kq8L/8Apota+gKAOB+Pn7UHgX9mCDwlJ451z+w08deJbPwhoZ+xXFz9t1S7LC3t/wBzG+zfsb532xrj5mHFdJ8R/iDpPwm+HmveKtfvI9P0Pw1p9xquo3Un3be3gjaWVz7Kisfwr4g/4L3/APID/ZL/AOzkvBv/AKHdVs/8Fw/Fd98RvhL8Pf2cPDt8bTxR+0z4oh8Ly7P9ZBoUGLrWZxwflW1Tyz3/AH9S4znQfs3acqjpx7JuNNpvyTm3J/yrbR325YQqRc78qhzytvZSqc1v+3Yaef4afhT/AILbfC/wh+yx8H/iR8aI774T3vxws7rU/DGg29hqXia5urSIq6SFrKyJVmt5beYqyAKJcBn2k17L+yN/wUO+DP7dkOsf8Kr8daf4mvPDzhNU06S1uNO1PTtxIUzWd1HFcRqxBAZowrYOCcV8W/8ABWv4gaT+yL/wUm/YD1Wy8I+LNd0Xwj/wmNna6B4O0OXVtSaEaNbW8cdtaQje6xqVJCj5URj0Wus/ZT8E+NP2v/8AgsHdftNf8Kq8b/B/4d6D8OH8EW//AAmOmx6Pr3jC9kvvOaWSyDtMltDGibDcBWJK4HDBOiPs6kuaHwt1P+3VHm5b73b5YrprK62sc9Xmp04OVuZxi2t7tzcZKPW0Uua7votdz9DqK86/afuvi1afDRW+C9j8OtQ8YfbIwYvGt9eWemfZsN5h32kUsnmZ2bRt243ZI4rxb4Xaz+3JL8R9DXxr4c/ZRg8ItexDWJNE8R6/LqSWu4eabdJrFY2lC52h2VScZIFYw96XL521/rYqXurmPq13CIWbooya+INH/wCDjn9jnxBdww2PxW1W8a4m+zxtD4D8RvG779mA4sNvDAjOccV9vTp5sDqOrKQK/LH4V+Kf2tP+CHP7Bmkx+M/hv8F/ih8I/hPayvq8vg/xXqEfiS3sHunmmvPLu7KOCTyVldjGrAkL94AFqmnKKqfvXaKt5Lre8npG2mrVle7dky+Ryg+RXl0+59N38n5ato/Q2w/as8A6l+07efBqPXtvxKsPD6eKZdGksbmJm0x5vIFwkzRiGQCUhSqOzKeoFT/Hj9pzwP8AszQeFpPG2uf2P/wm3iC18LaHGtncXcuo6lclhDbokKOw3bWJdgEUAlmUc18Pf8FI/Gmm/Dr9oH9kP9tDwvdeZ4Pj1KDwh4nu9pj87w54hjRba5lBHEcFw8UmDyGlHHWur+I8qfto/wDBdHwj4S2tP4S/ZP8AC7eLtTKuGjk8SauDBYQyLjrFZJNOpzndIOmOdKcJOUITVpc8ozXbk99283TcUr3XtHbbQylNcspxd1yRlF/4/cjfy9pe9vsWd7n3lRRRUlBRRRQAUUUUAFFFFABRRRQAUUUUAFFFFABRRRQAUUUUAFFFFABRRRQB8/8A/BJ3/lFl+zT/ANkq8L/+mi1oo/4JO/8AKLL9mn/slXhf/wBNFrRQAf8ABJ3/AJRZfs0/9kq8L/8Apota+gK+f/8Agk7/AMosv2af+yVeF/8A00WtfQFAHzH/AMFNv2L/ABR+2fpvwPh8L3+gWDfDP4t6B491Q6rPNEJ7GwaYzRw+XFJunbzF2q2xDg5de/mf7OtpJ+2B/wAFm/i58Trjyrzwj+ztpMXwx8LllDKus3SR3msToccSIjW1uTnONw9a+6KKdJ8krro5Nf4pxjBv05E1bu730HVftI8r7RX/AG7GTml687Tv2Vra3XzH+1b+xf4o+On/AAUJ/Zf+LOk3+gW/h34Jz+JJNctryeZL26Go6clrB9mVYmR9rqS/mPHheRuPFfTlFFCdoKHRX/Ftv8WEnzNSfRJfJNv85M86/af/AGS/hz+2f8NF8H/FHwnpvjLwyt5HfjT70uIxPGGCSfIynIDt3714t8Lv+CHH7JvwV+I+h+LvC3wR8J6N4k8N3sWo6ZfQvcGS0uImDRyKGlIyrAHkEcV9XUUoe5Lmho97rv3FL3lyy1W3yMf4haTq+v8AgHXLHw/q6+H9evbCeDTtUa1W6GnXLRssU5ib5ZNjlW2Nw23B4NfBvx5/ZB/ba/bX+Ed/8G/id46/Z68L/DbxKg0/xN4n8G2eqv4k1jTw6l4YbS5H2W1eeMFJG82UKGYquDtH6FUVPLG95K66p6p27r81tJaSTVkVzOyUdGuq0fTr8tO3S12eFfte/sMaB+03/wAE+PFnwDt/J03R9W8LDw/pEsymRdNkgjUWUxA5PkyxQvxydledf8Efv2CvHP7E3wc8WX3xe8RaH4y+M/xI1w6v4q13Sp57i2ulhhS2s4keaOKRljgjHVBhpH6jk/XVFaRqSU6lTrNJN/Pm+9u131sjNwj7OnSS92DbXldcv5BRRRUlBRRRQAUUUUAFFFFABRRRQAUUUUAFFFFABRRRQAUUUUAFFFFABRRRQB8//wDBJ3/lFl+zT/2Srwv/AOmi1oo/4JO/8osv2af+yVeF/wD00WtFAB/wSd/5RZfs0/8AZKvC/wD6aLWvoCvn/wD4JY/6H/wT5+Fuk9P+EV0j/hGNv/PP+zZZLDZ/wH7Nj8K+gKAPmP8A4Kbfto+KP2MNN+B83hew0C/b4l/FvQPAWqDVYJpRBY37TCaSHy5Y9s6+Wu1m3oMnKN29o8e/tIfDv4VXurW/ijx74L8N3Gg6cmsanFqmt21m+nWTu0aXUwkdTHCzoyCRsKWUgHIIr46/4L3/APID/ZL/AOzkvBv/AKHdVz3xB/Zm8CftJf8ABxhfL4+8M6X4us/CnwT07WNNsNVhF1YxXo1m6iS4a3fMckkaSyBGdTsLllw2CHQTnFR6upUV+yjQhUt99/vZpiOWC5+1ODt3cq0qf5NfcfZurftrfBrQPhDYfEK++LfwysvAOqz/AGay8Sz+KLGPR7yXLDy47tpRC7ZVhtViflPoa7lPHWiSeDF8RrrGlt4ee0F+uqC7j+xNbld4mE2dnllfm35245zivzO/4Jo/8E8Pgpe/8FE/20o9Q+GvhLWNP8M+NLOy0TTNR02K703RIr/Sra6vBa2rqYYDNIyh2RASkcaZ2rivJP2avi54H+B//BEK+8KeLPhdD8X9Bh+OOp/D/wAF+B7u++z2N5dHXZW0+3uZ5SwW3STJJdZAQoDKwJNRCXMopbzhCaW/xuC5fN3qRtok9U7WTee0nzfDGcoN/wCFTbl5L92772Vn/dP1i+CX7Vvwu/aXOoD4cfEnwD8QDpJVb4eG/EFpqv2Mt90S+RI+zODjdjOK2PBHxo8H/Ey01y48N+LPDPiC38MX82lazJpupwXaaTeQgGa2uDGxEM0YYFo3wygjIGa/K/4XfC/x58F/+C8n7Oq+MPh/+zv8Lr7xD4Q8VQDT/hVeXRmvrCO3ieKPUlktbZXWORR5bKrKWVyNuwCvJf8AgsRqsfwe/wCCgXxUs/hXqXirT/hR440nQI/2qn8NwJLH4cs7i+WGK6i/eKYry5s/Njn2I2IHaRgSzMKlq6UYNXqKSTb0jKMpRTk1e0PdfM1dxbS1CMl+9k07U3FtLdxai2kna8veXKtL26Nn7a/Dn4l+HPjD4K0/xL4R8QaJ4p8OashlsdV0i+ivrK8QMVLRzRMyOAysMqTyCO1bdYHwq8OeG/B/wx8O6T4OttNs/CWm6Zb22iwadt+xxWSRKsCw7ePLEYXbjjGK/Mj9rH4IfAnXf2lfG95r/wCxX+2t431q51eeS91/w1rWoR6Rq8pb5p7VU8QQKsTdVCwxjH8I6UVmo1XCO2u++jW629dfS/RUbypKcrX0221XTrbtp93X9Vq+Xv2nbT9tOX4vXzfBjUP2XrfwD5UP2NPGmn67NrAk2DzfMa0mSErvztwoO3Gea0f+CXPhDwd4K/ZyvLPwP8Jvi38GtGbWp5G0L4iXk91q0sxjhDXCtNfXjCFgFVR5oGY3+Uckwf8ABXH9sa8/Yl/Ya8VeJfD8f23x94gaHwt4K05OZtS1u/byLWONRyzIWaYqOqwtWeKThrG7elkuraVo9dW3ZedtE9DTDe++WVktbt7JJ6tvSySV29kr621PnP8AZO/4Ka/tEeNv2ff2yPF3xB0/4K6l/wAM6wahp/hvVfCFlqMela5q+n2Fxc3scq3F08kkMUgto8oYiSZAD0K99+yD49/by+MunfDXxl4uvP2Rbf4f+K7XTtZ1O20jS/EK6xFYXEcczpC0tw0InEb4BYFNw5yK9F/ZV/Ye8B/sc/8ABMHRfgl45vNOk8Nz+H30fxhe3999hj1i71LKXzPOHVlaee4dFYPv+dAGLYNfGn/BTb9jLwR/wSJ+GHw7+I/7NviDxt8OfiNJ450TQNK8Mt421bVdL8dJcXCxSadPZ3lzMsiLC0jgoFKbMjB2kdUYqOKVOTT1pQTWzlfllK2mkpOL3ul0ZhKXNhnUV1b2k2no+WycY37xSknprJ7n6b+Pf2kPh38Kr3VrfxR498F+G7jQdOTWNTi1TW7azfTrJ3aNLqYSOpjhZ0ZBI2FLKQDkEVjat+2t8GtA+ENh8Qr74t/DKy8A6rP9msvEs/iixj0e8lyw8uO7aUQu2VYbVYn5T6GvjLx/+zP4F/aT/wCDi69Xx94Z0rxdZ+FPglp2sadp+qRC6sIr0azdRJcNA+Y5JI0lkCM6nYXLLhsEcp/wTR/4J4fBS9/4KJ/tpR6h8NfCWsaf4Z8aWdlommajpsV3puiRX+lW11eC1tXUwwGaRlDsiAlI40ztXFc9LmnBPq4zl/4BV9nb53vfpvrsaVpKE3Fa2lCPznS9pf5K6210Wm5+nWha/Y+KNDs9T0y9tNR03UIUubW7tZlmguYnAZJEdSVZWUghgSCDmvz2/YI/4LKeMP2ov+CiXiD4d+KPDvhXRfhT4vi1yb4Sa9aJMl54lGjah9ivVmZ5mjkZsPMgjjTCIc7uo+fv2bf2mtQ/ZD/4N9filpPhCG5k8Qx/ELxP8LvhxptvLumS7vdWmtbGGJpG5MRneQZPSLnua4z9q+5+O37In7Ff7PuvWv7Ifib4c6f+x3qOn62/iBvG/h/U45tPWL7NqkclvaXBnIullZ3ZAcN8zcZIdGpTdWNZv921Ba6K1WKk5N7J0ouEmru6l6MKkJ+ydKPx3ntv+7bSilvarJSin05ep+5FFZvg7xdp/j/whpWvaRdR3uk61Zw39lcRnKzwSoJI3HsysD+NaVXKMoycZKzRMJxnFTjqnqgoooqSgooooAKKKKACiiigAooooAKKKKACiiuf+LXjVfht8KvE3iKRlWPQNJutSYnoBDC8h/8AQaAPH/8Agk7/AMosv2af+yVeF/8A00WtFdD/AME9/BT/AA2/YG+B/h2RWWTQPAGg6awPUGHToIzn/vmigDnv2Tv+LS/H74yfC+f9xbrrp8e+HY24Eun6xmW729mK6smpswHKrcQ5A3qW+gK8j/ai+FOt6vf+F/iF4Ltku/Hfw5nmmtbEyrCPEOnXCql9pTSMQq+cqRSxsxCrc2lsznYHB7n4TfFbRfjb8PtN8TeH7l7nS9SRioliaGe2kRiksE0TAPFNFIrxyROA8boysAVIoAxPj5+y/wCBf2n4PCUfjnQ/7cTwL4ls/F+hj7ZcW32LVLQsbe4/cyJv2b2+R90bZ+ZTxU1p+zh4Lsf2i7z4sxaNt+IGoaBH4XuNV+1znzNOjna4SDyd/kjErM28IHOcFscV3FFEdNu7fza5W/Vx91vqtNgl7ytLsl8k+ZL0UveXZ67nD/DL9nHwZ8HfiJ478WeG9G/s7xB8TNQg1TxJdfa55v7SuYbdLeJ9kjske2JFXESopxkgkk1wN3/wTM+Bepfs3eJvhDefD3TtQ+HfjDVrrXdV0i8vLq5Wa/uZvPluUlklM0Mhl+ZTE6bD9zbXu1FLlW3kl8lay9Fyqy20XZFRk07re9/m76+ur131fdnzT+zv/wAEfv2c/wBlP4qaL468CfDeHR/Gegi7W01ybWtR1DUCtzCsMqSzXNxI86eWgVElLrFljGELMT6D8Pv2JPhb8MPBnxD8P6R4RtV0r4sahfap4wjvLq4vpPEFxep5dyZ5Z5HkZWQ7AgYIi8IqjivVaKcveXLLVWcf+3W7tejaTa2vqTH3WnHRppr1Ssn6paJ9tDkfgL8CvC/7Mvwe8P8AgHwXY3Gl+FPCtothpdnPqFzfNaQL92MS3EkkrKo4UM52gADAAA66iiqlOUpOUndvqTGMYxUYqyQV538af2T/AIf/ALRHjvwD4k8aeHl17Vvhhqra54aeW8uI4dOvimwXBhSRYpXUfdMqvsPK7TzXolFT1T6pprya1TXmnqmV0a7pp+j0a9GtGc38XPhB4X+Pnw31bwf400HTPE3hfXofs+oaZqEAmtrtMhgGU8cMAQeoIBGCBXg37Ov/AARq/Zp/ZU+KWn+NfBXwws7TxRo8XkaXfalq+oa02jpgjFot7cTJa/KSo8kIQvHTivp2iiDcJc8NH3W/9ahL3o8ktV26f1ojh7T9nDwXY/tF3nxZi0bb8QNQ0CPwvcar9rnPmadHO1wkHk7/ACRiVmbeEDnOC2OKPhl+zj4M+DvxE8d+LPDejf2d4g+JmoQap4kuvtc839pXMNulvE+yR2SPbEiriJUU4yQSSa7iiiOmi7NfJvma9HL3n3eu4S1d33T+aXKn6qOi7LTY8H0H/gmV8D/DOmeGbKz8E+XZ+D/Glx8Q9JgfWL+WK216dnaS9KtORI26RyqSbo0LZVV4r2D4g+AtH+KngPW/C/iGwh1TQfEdhPpmpWcufLu7aaNo5Y2wQcMjMDgg81sUVLjFw9k17vbpso7bfCkvRJbJFRk1P2i+Lv13ct/Vt+rb3bOU+BvwS8M/s3fCHw74D8G6fLpXhXwnZR6dpVlJeT3jWlugwkfmzu8rBRwNzEgADoBXV0UVpKUpScpO7ZnGKilGKskFFFFSUFFFFABRRRQAUUUUAFFFFABRRRQAV4D/AMFFpm8afBGw+FtmzNqXxq1m28GtFGfnOmTN5msScfdCaXFekNwN5jXOXXPuPiTxJp/g7w9fatq19aaZpel28l3eXl1KsMFrDGpZ5HdiAqqoJJJAABNeNfs9+HNQ+NPxbvvjV4gsbvTba70z+xPA+lXsTRXOnaQ8izT3s0bANFcX0iQM0TANHBa2isEl85AAe4QxLbxLHGqxxxgKqqMBQOgAop1FABXjfxG+B/iD4feN9Q8ffCqS1i1zUnE/iDwveTGHSfFhVQvmhsH7JfhFVVuFBWRVCTI4EckPslFAHlfwg/bB8J/FPxQfC98upeCPH8MZkn8JeJolsdV2jhpIBuaK8hBIBntJJogSAXDZUeqVynxf+BXgr9oLwuNE8deEfDfjHSVkEyWms6dFfQxSDpIiyKQrjs64YdiK/KX/AILC/Ffxh/wTX15LH4MeNvHHhPT/ALHDcJZ3HiK91i1t2cyArFFfSzpEnyLiNAqLg4UZOQD9haK/kC/4ijf27P8AouX/AJZnh/8A+QaP+Io39uz/AKLl/wCWZ4f/APkGgD+v2iv5Av8AiKN/bs/6Ll/5Znh//wCQaP8AiKN/bs/6Ll/5Znh//wCQaAP6/aK/kC/4ijf27P8AouX/AJZnh/8A+QaP+Io39uz/AKLl/wCWZ4f/APkGgD+v2iv5Av8AiKN/bs/6Ll/5Znh//wCQaP8AiKN/bs/6Ll/5Znh//wCQaAP6/aK/kC/4ijf27P8AouX/AJZnh/8A+QaP+Io39uz/AKLl/wCWZ4f/APkGgD+v2iv5Av8AiKN/bs/6Ll/5Znh//wCQaP8AiKN/bs/6Ll/5Znh//wCQaAP6/aK/kC/4ijf27P8AouX/AJZnh/8A+QaP+Io39uz/AKLl/wCWZ4f/APkGgD+v2iv5Av8AiKN/bs/6Ll/5Znh//wCQaP8AiKN/bs/6Ll/5Znh//wCQaAP6/aK/kC/4ijf27P8AouX/AJZnh/8A+QaP+Io39uz/AKLl/wCWZ4f/APkGgD+v2iv5Av8AiKN/bs/6Ll/5Znh//wCQaP8AiKN/bs/6Ll/5Znh//wCQaAP6/aK/kC/4ijf27P8AouX/AJZnh/8A+QaP+Io39uz/AKLl/wCWZ4f/APkGgD+v2iv5Av8AiKN/bs/6Ll/5Znh//wCQaP8AiKN/bs/6Ll/5Znh//wCQaAP6/aK/kC/4ijf27P8AouX/AJZnh/8A+QaP+Io39uz/AKLl/wCWZ4f/APkGgD+v2vPfjb+1J4K+AMtnZ69qjT+INUyNL8PaXbvqGt6sw7W9nCGmkA/ifaI0HzOyKCw/F3/gj3+3R8ZP+Ckfj7w5o/xf+JnjTXNO1poFvItJ1WXw35okSVnAbTDbMoJjXhSMDIHBIP7T/BL9lv4c/s4RXn/CDeC/Dvhq41LBv7yzs1F9qbDo9zcnM1w/+1K7NwOaAOG0P4YeK/2otas9e+KGly+F/B+nzpdaT4Ba6juJbmVGDR3WsSQs0MrowBjs4nkgjZRI7zyeWIPdqKKACiiigD//2Q==;" parent="1" vertex="1">
          <mxGeometry x="290.46000000000004" y="640" width="123.06" height="89.86" as="geometry" />
        </mxCell>
        <mxCell id="hwo8MQYsUWOJR3LI0rIK-12" value="&lt;font style=&quot;font-size: 15px;&quot;&gt;&lt;b&gt;NRF (BT832XE)&lt;br&gt;&lt;/b&gt;&lt;/font&gt;&lt;div style=&quot;font-size: 15px;&quot;&gt;&lt;span style=&quot;background-color: initial;&quot;&gt;I/P = 3.3V&lt;/span&gt;&lt;/div&gt;&lt;div style=&quot;&quot;&gt;&lt;span style=&quot;background-color: initial;&quot;&gt;Imax = 15mA&lt;/span&gt;&lt;/div&gt;" style="rounded=1;whiteSpace=wrap;html=1;align=left;" parent="1" vertex="1">
          <mxGeometry x="765" y="272" width="126" height="94" as="geometry" />
        </mxCell>
        <mxCell id="hwo8MQYsUWOJR3LI0rIK-13" value="" style="endArrow=block;html=1;rounded=0;edgeStyle=orthogonalEdgeStyle;entryX=0;entryY=0.5;entryDx=0;entryDy=0;endFill=1;strokeWidth=3;fillColor=#e51400;strokeColor=#B20000;" parent="1" edge="1">
          <mxGeometry width="50" height="50" relative="1" as="geometry">
            <mxPoint x="80" y="200" as="sourcePoint" />
            <mxPoint x="120" y="125" as="targetPoint" />
            <Array as="points">
              <mxPoint x="80" y="200" />
              <mxPoint x="80" y="125" />
            </Array>
          </mxGeometry>
        </mxCell>
        <mxCell id="hwo8MQYsUWOJR3LI0rIK-19" value="" style="endArrow=block;startArrow=block;html=1;rounded=0;edgeStyle=orthogonalEdgeStyle;entryX=-0.005;entryY=0.419;entryDx=0;entryDy=0;entryPerimeter=0;startFill=1;endFill=1;strokeWidth=3;" parent="1" target="hwo8MQYsUWOJR3LI0rIK-2" edge="1">
          <mxGeometry width="50" height="50" relative="1" as="geometry">
            <mxPoint x="414.99" y="451.88" as="sourcePoint" />
            <mxPoint x="480" y="405" as="targetPoint" />
            <Array as="points">
              <mxPoint x="465" y="452" />
              <mxPoint x="465" y="406" />
            </Array>
          </mxGeometry>
        </mxCell>
        <mxCell id="hwo8MQYsUWOJR3LI0rIK-20" value="" style="endArrow=block;html=1;rounded=0;strokeWidth=3;endFill=1;edgeStyle=orthogonalEdgeStyle;" parent="1" edge="1">
          <mxGeometry width="50" height="50" relative="1" as="geometry">
            <mxPoint x="465" y="405" as="sourcePoint" />
            <mxPoint x="415" y="325" as="targetPoint" />
            <Array as="points">
              <mxPoint x="465" y="325" />
            </Array>
          </mxGeometry>
        </mxCell>
        <mxCell id="hwo8MQYsUWOJR3LI0rIK-21" value="" style="endArrow=block;html=1;rounded=0;endFill=1;strokeWidth=3;entryX=0;entryY=0.5;entryDx=0;entryDy=0;" parent="1" target="hwo8MQYsUWOJR3LI0rIK-3" edge="1">
          <mxGeometry width="50" height="50" relative="1" as="geometry">
            <mxPoint x="155" y="318.89" as="sourcePoint" />
            <mxPoint x="210" y="318.89" as="targetPoint" />
          </mxGeometry>
        </mxCell>
        <mxCell id="hwo8MQYsUWOJR3LI0rIK-22" value="" style="endArrow=block;html=1;rounded=0;endFill=1;strokeWidth=3;entryX=0;entryY=0.5;entryDx=0;entryDy=0;" parent="1" edge="1">
          <mxGeometry width="50" height="50" relative="1" as="geometry">
            <mxPoint x="289" y="440.11" as="sourcePoint" />
            <mxPoint x="155" y="440" as="targetPoint" />
          </mxGeometry>
        </mxCell>
        <mxCell id="hwo8MQYsUWOJR3LI0rIK-23" value="" style="endArrow=block;startArrow=block;html=1;rounded=0;edgeStyle=orthogonalEdgeStyle;entryX=-0.005;entryY=0.419;entryDx=0;entryDy=0;entryPerimeter=0;startFill=1;endFill=1;strokeWidth=3;exitX=0.985;exitY=0.566;exitDx=0;exitDy=0;exitPerimeter=0;" parent="1" source="hwo8MQYsUWOJR3LI0rIK-2" edge="1">
          <mxGeometry width="50" height="50" relative="1" as="geometry">
            <mxPoint x="660" y="420" as="sourcePoint" />
            <mxPoint x="765" y="310" as="targetPoint" />
            <Array as="points">
              <mxPoint x="712" y="420" />
              <mxPoint x="712" y="310" />
            </Array>
          </mxGeometry>
        </mxCell>
        <mxCell id="hwo8MQYsUWOJR3LI0rIK-24" value="" style="endArrow=block;startArrow=block;html=1;rounded=0;edgeStyle=orthogonalEdgeStyle;startFill=1;endFill=1;strokeWidth=3;exitX=1.006;exitY=0.548;exitDx=0;exitDy=0;exitPerimeter=0;" parent="1" source="hwo8MQYsUWOJR3LI0rIK-6" edge="1">
          <mxGeometry width="50" height="50" relative="1" as="geometry">
            <mxPoint x="480" y="596" as="sourcePoint" />
            <mxPoint x="559.02" y="461" as="targetPoint" />
            <Array as="points">
              <mxPoint x="559" y="569" />
            </Array>
          </mxGeometry>
        </mxCell>
        <mxCell id="hwo8MQYsUWOJR3LI0rIK-25" value="" style="endArrow=block;startArrow=block;html=1;rounded=0;edgeStyle=orthogonalEdgeStyle;startFill=1;endFill=1;strokeWidth=3;exitX=1.006;exitY=0.548;exitDx=0;exitDy=0;exitPerimeter=0;entryX=0.77;entryY=1.011;entryDx=0;entryDy=0;entryPerimeter=0;" parent="1" target="hwo8MQYsUWOJR3LI0rIK-2" edge="1">
          <mxGeometry width="50" height="50" relative="1" as="geometry">
            <mxPoint x="410" y="688" as="sourcePoint" />
            <mxPoint x="620" y="525" as="targetPoint" />
            <Array as="points">
              <mxPoint x="619" y="688" />
            </Array>
          </mxGeometry>
        </mxCell>
        <mxCell id="hwo8MQYsUWOJR3LI0rIK-26" value="" style="endArrow=block;startArrow=block;html=1;rounded=0;endFill=1;startFill=1;strokeWidth=3;edgeStyle=orthogonalEdgeStyle;exitX=0.997;exitY=0.609;exitDx=0;exitDy=0;exitPerimeter=0;" parent="1" edge="1">
          <mxGeometry width="50" height="50" relative="1" as="geometry">
            <mxPoint x="152.15499999999997" y="644.81" as="sourcePoint" />
            <mxPoint x="290.46" y="685" as="targetPoint" />
            <Array as="points">
              <mxPoint x="220" y="645" />
              <mxPoint x="220" y="685" />
            </Array>
          </mxGeometry>
        </mxCell>
        <mxCell id="hwo8MQYsUWOJR3LI0rIK-27" value="" style="endArrow=block;html=1;rounded=0;strokeWidth=3;endFill=1;edgeStyle=orthogonalEdgeStyle;" parent="1" edge="1">
          <mxGeometry width="50" height="50" relative="1" as="geometry">
            <mxPoint x="220" y="685" as="sourcePoint" />
            <mxPoint x="152.5" y="735" as="targetPoint" />
            <Array as="points">
              <mxPoint x="220" y="715" />
              <mxPoint x="220" y="735" />
            </Array>
          </mxGeometry>
        </mxCell>
        <mxCell id="hwo8MQYsUWOJR3LI0rIK-30" value="" style="endArrow=block;startArrow=block;html=1;rounded=0;edgeStyle=orthogonalEdgeStyle;startFill=1;endFill=1;strokeWidth=3;entryX=-0.003;entryY=0.588;entryDx=0;entryDy=0;entryPerimeter=0;exitX=1.007;exitY=0.913;exitDx=0;exitDy=0;exitPerimeter=0;" parent="1" source="hwo8MQYsUWOJR3LI0rIK-7" edge="1">
          <mxGeometry width="50" height="50" relative="1" as="geometry">
            <mxPoint x="160.38" y="465" as="sourcePoint" />
            <mxPoint x="287.99103" y="567.04" as="targetPoint" />
            <Array as="points">
              <mxPoint x="215" y="465" />
              <mxPoint x="215" y="567" />
            </Array>
          </mxGeometry>
        </mxCell>
        <mxCell id="hwo8MQYsUWOJR3LI0rIK-32" value="" style="endArrow=block;html=1;rounded=0;strokeWidth=3;endFill=1;fillColor=#f0a30a;strokeColor=#BD7000;" parent="1" edge="1">
          <mxGeometry width="50" height="50" relative="1" as="geometry">
            <mxPoint x="450" y="300" as="sourcePoint" />
            <mxPoint x="414.99" y="300" as="targetPoint" />
          </mxGeometry>
        </mxCell>
        <mxCell id="hwo8MQYsUWOJR3LI0rIK-33" value="" style="endArrow=block;html=1;rounded=0;strokeWidth=3;endFill=1;fillColor=#f0a30a;strokeColor=#BD7000;" parent="1" edge="1">
          <mxGeometry width="50" height="50" relative="1" as="geometry">
            <mxPoint x="450" y="430" as="sourcePoint" />
            <mxPoint x="414.99" y="430" as="targetPoint" />
          </mxGeometry>
        </mxCell>
        <mxCell id="hwo8MQYsUWOJR3LI0rIK-34" value="" style="endArrow=block;html=1;rounded=0;strokeWidth=3;endFill=1;fillColor=#f0a30a;strokeColor=#BD7000;" parent="1" edge="1">
          <mxGeometry width="50" height="50" relative="1" as="geometry">
            <mxPoint x="450.99" y="550" as="sourcePoint" />
            <mxPoint x="415.98" y="550" as="targetPoint" />
          </mxGeometry>
        </mxCell>
        <mxCell id="hwo8MQYsUWOJR3LI0rIK-36" value="" style="endArrow=block;html=1;rounded=0;strokeWidth=3;endFill=1;fillColor=#e3c800;strokeColor=#B09500;edgeStyle=orthogonalEdgeStyle;entryX=0.5;entryY=0;entryDx=0;entryDy=0;" parent="1" target="hwo8MQYsUWOJR3LI0rIK-12" edge="1">
          <mxGeometry width="50" height="50" relative="1" as="geometry">
            <mxPoint x="625.21" y="120" as="sourcePoint" />
            <mxPoint x="685.21" y="120" as="targetPoint" />
          </mxGeometry>
        </mxCell>
        <mxCell id="hwo8MQYsUWOJR3LI0rIK-37" value="" style="triangle;whiteSpace=wrap;html=1;rotation=90;strokeWidth=2;" parent="1" vertex="1">
          <mxGeometry x="930" y="255" width="20" height="30" as="geometry" />
        </mxCell>
        <mxCell id="hwo8MQYsUWOJR3LI0rIK-38" value="" style="endArrow=none;html=1;rounded=0;edgeStyle=orthogonalEdgeStyle;exitX=1;exitY=0.5;exitDx=0;exitDy=0;entryX=1;entryY=0.5;entryDx=0;entryDy=0;strokeWidth=2;" parent="1" source="hwo8MQYsUWOJR3LI0rIK-12" target="hwo8MQYsUWOJR3LI0rIK-37" edge="1">
          <mxGeometry width="50" height="50" relative="1" as="geometry">
            <mxPoint x="960" y="320" as="sourcePoint" />
            <mxPoint x="960" y="260" as="targetPoint" />
            <Array as="points">
              <mxPoint x="940" y="319" />
            </Array>
          </mxGeometry>
        </mxCell>
        <mxCell id="hwo8MQYsUWOJR3LI0rIK-41" value="&lt;font style=&quot;font-size: 14px;&quot;&gt;&lt;b&gt;Antenna&lt;/b&gt;&lt;/font&gt;" style="text;html=1;align=center;verticalAlign=middle;resizable=0;points=[];autosize=1;strokeColor=none;fillColor=none;" parent="1" vertex="1">
          <mxGeometry x="902.5" y="228" width="75" height="35" as="geometry" />
        </mxCell>
        <mxCell id="hwo8MQYsUWOJR3LI0rIK-42" value="" style="endArrow=classic;html=1;rounded=0;strokeWidth=2;edgeStyle=isometricEdgeStyle;" parent="1" edge="1">
          <mxGeometry width="50" height="50" relative="1" as="geometry">
            <mxPoint x="970" y="242" as="sourcePoint" />
            <mxPoint x="1010" y="210" as="targetPoint" />
          </mxGeometry>
        </mxCell>
        <mxCell id="hwo8MQYsUWOJR3LI0rIK-43" value="" style="endArrow=classic;html=1;rounded=0;strokeWidth=2;edgeStyle=isometricEdgeStyle;" parent="1" edge="1">
          <mxGeometry width="50" height="50" relative="1" as="geometry">
            <mxPoint x="977.5" y="260" as="sourcePoint" />
            <mxPoint x="1017.5" y="228" as="targetPoint" />
          </mxGeometry>
        </mxCell>
        <mxCell id="VWlUSUDfFTeoymfsgq_O-1" value="" style="endArrow=block;html=1;rounded=0;endFill=1;strokeWidth=3;edgeStyle=orthogonalEdgeStyle;entryX=-0.001;entryY=0.158;entryDx=0;entryDy=0;entryPerimeter=0;fillColor=#fa6800;strokeColor=#C73500;" parent="1" target="hwo8MQYsUWOJR3LI0rIK-4" edge="1">
          <mxGeometry width="50" height="50" relative="1" as="geometry">
            <mxPoint x="260" y="125" as="sourcePoint" />
            <mxPoint x="260" y="420" as="targetPoint" />
            <Array as="points">
              <mxPoint x="260" y="420" />
            </Array>
          </mxGeometry>
        </mxCell>
        <mxCell id="VWlUSUDfFTeoymfsgq_O-2" value="" style="endArrow=block;html=1;rounded=0;entryX=-0.003;entryY=0.295;entryDx=0;entryDy=0;entryPerimeter=0;strokeWidth=3;endFill=1;fillColor=#fa6800;strokeColor=#C73500;" parent="1" target="hwo8MQYsUWOJR3LI0rIK-3" edge="1">
          <mxGeometry width="50" height="50" relative="1" as="geometry">
            <mxPoint x="260" y="300" as="sourcePoint" />
            <mxPoint x="260" y="280" as="targetPoint" />
          </mxGeometry>
        </mxCell>
      </root>
    </mxGraphModel>
  </diagram>
</mxfile>
